<svg xmlns="http://www.w3.org/2000/svg" width="24" height="24" viewBox="0 0 24 24" fill="none" class="injected-svg" data-src="https://images.ctfassets.net/lh3zuq09vnm2/1tzrifnsp2qsiduERv4Y6W/f225835ed99cf89c2428959be2287def/Ping-pong-user-panel.svg" xmlns:xlink="http://www.w3.org/1999/xlink">
<path fill-rule="evenodd" clip-rule="evenodd" d="M9.49212 3.20624C7.98347 3.20624 6.76048 4.44392 6.76048 5.97067C6.76048 7.49743 7.98347 8.73511 9.49212 8.73511C11.0008 8.73511 12.2238 7.49743 12.2238 5.97067C12.2238 4.44392 11.0008 3.20624 9.49212 3.20624ZM5.07448 5.97067C5.07448 3.50159 7.05232 1.5 9.49212 1.5C11.9319 1.5 13.9097 3.50159 13.9097 5.97067C13.9097 8.43976 11.9319 10.4413 9.49212 10.4413C7.05232 10.4413 5.07448 8.43976 5.07448 5.97067Z" fill="#FF3C00"/>
<path fill-rule="evenodd" clip-rule="evenodd" d="M12 13.5C11.0411 13.0228 10.2761 12.8689 9.2088 12.92C8.14147 12.9711 7.10436 13.2952 6.19434 13.8619C5.28432 14.4287 4.53108 15.2196 4.00499 16.1608C3.4796 17.1007 3.19786 18.16 3.186 19.2398V20.7938H7.10918C7.57475 20.7938 7.95218 21.1757 7.95218 21.6469C7.95218 22.118 7.57475 22.5 7.10918 22.5H2.343C1.87742 22.5 1.5 22.118 1.5 21.6469V19.2263C1.51414 17.8566 1.87111 16.5129 2.53751 15.3207C3.2039 14.1285 4.15801 13.1267 5.31071 12.4088C6.46342 11.6909 7.7771 11.2804 9.12907 11.2157C10.481 11.1509 11.5295 11.3644 12.744 11.9689C13.1618 12.1768 13.3339 12.6881 13.1285 13.1109C12.923 13.5337 12.4178 13.7079 12 13.5Z" fill="#FF3C00"/>
<circle cx="18.001" cy="7.5" r="1.5" fill="#FF3C00"/>
<path fill-rule="evenodd" clip-rule="evenodd" d="M20.1697 16.6111C19.2923 17.7822 17.6316 18.0203 16.4604 17.1428C15.2893 16.2653 15.0513 14.6046 15.9288 13.4335C16.8063 12.2624 18.467 12.0243 19.6381 12.9018C20.8092 13.7793 21.0472 15.44 20.1697 16.6111ZM16.199 18.7374C17.9587 19.6164 20.1489 19.1406 21.3702 17.5106C22.7444 15.6765 22.3716 13.0756 20.5375 11.7014C18.7034 10.3272 16.1026 10.7 14.7284 12.534C13.5071 14.164 13.6656 16.3995 15.0033 17.8415C14.9885 17.858 14.9743 17.8753 14.9608 17.8934L12.9701 20.5501C12.7218 20.8816 12.7891 21.3517 13.1206 21.6001C13.4521 21.8484 13.9222 21.7811 14.1706 21.4496L16.1612 18.7929C16.1747 18.7748 16.1873 18.7563 16.199 18.7374Z" fill="#FF3C00"/>
</svg>