<svg xmlns="http://www.w3.org/2000/svg" width="16" height="16" viewBox="0 0 16 16" fill="none" class="injected-svg" data-src="https://images.ctfassets.net/lh3zuq09vnm2/781JfBDcf9t0A3IscD6kDI/7635c8bf3c5f21c89688c1b3d47f7046/NEW_Marketing_Icon_Ember.svg" xmlns:xlink="http://www.w3.org/1999/xlink">
<path d="M13.9812 8.49127C13.7173 11.7948 10.8284 14.2583 7.52487 13.9972C4.22134 13.7333 1.75783 10.8444 2.01899 7.54086C2.25591 4.57926 4.6225 2.23691 7.5841 2.03229" stroke="#FF3300" stroke-linecap="round" stroke-linejoin="round"/>
<path d="M10.5755 9.00827C10.0209 10.4352 8.41625 11.1406 6.99199 10.586C5.56503 10.0314 4.85963 8.42672 5.41426 7.00246C5.69427 6.28091 6.26505 5.71013 6.9866 5.42743" stroke="#FF3300" stroke-linecap="round" stroke-linejoin="round"/>
<path d="M7.99866 8.00139L10.306 5.69403" stroke="#FF3300" stroke-linecap="round" stroke-linejoin="round"/>
<path d="M12.1532 6.15432L10.3062 5.69392L9.84583 3.84696L11.6901 2L12.1532 3.84696L14.0001 4.30736L12.1532 6.15432Z" fill="#FF3300" stroke="#FF3300" stroke-linecap="round" stroke-linejoin="round"/>
</svg>