<svg xmlns="http://www.w3.org/2000/svg" width="24" height="24" viewBox="0 0 24 24" fill="none" class="injected-svg" data-src="https://images.ctfassets.net/lh3zuq09vnm2/r711lbna0S0E0pzlDYwp3/98d0b2222df17ea331e1c431914ba9d8/product-teams-icon.svg" xmlns:xlink="http://www.w3.org/1999/xlink">
<g clip-path="url(#clip0_1427_21474-1)">
<circle cx="12.0718" cy="7.5" r="2.5" stroke="#FF3C00" stroke-width="1.5"/>
<path d="M16.0718 10C17.4525 10 18.5718 8.88071 18.5718 7.5C18.5718 6.11929 17.4525 5 16.0718 5" stroke="#FF3C00" stroke-width="1.5" stroke-linecap="round"/>
<path d="M16.6194 16.5126C16.8074 17.1027 16.9272 17.7245 16.9755 18.3578C17.0026 18.7118 16.7122 19 16.3571 19H12L7.64286 19C7.28782 19 6.99743 18.7118 7.02447 18.3578C7.07284 17.7245 7.19258 17.1027 7.3806 16.5126C7.63188 15.7239 8.00017 15.0074 8.46447 14.4038C8.92876 13.8002 9.47995 13.3214 10.0866 12.9948C10.6932 12.6681 11.3434 12.5 12 12.5C12.6566 12.5 13.3068 12.6681 13.9134 12.9948C14.52 13.3214 15.0712 13.8002 15.5355 14.4038C15.9998 15.0074 16.3681 15.7239 16.6194 16.5126Z" stroke="#FF3C00" stroke-width="1.5"/>
<path d="M17 12.5C17.6566 12.5 18.3068 12.6681 18.9134 12.9948C19.52 13.3214 20.0712 13.8002 20.5355 14.4038C20.9998 15.0074 21.3681 15.7239 21.6194 16.5126C21.8074 17.1027 21.9272 17.7245 21.9755 18.3578C22.0026 18.7118 21.7122 19 21.3571 19H18.9134" stroke="#FF3C00" stroke-width="1.5" stroke-linecap="round"/>
<path d="M7.92822 10C6.54751 10 5.42822 8.88071 5.42822 7.5C5.42822 6.11929 6.54751 5 7.92822 5" stroke="#FF3C00" stroke-width="1.5" stroke-linecap="round"/>
<path d="M7 12.5C6.34339 12.5 5.69321 12.6681 5.08658 12.9948C4.47996 13.3214 3.92876 13.8002 3.46447 14.4038C3.00017 15.0074 2.63188 15.7239 2.3806 16.5126C2.19258 17.1027 2.07284 17.7245 2.02447 18.3578C1.99743 18.7118 2.28782 19 2.64286 19H5.08658" stroke="#FF3C00" stroke-width="1.5" stroke-linecap="round"/>
</g>
<defs>
<clipPath id="clip0_1427_21474-1">
<rect width="24" height="24" fill="white"/>
</clipPath>
</defs>
</svg>