<svg xmlns="http://www.w3.org/2000/svg" width="24" height="24" viewBox="0 0 24 24" fill="none" class="injected-svg" data-src="https://images.ctfassets.net/lh3zuq09vnm2/7uWcf9i4jnbEPUuWSnysKe/b4792bb15e0fe72170f73349067ce53b/Growing-teams-icon.svg" xmlns:xlink="http://www.w3.org/1999/xlink">
<path fill-rule="evenodd" clip-rule="evenodd" d="M22.7137 1.41133C22.8885 1.58619 22.966 1.83601 22.9207 2.07912L22.2063 5.91066C21.6194 9.05904 19.1563 11.5221 16.008 12.109L12.5171 12.7598C11.1237 15.3094 11.1787 18.4168 12.6821 20.9224C12.8952 21.2775 12.78 21.7382 12.4248 21.9514C12.0696 22.1645 11.609 22.0493 11.3958 21.6941C10.0884 19.515 9.70723 16.951 10.2524 14.5475L8.72196 14.2939C5.56895 13.7714 3.06004 11.3669 2.404 8.23898L2.08263 6.7067C2.03181 6.46437 2.10386 6.21257 2.27518 6.03381C2.4465 5.85505 2.69501 5.77236 2.93928 5.81284L5.21132 6.18935C8.14524 6.67555 10.5215 8.79123 11.3661 11.6031L12.016 8.11705C12.6029 4.96868 15.066 2.50563 18.2144 1.91868L22.0459 1.20437C22.289 1.15904 22.5388 1.23647 22.7137 1.41133ZM21.2456 2.87941L18.4893 3.39327C15.9503 3.86662 13.9639 5.85295 13.4906 8.39196L12.9767 11.1483L15.7331 10.6344C18.2721 10.1611 20.2584 8.17477 20.7317 5.63576L21.2456 2.87941ZM4.9661 7.66917L3.77576 7.47192L3.87206 7.93108C4.40112 10.4536 6.42443 12.3927 8.96719 12.8141L10.1575 13.0113L10.0612 12.5522C9.53216 10.0296 7.50885 8.09054 4.9661 7.66917Z" fill="#FF3C00"/>
</svg>