<svg xmlns="http://www.w3.org/2000/svg" width="16" height="15" viewBox="0 0 16 15" fill="none" class="injected-svg" data-src="https://images.ctfassets.net/lh3zuq09vnm2/rei0bZGIntzeRG0WxjqMU/6b4e13b31a6cb4c16cd0f64a694e4005/Vector.svg" xmlns:xlink="http://www.w3.org/1999/xlink">
<path d="M14.4999 7H12.9999V1.5C13.0093 1.11227 12.8646 0.73663 12.5975 0.45545C12.3304 0.17426 11.9626 0.01048 11.5749 0H1.42494C1.03724 0.01048 0.669515 0.17426 0.402388 0.45545C0.135261 0.73663 -0.00946411 1.11227 -5.67465e-05 1.5V8.5C-0.00946411 8.88773 0.135261 9.2634 0.402388 9.5446C0.669515 9.8257 1.03724 9.9895 1.42494 10H5.99994V12H4.49994C4.36733 12 4.24016 12.0527 4.14639 12.1464C4.05262 12.2402 3.99994 12.3674 3.99994 12.5C3.99994 12.6326 4.05262 12.7598 4.14639 12.8536C4.24016 12.9473 4.36733 13 4.49994 13H8.49994C8.63255 13 8.75973 12.9473 8.8535 12.8536C8.94726 12.7598 8.99994 12.6326 8.99994 12.5C8.99994 12.3674 8.94726 12.2402 8.8535 12.1464C8.75973 12.0527 8.63255 12 8.49994 12H6.99994V10H9.99994V13.5C9.99994 13.8978 10.158 14.2794 10.4393 14.5607C10.7206 14.842 11.1021 15 11.4999 15H14.4999C14.8978 15 15.2793 14.842 15.5606 14.5607C15.8419 14.2794 15.9999 13.8978 15.9999 13.5V8.5C15.9999 8.10218 15.8419 7.72064 15.5606 7.43934C15.2793 7.15804 14.8978 7 14.4999 7ZM9.99994 8.5V9H1.42494C1.30289 8.98855 1.19013 8.92986 1.11074 8.83645C1.03134 8.74304 0.991582 8.62231 0.999943 8.5V1.5C0.991582 1.37769 1.03134 1.25696 1.11074 1.16355C1.19013 1.07014 1.30289 1.01145 1.42494 1H11.5749C11.697 1.01145 11.8098 1.07014 11.8891 1.16355C11.9685 1.25696 12.0083 1.37769 11.9999 1.5V7H11.4999C11.1021 7 10.7206 7.15804 10.4393 7.43934C10.158 7.72064 9.99994 8.10218 9.99994 8.5ZM14.9999 13.5C14.9999 13.6326 14.9473 13.7598 14.8535 13.8536C14.7597 13.9473 14.6326 14 14.4999 14H11.4999C11.3673 14 11.2402 13.9473 11.1464 13.8536C11.0526 13.7598 10.9999 13.6326 10.9999 13.5V8.5C10.9999 8.36739 11.0526 8.24021 11.1464 8.14645C11.2402 8.05268 11.3673 8 11.4999 8H14.4999C14.6326 8 14.7597 8.05268 14.8535 8.14645C14.9473 8.24021 14.9999 8.36739 14.9999 8.5V13.5Z" fill="#FF3C00"/>
</svg>