<svg xmlns="http://www.w3.org/2000/svg" width="16" height="16" viewBox="0 0 16 16" fill="none" class="injected-svg" data-src="https://images.ctfassets.net/lh3zuq09vnm2/2zSp0IQk0E9iOi36cn8n4n/eb85b848d9853ec849a934feeca55f4e/icon-product-design.svg" xmlns:xlink="http://www.w3.org/1999/xlink">
<path d="M14.5 1H1.5C1.10218 1 0.720644 1.15804 0.43934 1.43934C0.158035 1.72064 0 2.10218 0 2.5V12.5C0 12.8978 0.158035 13.2794 0.43934 13.5607C0.720644 13.842 1.10218 14 1.5 14H14.5C14.8978 14 15.2794 13.842 15.5607 13.5607C15.842 13.2794 16 12.8978 16 12.5V2.5C16 2.10218 15.842 1.72064 15.5607 1.43934C15.2794 1.15804 14.8978 1 14.5 1ZM1.5 2H14.5C14.6326 2 14.7598 2.05268 14.8536 2.14645C14.9473 2.24021 15 2.36739 15 2.5V4H1V2.5C1 2.36739 1.05268 2.24021 1.14645 2.14645C1.24021 2.05268 1.36739 2 1.5 2ZM1 12.5V5H10V13H1.5C1.36739 13 1.24021 12.9473 1.14645 12.8536C1.05268 12.7598 1 12.6326 1 12.5ZM14.5 13H11V5H15V12.5C15 12.6326 14.9473 12.7598 14.8536 12.8536C14.7598 12.9473 14.6326 13 14.5 13Z" fill="#FF3C00"/>
<path d="M3.5 8H7.5C7.63261 8 7.75979 7.94732 7.85355 7.85355C7.94732 7.75979 8 7.63261 8 7.5C8 7.36739 7.94732 7.24021 7.85355 7.14645C7.75979 7.05268 7.63261 7 7.5 7H3.5C3.36739 7 3.24021 7.05268 3.14645 7.14645C3.05268 7.24021 3 7.36739 3 7.5C3 7.63261 3.05268 7.75979 3.14645 7.85355C3.24021 7.94732 3.36739 8 3.5 8Z" fill="#FF3C00"/>
<path d="M7.5 10H3.5C3.36739 10 3.24021 10.0527 3.14645 10.1464C3.05268 10.2402 3 10.3674 3 10.5C3 10.6326 3.05268 10.7598 3.14645 10.8536C3.24021 10.9473 3.36739 11 3.5 11H7.5C7.63261 11 7.75979 10.9473 7.85355 10.8536C7.94732 10.7598 8 10.6326 8 10.5C8 10.3674 7.94732 10.2402 7.85355 10.1464C7.75979 10.0527 7.63261 10 7.5 10Z" fill="#FF3C00"/>
</svg>