<svg xmlns="http://www.w3.org/2000/svg" width="16" height="16" viewBox="0 0 16 16" fill="none" class="injected-svg" data-src="https://images.ctfassets.net/lh3zuq09vnm2/7cgrCG4MpaK39UueExbDYI/71315bdec4d36e36cf57a23195cc92a4/icon-research.svg" xmlns:xlink="http://www.w3.org/1999/xlink">
<path d="M4 10.5V12.5C4 12.6326 4.05268 12.7598 4.14645 12.8536C4.24021 12.9473 4.36739 13 4.5 13C4.63261 13 4.75979 12.9473 4.85355 12.8536C4.94732 12.7598 5 12.6326 5 12.5V10.5C5 10.3674 4.94732 10.2402 4.85355 10.1464C4.75979 10.0527 4.63261 10 4.5 10C4.36739 10 4.24021 10.0527 4.14645 10.1464C4.05268 10.2402 4 10.3674 4 10.5Z" fill="#FF3C00"/>
<path d="M7 11.5V12.5C7 12.6326 7.05268 12.7598 7.14645 12.8536C7.24021 12.9473 7.36739 13 7.5 13C7.63261 13 7.75979 12.9473 7.85355 12.8536C7.94732 12.7598 8 12.6326 8 12.5V11.5C8 11.3674 7.94732 11.2402 7.85355 11.1464C7.75979 11.0527 7.63261 11 7.5 11C7.36739 11 7.24021 11.0527 7.14645 11.1464C7.05268 11.2402 7 11.3674 7 11.5Z" fill="#FF3C00"/>
<path d="M10 9.5V12.5C10 12.6326 10.0527 12.7598 10.1464 12.8536C10.2402 12.9473 10.3674 13 10.5 13C10.6326 13 10.7598 12.9473 10.8536 12.8536C10.9473 12.7598 11 12.6326 11 12.5V9.5C11 9.36739 10.9473 9.24021 10.8536 9.14645C10.7598 9.05268 10.6326 9 10.5 9C10.3674 9 10.2402 9.05268 10.1464 9.14645C10.0527 9.24021 10 9.36739 10 9.5Z" fill="#FF3C00"/>
<path d="M13.5 14H2.5C2.36739 14 2.24021 13.9473 2.14645 13.8536C2.05268 13.7598 2 13.6326 2 13.5V9.705L4.145 7.56C4.19148 7.51314 4.24678 7.47594 4.30771 7.45055C4.36864 7.42517 4.43399 7.4121 4.5 7.4121C4.56601 7.4121 4.63136 7.42517 4.69229 7.45055C4.75322 7.47594 4.80852 7.51314 4.855 7.56L6.44 9.145C6.72125 9.4259 7.1025 9.58368 7.5 9.58368C7.8975 9.58368 8.27875 9.4259 8.56 9.145L13.855 3.855C13.9492 3.76085 14.002 3.63315 14.002 3.5C14.002 3.36685 13.9492 3.23915 13.855 3.145C13.7608 3.05085 13.6332 2.99795 13.5 2.99795C13.3668 2.99795 13.2392 3.05085 13.145 3.145L7.855 8.44C7.80852 8.48686 7.75322 8.52406 7.69229 8.54945C7.63136 8.57483 7.56601 8.5879 7.5 8.5879C7.43399 8.5879 7.36864 8.57483 7.30771 8.54945C7.24678 8.52406 7.19148 8.48686 7.145 8.44L5.56 6.855C5.27503 6.58122 4.89518 6.42831 4.5 6.42831C4.10482 6.42831 3.72497 6.58122 3.44 6.855L2 8.295V1.5C2 1.36739 1.94732 1.24021 1.85355 1.14645C1.75979 1.05268 1.63261 1 1.5 1C1.36739 1 1.24021 1.05268 1.14645 1.14645C1.05268 1.24021 1 1.36739 1 1.5V13.5C1 13.8978 1.15804 14.2794 1.43934 14.5607C1.72064 14.842 2.10218 15 2.5 15H13.5C13.6326 15 13.7598 14.9473 13.8536 14.8536C13.9473 14.7598 14 14.6326 14 14.5C14 14.3674 13.9473 14.2402 13.8536 14.1464C13.7598 14.0527 13.6326 14 13.5 14Z" fill="#FF3C00"/>
<path d="M13.5 6C13.3674 6 13.2402 6.05268 13.1464 6.14645C13.0527 6.24021 13 6.36739 13 6.5V12.5C13 12.6326 13.0527 12.7598 13.1464 12.8536C13.2402 12.9473 13.3674 13 13.5 13C13.6326 13 13.7598 12.9473 13.8536 12.8536C13.9473 12.7598 14 12.6326 14 12.5V6.5C14 6.36739 13.9473 6.24021 13.8536 6.14645C13.7598 6.05268 13.6326 6 13.5 6Z" fill="#FF3C00"/>
</svg>