<svg xmlns="http://www.w3.org/2000/svg" width="24" height="24" viewBox="0 0 24 24" fill="none" class="injected-svg" data-src="https://images.ctfassets.net/lh3zuq09vnm2/7CGR3vuQS1YEVnhmvHTmU7/8141706b5b36a658fd4da066a293fbeb/approve-reject-menu-icon.svg" xmlns:xlink="http://www.w3.org/1999/xlink">
<circle cx="15.921" cy="15.8158" r="6.07895" stroke="#FF3C00" stroke-width="1.5"/>
<path d="M13.4178 16.7116L15.3666 18.6667L18.3257 14.0057" stroke="#FF3C00" stroke-width="1.5" stroke-linecap="round" stroke-linejoin="round"/>
<path d="M4.75725 10.4482L9.43848 5.76701" stroke="#FF3C00" stroke-width="1.5" stroke-linecap="round" stroke-linejoin="round"/>
<path d="M4.77276 5.74218L9.40461 10.4723" stroke="#FF3C00" stroke-width="1.5" stroke-linecap="round" stroke-linejoin="round"/>
<path d="M13.1579 7.57358C13.0598 6.40007 12.6224 5.28026 11.8988 4.35023C11.1753 3.42019 10.1967 2.71997 9.08205 2.33465C7.96739 1.94933 6.76462 1.89549 5.6199 2.17969C4.47517 2.46388 3.43776 3.07387 2.63374 3.93553C1.82971 4.7972 1.29368 5.87344 1.09077 7.03348C0.887863 8.19352 1.02682 9.38743 1.49075 10.4701C1.95468 11.5528 2.72362 12.4777 3.70413 13.1324C4.68463 13.787 5.8345 14.1433 7.014 14.1579" stroke="#FF3C00" stroke-width="1.5" stroke-linecap="round"/>
</svg>