<svg xmlns="http://www.w3.org/2000/svg" width="24" height="24" viewBox="0 0 24 24" fill="none" class="injected-svg" data-src="https://images.ctfassets.net/lh3zuq09vnm2/6Pg7YqZZNOdtjqoUb2MEEy/8c8b8a3067b9fc2886b83b5d405c7d76/impect-menu-icon.svg" xmlns:xlink="http://www.w3.org/1999/xlink">
<path fill-rule="evenodd" clip-rule="evenodd" d="M10 5.5H3.5V16.8979H10.5967C10.6199 16.8968 10.6432 16.8968 10.6666 16.8979H13.4624C13.4858 16.8968 13.5091 16.8968 13.5323 16.8979H20.6302V15.5C20.6302 15.0858 20.966 14.75 21.3802 14.75C21.7945 14.75 22.1302 15.0858 22.1302 15.5V16.9313C22.1302 17.3203 21.9757 17.6933 21.7007 17.9683C21.4257 18.2434 21.0526 18.3979 20.6637 18.3979H14.6056L15.4385 20.48H16.3638C16.778 20.48 17.1138 20.8158 17.1138 21.23C17.1138 21.6442 16.778 21.98 16.3638 21.98H14.9482C14.9367 21.9802 14.9252 21.9802 14.9137 21.98H9.21534C9.20387 21.9802 9.19237 21.9802 9.18085 21.98H7.76519C7.35098 21.98 7.01519 21.6442 7.01519 21.23C7.01519 20.8158 7.35098 20.48 7.76519 20.48H8.69055L9.5234 18.3979H3.46655C3.07759 18.3979 2.70457 18.2433 2.42954 17.9683C2.15451 17.6933 2 17.3203 2 16.9313V5.46655C2 5.0776 2.15451 4.70457 2.42954 4.42954C2.70457 4.15451 3.07759 4 3.46655 4H10C10.4142 4 10.75 4.33579 10.75 4.75C10.75 5.16421 10.4142 5.5 10 5.5ZM10.3061 20.48H13.8229L12.9901 18.3979H11.1389L10.3061 20.48Z" fill="#FF3C00"/>
<path d="M15.3289 7.33553C15.3289 9.17769 16.8223 10.6711 18.6645 10.6711C20.5066 10.6711 22 9.17769 22 7.33553C22 5.49337 20.5066 4 18.6645 4C16.8223 4 15.3289 5.49337 15.3289 7.33553Z" stroke="#FF3C00" stroke-width="1.5" stroke-linecap="round" stroke-linejoin="round"/>
<path d="M13.5 12.5002L16.3079 9.69238" stroke="#FF3C00" stroke-width="1.5" stroke-linecap="round" stroke-linejoin="round"/>
</svg>