<svg xmlns="http://www.w3.org/2000/svg" width="24" height="24" viewBox="0 0 24 24" fill="none" class="injected-svg" data-src="https://images.ctfassets.net/lh3zuq09vnm2/1wkZNcLult1ZunotG7R4mB/f719cf8e1e61c0077af2d1cab3a3697f/support-menu-icon.svg" xmlns:xlink="http://www.w3.org/1999/xlink">
<g clip-path="url(#clip0_1435_1454-5)">
<path d="M12 17.3752C12.6213 17.3752 13.125 16.8715 13.125 16.2502C13.125 15.6289 12.6213 15.1252 12 15.1252C11.3786 15.1252 10.875 15.6289 10.875 16.2502C10.875 16.8715 11.3786 17.3752 12 17.3752Z" fill="#FF3C00"/>
<path d="M15.75 17.3752C16.3713 17.3752 16.875 16.8715 16.875 16.2502C16.875 15.6289 16.3713 15.1252 15.75 15.1252C15.1286 15.1252 14.625 15.6289 14.625 16.2502C14.625 16.8715 15.1286 17.3752 15.75 17.3752Z" fill="#FF3C00"/>
<path d="M19.5 17.3752C20.1213 17.3752 20.625 16.8715 20.625 16.2502C20.625 15.6289 20.1213 15.1252 19.5 15.1252C18.8786 15.1252 18.375 15.6289 18.375 16.2502C18.375 16.8715 18.8786 17.3752 19.5 17.3752Z" fill="#FF3C00"/>
<path fill-rule="evenodd" clip-rule="evenodd" d="M15.6342 10.1186C14.7303 10.118 13.8378 10.3215 13.0233 10.714C12.2089 11.1065 11.4934 11.6779 10.9302 12.3855C10.367 13.0932 9.9707 13.919 9.77076 14.8013C9.57082 15.6837 9.57245 16.5998 9.77552 17.4814C9.9786 18.363 10.3779 19.1874 10.9436 19.893C11.5093 20.5987 12.2268 21.1675 13.0426 21.5571C13.8585 21.9467 14.7516 22.147 15.6556 22.1432C16.5595 22.1394 17.451 21.9315 18.2635 21.5351C18.4272 21.4552 18.612 21.4296 18.7912 21.4618L21.1705 21.8901L20.5502 20.2292C20.4538 19.9709 20.4875 19.6819 20.6408 19.4527C21.2978 18.4709 21.6467 17.3152 21.643 16.1337L21.643 16.1309C21.643 14.5362 21.0099 13.0069 19.883 11.8794C18.7562 10.7519 17.2275 10.1186 15.6342 10.1186C15.6344 10.1186 15.634 10.1186 15.6342 10.1186ZM15.6353 8.4043C17.6834 8.40445 19.6475 9.21861 21.0956 10.6676C22.5435 12.1163 23.3569 14.081 23.3573 16.1296C23.3614 17.5019 22.9963 18.8472 22.3042 20.0258L23.3031 22.7006C23.4109 22.9891 23.3555 23.3134 23.1581 23.5498C22.9606 23.7863 22.6514 23.8986 22.3483 23.844L18.7544 23.197C17.7814 23.6277 16.7289 23.853 15.6628 23.8575C14.5008 23.8624 13.3526 23.6049 12.3039 23.1041C11.2552 22.6033 10.333 21.8722 9.60599 20.9653C8.87899 20.0584 8.36592 18.999 8.10498 17.8662C7.84404 16.7334 7.84195 15.5562 8.09886 14.4225C8.35577 13.2887 8.86507 12.2276 9.58884 11.3181C10.3126 10.4086 11.2322 9.6742 12.2791 9.16968C13.3259 8.66524 14.4735 8.40361 15.6353 8.4043Z" fill="#FF3C00"/>
<path fill-rule="evenodd" clip-rule="evenodd" d="M6.9152 1.65622C8.74747 1.0216 10.7319 0.974426 12.5922 1.52129C14.4526 2.06815 16.0961 3.18179 17.294 4.70708C17.5864 5.07937 17.5217 5.6182 17.1494 5.9106C16.7771 6.20299 16.2383 6.13823 15.9459 5.76593C14.9681 4.52102 13.6268 3.61223 12.1088 3.16598C10.5907 2.71974 8.97142 2.75823 7.47626 3.2761C5.9811 3.79396 4.68443 4.76547 3.76685 6.05544C2.84927 7.34542 2.35647 8.88965 2.35715 10.4731L2.35714 10.476C2.35265 11.9799 2.79721 13.4509 3.63375 14.7002C3.7876 14.9299 3.82116 15.2198 3.72388 15.4786L2.83282 17.8495L4.77329 17.5014C5.23924 17.4179 5.68472 17.7278 5.76829 18.1938C5.85186 18.6598 5.54187 19.1052 5.07592 19.1888L1.65132 19.803C1.34788 19.8574 1.0386 19.7447 0.841329 19.5078C0.644061 19.2709 0.589201 18.9463 0.697657 18.6578L1.96889 15.2754C1.09813 13.8281 0.638059 12.1673 0.642859 10.4724C0.642341 8.53311 1.246 6.64185 2.36992 5.06178C3.49413 3.48132 5.08294 2.29085 6.9152 1.65622Z" fill="#FF3C00"/>
</g>
<defs>
<clipPath id="clip0_1435_1454-5">
<rect width="24" height="24" fill="white"/>
</clipPath>
</defs>
</svg>