<svg xmlns="http://www.w3.org/2000/svg" width="11" height="14" viewBox="0 0 11 14" fill="none" class="injected-svg" data-src="https://images.ctfassets.net/lh3zuq09vnm2/01sD7ikwsm8A9PzqXxeovt/d718ae8df27d248c66166bddf71aac42/Vector.svg" xmlns:xlink="http://www.w3.org/1999/xlink">
<path d="M10.77 6.57999L0.770002 0.0799905C0.693992 0.0361005 0.607772 0.0130005 0.520002 0.0130005C0.432232 0.0130005 0.346012 0.0361005 0.270002 0.0799905C0.192142 0.120201 0.126212 0.18016 0.0788218 0.25387C0.0314418 0.32759 0.00425178 0.41246 1.78101e-06 0.49999V13.5C-0.000238219 13.5899 0.0237818 13.6783 0.0695418 13.7557C0.115292 13.8332 0.181092 13.8968 0.260002 13.94C0.333712 13.9798 0.416242 14.0004 0.500002 14C0.595812 13.9997 0.689532 13.972 0.770002 13.92L10.77 7.41999C10.8402 7.37466 10.8979 7.31247 10.9378 7.2391C10.9778 7.16574 10.9987 7.08353 10.9987 6.99999C10.9987 6.91645 10.9778 6.83424 10.9378 6.76087C10.8979 6.6875 10.8402 6.62532 10.77 6.57999ZM1 12.58V1.41999L9.585 6.99999L1 12.58Z" fill="#FF3C00"/>
</svg>