<svg xmlns="http://www.w3.org/2000/svg" width="24" height="24" viewBox="0 0 24 24" fill="none" class="injected-svg" data-src="https://images.ctfassets.net/lh3zuq09vnm2/6WkKq86kztFCChLxHqxJ53/63ffc9f2001da8b5ad7292d53808278c/updates.svg" xmlns:xlink="http://www.w3.org/1999/xlink">
<path d="M11.25 0.75H12.75V6.75H11.25V0.75Z" fill="#FF3C00"/>
<path d="M11.25 17.25H12.75V23.25H11.25V17.25Z" fill="#FF3C00"/>
<path d="M0.75 11.25H6.75V12.75H0.75V11.25Z" fill="#FF3C00"/>
<path d="M17.25 12.75V11.25H23.25V12.75H17.25Z" fill="#FF3C00"/>
<path d="M19.4246 3.51477L20.4853 4.57543L16.2426 8.81807L15.182 7.75741L19.4246 3.51477Z" fill="#FF3C00"/>
<path d="M7.75736 15.182L8.81802 16.2427L4.57538 20.4853L3.51472 19.4247L7.75736 15.182Z" fill="#FF3C00"/>
<path d="M4.57538 3.51477L8.81802 7.75741L7.75736 8.81807L3.51472 4.57543L4.57538 3.51477Z" fill="#FF3C00"/>
<path d="M15.182 16.2427L16.2426 15.182L20.4853 19.4247L19.4246 20.4853L15.182 16.2427Z" fill="#FF3C00"/>
</svg>