<svg xmlns="http://www.w3.org/2000/svg" width="16" height="16" viewBox="0 0 16 16" fill="none" class="injected-svg" data-src="https://images.ctfassets.net/lh3zuq09vnm2/29cHXX50MaQFbFbNuuEobF/ef757d222544a89e87e2c23642a499eb/icon-guides.svg" xmlns:xlink="http://www.w3.org/1999/xlink">
<path fill-rule="evenodd" clip-rule="evenodd" d="M1 1.5C0.723858 1.5 0.5 1.72386 0.5 2V12C0.5 12.2761 0.723858 12.5 1 12.5H5.9C6.332 12.5 6.7417 12.6637 7.0401 12.9479C7.33766 13.2313 7.5 13.6103 7.5 14C7.5 14.2761 7.72386 14.5 8 14.5C8.27614 14.5 8.5 14.2761 8.5 14C8.5 13.6103 8.66234 13.2313 8.9599 12.9479C9.2583 12.6637 9.668 12.5 10.1 12.5H15C15.2761 12.5 15.5 12.2761 15.5 12V2C15.5 1.72386 15.2761 1.5 15 1.5H10.8C9.93244 1.5 9.09581 1.828 8.47527 2.41898C8.29315 2.59243 8.134 2.78446 8 2.99063C7.866 2.78446 7.70685 2.59243 7.52473 2.41898C6.90419 1.828 6.06756 1.5 5.2 1.5H1ZM8.5 12.0293C8.9565 11.6866 9.51981 11.5 10.1 11.5H14.5V2.5H10.8C10.1823 2.5 9.5946 2.73391 9.16493 3.14312C8.73609 3.55154 8.5 4.10012 8.5 4.66667V12.0293ZM7.5 12.0293V4.66667C7.5 4.10012 7.26391 3.55154 6.83507 3.14312C6.4054 2.73391 5.81766 2.5 5.2 2.5H1.5V11.5H5.9C6.48019 11.5 7.0435 11.6866 7.5 12.0293Z" fill="#FF3C00"/>
</svg>