<svg xmlns="http://www.w3.org/2000/svg" width="16" height="16" viewBox="0 0 16 16" fill="none" class="injected-svg" data-src="https://images.ctfassets.net/lh3zuq09vnm2/6E1bW5je6USepU41R2psoP/025fc489632d42f5455f7253653477a9/Blog.svg" xmlns:xlink="http://www.w3.org/1999/xlink">
<g clip-path="url(#clip0-6)">
<path d="M14.5598 2.02368L12.9998 0.43868C12.7185 0.157779 12.3373 0 11.9398 0C11.5423 0 11.161 0.157779 10.8798 0.43868L1.14478 10.1437C1.08083 10.2087 1.03587 10.2899 1.01478 10.3787L0.0147822 14.3787C-0.00638263 14.4623 -0.00553344 14.55 0.0172472 14.6333C0.0400277 14.7165 0.0839641 14.7924 0.144782 14.8537C0.191502 14.9 0.24691 14.9367 0.307829 14.9615C0.368748 14.9864 0.433979 14.999 0.499782 14.9987C0.539637 15.0035 0.579927 15.0035 0.619782 14.9987L4.61978 13.9987C4.7085 13.9776 4.78977 13.9326 4.85478 13.8687L14.5598 4.14368C14.8407 3.86243 14.9985 3.48118 14.9985 3.08368C14.9985 2.68618 14.8407 2.30493 14.5598 2.02368ZM4.24478 13.0487L1.18478 13.8137L1.94978 10.7537L9.99978 2.70368L12.2948 4.99868L4.24478 13.0487ZM13.8548 3.43868L12.9998 4.29368L10.7048 1.99868L11.5598 1.14368C11.6063 1.09682 11.6616 1.05962 11.7225 1.03424C11.7834 1.00885 11.8488 0.995781 11.9148 0.995781C11.9808 0.995781 12.0461 1.00885 12.1071 1.03424C12.168 1.05962 12.2233 1.09682 12.2698 1.14368L13.8548 2.72868C13.9016 2.77516 13.9388 2.83046 13.9642 2.89139C13.9896 2.95232 14.0027 3.01768 14.0027 3.08368C14.0027 3.14969 13.9896 3.21504 13.9642 3.27597C13.9388 3.3369 13.9016 3.3922 13.8548 3.43868Z" fill="#FF3C00"/>
</g>
<defs>
<clipPath id="clip0-6">
<rect width="16" height="16" fill="white"/>
</clipPath>
</defs>
</svg>