<svg xmlns="http://www.w3.org/2000/svg" width="16" height="16" viewBox="0 0 16 16" fill="none" class="injected-svg" data-src="https://images.ctfassets.net/lh3zuq09vnm2/69OiEBqKuuE9y84cHDYFYD/8fb8702f45048de7342abacc186e7f78/Product-forge.svg" xmlns:xlink="http://www.w3.org/1999/xlink">
<path fill-rule="evenodd" clip-rule="evenodd" d="M8.24442 0.563811C8.09258 0.47873 7.90742 0.47873 7.75558 0.563811L1.75558 3.92588C1.59774 4.01432 1.5 4.18114 1.5 4.36207V11.6207C1.5 11.8012 1.59733 11.9677 1.75463 12.0563L7.75463 15.4357C7.90696 15.5214 8.09304 15.5214 8.24537 15.4357L14.2454 12.0563C14.4027 11.9677 14.5 11.8012 14.5 11.6207V4.36207C14.5 4.18114 14.4023 4.01432 14.2444 3.92588L8.24442 0.563811ZM2.5 5.37053V11.3284L7.5 14.1445L7.5 8.2872L2.5 5.37053ZM8.5 8.28718L8.5 14.1445L13.5 11.3284V5.37051L8.5 8.28718ZM13.1133 4.43837L8 1.57315L6.16555 2.60107L11.2143 5.54615L13.1133 4.43837ZM10.222 6.125L5.15329 3.16829L2.88666 4.43838L7.99998 7.42115L10.222 6.125Z" fill="#FF3C00"/>
</svg>