<svg xmlns="http://www.w3.org/2000/svg" width="16" height="16" viewBox="0 0 16 16" fill="none" class="injected-svg" data-src="https://images.ctfassets.net/lh3zuq09vnm2/5kcQPD6YgY51U3d4ifrkii/5e412e881ace5932492c58c86030d41d/icon-survey-templates.svg" xmlns:xlink="http://www.w3.org/1999/xlink">
<g clip-path="url(#clip0-7)">
<path d="M11.5 8.35715e-06H6.50001C6.43421 -0.000372089 6.36897 0.0122404 6.30806 0.0371227C6.24714 0.062005 6.19173 0.0986677 6.14501 0.145008L2.14501 4.14501C2.09867 4.19173 2.06201 4.24714 2.03712 4.30806C2.01224 4.36897 1.99963 4.43421 2.00001 4.50001V13.5C2.00001 13.8978 2.15804 14.2794 2.43935 14.5607C2.72065 14.842 3.10218 15 3.50001 15H11.5C11.8978 15 12.2794 14.842 12.5607 14.5607C12.842 14.2794 13 13.8978 13 13.5V1.50001C13 1.10218 12.842 0.720653 12.5607 0.439348C12.2794 0.158044 11.8978 8.35715e-06 11.5 8.35715e-06ZM6.00001 1.70501V3.50001C6.00001 3.63262 5.94733 3.75979 5.85356 3.85356C5.75979 3.94733 5.63262 4.00001 5.50001 4.00001H3.70501L6.00001 1.70501ZM12 13.5C12 13.6326 11.9473 13.7598 11.8536 13.8536C11.7598 13.9473 11.6326 14 11.5 14H3.50001C3.3674 14 3.24022 13.9473 3.14646 13.8536C3.05269 13.7598 3.00001 13.6326 3.00001 13.5V5.00001H5.50001C5.89783 5.00001 6.27937 4.84197 6.56067 4.56067C6.84197 4.27936 7.00001 3.89783 7.00001 3.50001V1.00001H11.5C11.6326 1.00001 11.7598 1.05269 11.8536 1.14645C11.9473 1.24022 12 1.3674 12 1.50001V13.5Z" fill="#FF3C00"/>
<path d="M9.5 9H8V7.5C8 7.36739 7.94732 7.24021 7.85355 7.14645C7.75979 7.05268 7.63261 7 7.5 7C7.36739 7 7.24021 7.05268 7.14645 7.14645C7.05268 7.24021 7 7.36739 7 7.5V9H5.5C5.36739 9 5.24021 9.05268 5.14645 9.14645C5.05268 9.24021 5 9.36739 5 9.5C5 9.63261 5.05268 9.75979 5.14645 9.85355C5.24021 9.94732 5.36739 10 5.5 10H7V11.5C7 11.6326 7.05268 11.7598 7.14645 11.8536C7.24021 11.9473 7.36739 12 7.5 12C7.63261 12 7.75979 11.9473 7.85355 11.8536C7.94732 11.7598 8 11.6326 8 11.5V10H9.5C9.63261 10 9.75979 9.94732 9.85355 9.85355C9.94732 9.75979 10 9.63261 10 9.5C10 9.36739 9.94732 9.24021 9.85355 9.14645C9.75979 9.05268 9.63261 9 9.5 9Z" fill="#FF3C00"/>
</g>
<defs>
<clipPath id="clip0-7">
<rect width="16" height="16" fill="white"/>
</clipPath>
</defs>
</svg>