<svg xmlns="http://www.w3.org/2000/svg" width="24" height="24" viewBox="0 0 24 24" fill="none" class="injected-svg" data-src="https://images.ctfassets.net/lh3zuq09vnm2/5UwvxhVrMfPkFlhCCzahNG/e082b0c65c17eb01b7c7978dc57f9b85/Webina-icon.svg" xmlns:xlink="http://www.w3.org/1999/xlink">
<path d="M8.50781 15.1328V9.59163C8.50781 8.95156 9.25283 8.54698 9.85906 8.85783L15.2625 11.6284C15.8863 11.9483 15.8863 12.7762 15.2625 13.096L9.85906 15.8666C9.25283 16.1775 8.50781 15.7729 8.50781 15.1328Z" stroke="#FF3C00" stroke-width="1.57034" stroke-linecap="round" stroke-linejoin="round"/>
<path d="M1.59021 11.0103C1.53969 11.42 1.51367 11.8374 1.51367 12.2608C1.51367 12.6842 1.53969 13.1016 1.59021 13.5114" stroke="#FF3C00" stroke-width="1.57034" stroke-linecap="round" stroke-linejoin="round"/>
<path d="M5.52539 4.19489C5.855 3.94626 6.20343 3.71504 6.57014 3.50333C6.93684 3.29162 7.31129 3.10547 7.69142 2.94434" stroke="#FF3C00" stroke-width="1.57034" stroke-linecap="round" stroke-linejoin="round"/>
<path d="M2.31055 8.32521C2.47168 7.94508 2.65783 7.57063 2.86954 7.20393C3.08125 6.83722 3.31247 6.48879 3.5611 6.15918" stroke="#FF3C00" stroke-width="1.57034" stroke-linecap="round" stroke-linejoin="round"/>
<path d="M11.646 2.15527C17.2199 2.15527 21.7384 6.72519 21.7384 12.3625C21.7384 17.9998 17.2199 22.5697 11.646 22.5697C7.80503 22.5697 4.46518 20.3996 2.75977 17.2056" stroke="#FF3C00" stroke-width="1.57034" stroke-linecap="round" stroke-linejoin="round"/>
</svg>