<svg xmlns="http://www.w3.org/2000/svg" width="16" height="16" viewBox="0 0 16 16" fill="none" class="injected-svg" data-src="https://images.ctfassets.net/lh3zuq09vnm2/3qWNbUV9OgVmvQ239eLBB5/fb934659e54eefeb1defb835e01728aa/icon-about-us.svg" xmlns:xlink="http://www.w3.org/1999/xlink">
<path d="M14.5 14H14V7.74502L14.195 7.89502C14.2823 7.96275 14.3895 7.99968 14.5 8.00002C14.5764 7.99984 14.6517 7.98217 14.7201 7.94836C14.7886 7.91456 14.8484 7.86553 14.895 7.80502C14.9756 7.70017 15.0115 7.56763 14.9946 7.43643C14.9777 7.30523 14.9095 7.18606 14.805 7.10502L8.305 2.10502C8.21757 2.03772 8.11033 2.00122 8 2.00122C7.88967 2.00122 7.78243 2.03772 7.695 2.10502L1.195 7.10502C1.09925 7.18887 1.03908 7.30607 1.02675 7.43274C1.01442 7.55942 1.05086 7.68603 1.12864 7.78676C1.20643 7.8875 1.3197 7.95478 1.44537 7.9749C1.57105 7.99501 1.69966 7.96645 1.805 7.89502L2 7.74502V14H1.5C1.36739 14 1.24021 14.0527 1.14645 14.1465C1.05268 14.2402 1 14.3674 1 14.5C1 14.6326 1.05268 14.7598 1.14645 14.8536C1.24021 14.9473 1.36739 15 1.5 15H14.5C14.6326 15 14.7598 14.9473 14.8536 14.8536C14.9473 14.7598 15 14.6326 15 14.5C15 14.3674 14.9473 14.2402 14.8536 14.1465C14.7598 14.0527 14.6326 14 14.5 14ZM3 7.00002L8 3.15002L13 7.00002V14H10V11.5C10 11.1022 9.84196 10.7207 9.56066 10.4394C9.27936 10.1581 8.89782 10 8.5 10H7.5C7.10218 10 6.72064 10.1581 6.43934 10.4394C6.15804 10.7207 6 11.1022 6 11.5V14H3V7.00002ZM9 14H7V11.5C7 11.3674 7.05268 11.2402 7.14645 11.1465C7.24021 11.0527 7.36739 11 7.5 11H8.5C8.63261 11 8.75979 11.0527 8.85355 11.1465C8.94732 11.2402 9 11.3674 9 11.5V14Z" fill="#FF3C00"/>
</svg>