<svg xmlns="http://www.w3.org/2000/svg" width="24" height="24" viewBox="0 0 24 24" fill="none" class="injected-svg" data-src="https://images.ctfassets.net/lh3zuq09vnm2/2VlR1cp2kOyuAqTevJOVVe/51b73081ac97b801e1a31d40b655ce2d/Careers.svg" xmlns:xlink="http://www.w3.org/1999/xlink">
<path fill-rule="evenodd" clip-rule="evenodd" d="M9.75 2.25C8.981 2.25 8.22829 2.52074 7.66074 3.02523C7.09031 3.53228 6.75 4.24024 6.75 5V5.25H3.6C2.01178 5.25 0.75 6.55953 0.75 8.14286V18.8571C0.75 20.4405 2.01178 21.75 3.6 21.75H20.4C21.9882 21.75 23.25 20.4405 23.25 18.8571V8.14286C23.25 6.55953 21.9882 5.25 20.4 5.25H17.25V5C17.25 4.24024 16.9097 3.53228 16.3393 3.02523C15.7717 2.52074 15.019 2.25 14.25 2.25H9.75ZM15.75 5.25V5C15.75 4.6989 15.6162 4.38944 15.3427 4.14634C15.0664 3.90069 14.6745 3.75 14.25 3.75H9.75C9.32552 3.75 8.93365 3.90069 8.65728 4.14634C8.3838 4.38944 8.25 4.6989 8.25 5V5.25H15.75ZM8.25 6.75H15.75V20.25H8.25V6.75ZM6.75 6.75H3.6C2.86863 6.75 2.25 7.35925 2.25 8.14286V18.8571C2.25 19.6408 2.86863 20.25 3.6 20.25H6.75V6.75ZM17.25 20.25V6.75H20.4C21.1314 6.75 21.75 7.35925 21.75 8.14286V18.8571C21.75 19.6408 21.1314 20.25 20.4 20.25H17.25Z" fill="#FF3C00"/>
</svg>