<svg xmlns="http://www.w3.org/2000/svg" width="16" height="16" viewBox="0 0 16 16" fill="none" class="injected-svg" data-src="https://images.ctfassets.net/lh3zuq09vnm2/1Rr01isgC3ekIMAk5muTw1/e72604f01fe967ee00527c0d0400b090/rocketship_red.svg" xmlns:xlink="http://www.w3.org/1999/xlink">
<path fill-rule="evenodd" clip-rule="evenodd" d="M14.2965 1.4373C14.2967 1.4374 14.2969 1.43749 14.102 1.898C14.5625 1.70306 14.5626 1.70327 14.5627 1.70349L14.5634 1.70525L14.5648 1.70865L14.5691 1.71901C14.5726 1.72749 14.5772 1.7391 14.5829 1.7537C14.5943 1.7829 14.6098 1.82414 14.6282 1.87639C14.6651 1.9808 14.7136 2.12968 14.7634 2.31478C14.8626 2.68392 14.9685 3.20303 14.9942 3.80446C15.0456 5.00859 14.7743 6.57154 13.4586 7.88933C12.9494 8.41604 12.2045 8.9426 11.3777 9.46122C11.8668 10.3971 11.9016 11.3255 11.6218 12.2038C11.3065 13.1934 10.6041 14.0849 9.81022 14.8581C9.70084 14.9647 9.5488 15.0154 9.39737 14.9959C9.24594 14.9764 9.11172 14.8887 9.03294 14.758L7.04903 11.4647L4.53527 8.95092L1.24203 6.96704C1.11125 6.88825 1.02362 6.75404 1.00411 6.60261C0.984587 6.45118 1.03532 6.29913 1.14185 6.18976C1.91507 5.39592 2.80659 4.69344 3.79616 4.3782C4.6742 4.09848 5.60232 4.1332 6.53791 4.62182C7.05717 3.79507 7.58476 3.04982 8.11067 2.54141C9.42846 1.22566 10.9914 0.954408 12.1955 1.00582C12.797 1.0315 13.3161 1.13735 13.6852 1.23662C13.8703 1.28639 14.0192 1.33492 14.1236 1.37175C14.1759 1.39018 14.2171 1.40573 14.2463 1.4171C14.2609 1.42279 14.2725 1.42744 14.281 1.43089L14.2913 1.43515L14.2947 1.43656L14.2965 1.4373ZM14.102 1.898L14.5627 1.70349C14.512 1.58383 14.4162 1.48796 14.2965 1.4373L14.102 1.898ZM10.4096 8.87604C10.4399 8.85539 10.4716 8.83852 10.5042 8.82531C11.4671 8.23816 12.2575 7.6937 12.742 7.19162L12.7482 7.1852C13.8101 6.12329 14.0385 4.86739 13.9949 3.84713C13.9731 3.33589 13.8827 2.8911 13.7975 2.57451C13.7669 2.46066 13.7372 2.36416 13.712 2.288C13.6358 2.26279 13.5393 2.23307 13.4255 2.20246C13.1089 2.11732 12.6641 2.02689 12.1529 2.00506C11.1326 1.9615 9.87665 2.18985 8.81474 3.25176L8.80843 3.25807C8.30805 3.7409 7.76326 4.5298 7.17728 5.48919C7.16372 5.52412 7.14598 5.55806 7.12396 5.59034C7.11226 5.60748 7.09969 5.62366 7.08634 5.63887C7.02633 5.73815 6.96665 5.8378 6.90719 5.93781L10.0611 9.0917C10.1642 9.03049 10.2662 8.96948 10.3669 8.90867C10.3804 8.89717 10.3946 8.88627 10.4096 8.87604ZM10.2206 10.1585C10.2294 10.1537 10.2381 10.1486 10.2467 10.1432C10.3386 10.0894 10.43 10.0356 10.5207 9.98193C10.8564 10.6577 10.8626 11.292 10.6688 11.9002C10.4769 12.5026 10.081 13.1006 9.55386 13.6845L8.15181 11.3571C8.51724 11.1423 8.88881 10.9283 9.26003 10.7145L9.34018 10.6684C9.63573 10.4982 9.9308 10.3281 10.2206 10.1585ZM9.16809 9.61314L6.38559 6.83064C6.30086 6.97746 6.21603 7.12498 6.13081 7.27319C5.90785 7.66093 5.68216 8.05339 5.44875 8.44996L7.54971 10.5509C7.95044 10.3146 8.35751 10.0801 8.7588 9.84906L8.84103 9.8017C8.9506 9.7386 9.05968 9.67575 9.16809 9.61314ZM4.09975 5.33116C4.70767 5.13749 5.34154 5.14359 6.01684 5.4787C5.76666 5.9011 5.50817 6.35002 5.24998 6.79845C5.04587 7.15294 4.84184 7.50728 4.64233 7.8478L2.31553 6.44611C2.89936 5.91899 3.49737 5.52306 4.09975 5.33116Z" fill="#FF3C00"/>
<path fill-rule="evenodd" clip-rule="evenodd" d="M10.5014 4.4984C10.5014 3.94603 10.9492 3.49824 11.5016 3.49824C12.054 3.49824 12.5018 3.94603 12.5018 4.4984C12.5018 5.05076 12.054 5.49855 11.5016 5.49855C10.9492 5.49855 10.5014 5.05076 10.5014 4.4984Z" fill="#FF3C00"/>
<path fill-rule="evenodd" clip-rule="evenodd" d="M4.03239 11.4148C3.90785 11.3645 3.77446 11.3398 3.64017 11.3422C3.50588 11.3445 3.37344 11.3739 3.25076 11.4286C3.12807 11.4833 3.01766 11.5621 2.92609 11.6603L2.92004 11.6668C2.85665 11.7325 2.74977 11.9176 2.6248 12.2413C2.50806 12.5436 2.39826 12.9043 2.30292 13.2575C2.2472 13.4639 2.19725 13.6647 2.15446 13.8455C2.33524 13.8027 2.53604 13.7528 2.74247 13.6971C3.09572 13.6017 3.45643 13.4919 3.75873 13.3752C4.08236 13.2502 4.26755 13.1434 4.3332 13.08L4.68055 13.4398L4.33964 13.0739C4.4379 12.9823 4.51672 12.8719 4.57138 12.7492C4.62605 12.6265 4.65544 12.4941 4.65781 12.3598C4.66018 12.2255 4.63548 12.0921 4.58517 11.9676C4.53487 11.8431 4.46 11.7299 4.36503 11.635C4.27006 11.54 4.15693 11.4651 4.03239 11.4148ZM5.02448 13.8028C5.21961 13.6202 5.37618 13.4004 5.48495 13.1563C5.59428 12.9109 5.65307 12.646 5.65781 12.3775C5.66255 12.1089 5.61314 11.8421 5.51253 11.593C5.41193 11.3439 5.26219 11.1177 5.07224 10.9277C4.8823 10.7378 4.65604 10.5881 4.40697 10.4875C4.15789 10.3868 3.89111 10.3374 3.62253 10.3422C3.35395 10.3469 3.08907 10.4057 2.8437 10.515C2.59958 10.6238 2.37975 10.7804 2.19718 10.9755C1.98214 11.2001 1.81747 11.5555 1.69179 11.881C1.55724 12.2294 1.43701 12.6275 1.33732 12.9969C1.23715 13.368 1.1553 13.7192 1.09856 13.9771C1.07015 14.1062 1.04791 14.2125 1.03271 14.2869C1.02511 14.3241 1.01926 14.3533 1.01527 14.3734L1.0107 14.3967L1.00948 14.4029L1.00915 14.4047C1.00913 14.4047 1.00899 14.4055 1.50007 14.4999L1.00915 14.4047C0.977812 14.5676 1.02916 14.7362 1.14646 14.8535C1.26376 14.9708 1.4316 15.0223 1.59451 14.991L1.50007 14.4999C1.59451 14.991 1.59445 14.991 1.59451 14.991L1.6033 14.9893L1.62655 14.9847C1.64669 14.9807 1.67591 14.9749 1.7131 14.9673C1.78745 14.9521 1.89374 14.9298 2.0229 14.9014C2.28075 14.8447 2.63197 14.7628 3.00308 14.6627C3.37245 14.563 3.7706 14.4427 4.11903 14.3082C4.44446 14.1825 4.79989 14.0178 5.02448 13.8028Z" fill="#FF3C00"/>
</svg>