<svg width="496" height="319" viewBox="0 0 496 319" fill="none" xmlns="http://www.w3.org/2000/svg">
<path d="M0.667969 317.616H495.004" stroke="#323232" stroke-width="0.85" stroke-miterlimit="10" stroke-linecap="round" stroke-linejoin="round"/>
<path d="M28.1719 44.3378C36.3049 41.2363 47.4545 41.0608 54.8235 45.6905C62.1924 50.3202 66.7541 59.5003 64.977 68.0181C63.4715 75.2343 56.1818 82.3146 48.2978 82.3599C38.6084 82.4165 34.7654 70.3896 45.0152 67.2541C49.8146 65.7825 54.9932 67.7691 59.2777 70.3839C71.3951 77.7812 79.6356 90.0232 87.0499 102.135C98.4995 120.84 108.93 140.191 121.359 158.262C133.177 175.451 147.518 191.977 166.733 200.088C184.176 207.451 202.027 205.9 219.102 197.716C226.318 194.258 232.241 189.068 238.951 181.711C275.958 141.131 201 21.5888 176.5 21.5888C166.733 21.5888 155.906 43.6148 186 111C203.097 149.283 238.868 186.307 279.429 181.711C321 177 356.933 162.7 290.207 76.5981C257.128 33.9126 316.673 -32.3051 378 21.5888" stroke="#FF3C00" stroke-width="1.5" stroke-miterlimit="10" stroke-linecap="round" stroke-linejoin="round"/>
<path d="M3.65643 93.5241C3.25459 90.4226 3.70736 87.1683 2.60938 84.2422C5.28076 87.0098 7.79367 88.7417 9.37839 91.5149C13.8665 99.3763 4.58462 100.672 3.65643 93.5241Z" fill="#323232"/>
<path d="M20.8522 118.812C19.2449 114.935 17.1451 110.973 15.1529 107.549C13.5399 108.075 11.7684 108.641 10.2969 109.1C11.0043 112.603 12.0797 116.904 13.7323 121.981C18.4582 136.515 27.1855 146.51 27.1855 146.51C27.2703 146.08 25.6007 130.284 20.8522 118.812Z" fill="url(#paint0_linear_2688_14886)"/>
<path d="M7.39844 93.2974L10.3358 109.331L15.2088 107.679C11.9488 102.059 7.39844 93.2974 7.39844 93.2974Z" fill="#323232"/>
<path d="M58.8292 162.137C58.8292 162.137 45.4383 146.267 47.555 131.869C50.5207 111.692 68.3262 109.32 68.3262 109.32C68.3262 109.32 71.8861 101.012 81.9774 102.2C92.0687 103.389 93.8458 110.509 93.8458 110.509C93.8458 110.509 105.12 114.663 108.68 129.497C112.24 144.331 98.5887 160.354 98.5887 160.354L81.9717 149.08L58.8292 162.137Z" fill="#323232"/>
<path d="M64.1704 209.017C64.1704 209.017 54.996 219.108 49.6532 244.622C43.8746 272.225 50.2475 289.13 50.2475 289.13L171.716 282.469C171.716 282.469 169.209 263.016 162.683 245.805C156.158 228.594 144.289 212.571 144.289 212.571L126.484 191.206C126.484 191.206 133.774 176.332 130.638 172.812C124.243 165.624 112.567 164.617 112.567 164.617C112.567 164.617 115.21 175.183 103.341 178.743C91.4728 182.303 66.5475 150.852 66.5475 150.852C66.5475 150.852 58.6522 157.797 56.4562 160.349C54.0508 163.139 48.1477 172.218 48.1477 172.218C48.1477 172.218 51.1134 173.406 59.4219 179.932C67.7303 186.457 71.8846 191.206 71.8846 191.206L64.1704 209.017Z" fill="white"/>
<path d="M18.4727 98.0407L24.7832 150.506L30.2845 149.035L24.2116 97.0559L20.2555 87.9551L18.4727 98.0407Z" fill="#323232"/>
<path d="M90.8775 287.353L83.1633 317.027H49.3352C49.3352 317.027 50.0144 313.597 54.0837 312.278C58.3568 310.892 56.7778 304.762 54.2026 300.014C50.7954 293.726 50.0484 289.136 50.0484 289.136L90.8775 287.353ZM132.459 283.77C137.282 294.795 142.607 306.511 147.978 317.287L185.961 317.021C185.434 314.118 184.908 313.065 181.082 311.084C179.112 310.065 175.258 309.879 173.945 308.09C171.081 304.196 172.106 298.836 172.309 294.009C172.508 289.362 171.987 282.865 170.928 279.305L132.459 283.77ZM79.609 114.352C77.7753 115.054 74.453 124.353 75.2624 124.805C73.3494 123.747 70.5818 125.032 70.1573 127.177C69.7328 129.322 71.8043 131.569 73.9776 131.314C73.1739 135.921 74.6851 140.658 76.9773 144.733C79.2695 148.808 82.3257 152.397 84.9688 156.251C89.8701 163.388 93.3735 171.487 95.2185 179.948C103.459 179.252 115.504 179 112.571 164.627C99.5199 163.773 87.7024 153.308 85.2801 140.455C89.6946 138.598 91.6982 136.504 93.2546 132.271C94.6412 128.513 94.4431 121.789 94.4431 121.789C94.4431 121.789 91.0813 124.358 88.8231 120.991C86.995 118.269 83.9444 112.694 79.609 114.352ZM40.5853 185.014C35.7972 171.164 34.1276 156.245 35.7293 141.677C35.9104 140.025 36.1255 138.31 35.5878 136.736C35.0445 135.163 33.4711 133.804 31.8411 134.121C30.9525 134.291 30.2167 134.908 29.5319 135.502C28.0943 136.748 26.6228 138.038 25.8022 139.753C24.9815 141.468 24.9928 143.726 26.3342 145.067C27.6812 146.409 29.7526 144.535 29.7526 144.535L30.3469 148.69L24.7891 149.918C24.7891 149.918 24.2231 142.951 23.9401 139.464C23.8496 138.338 23.7647 137.161 24.1835 136.114C24.5853 135.106 25.4116 134.331 26.1814 133.567C30.3299 129.446 33.7993 123.209 31.2185 117.963C29.1414 113.746 23.776 112.026 19.1294 112.745C13.8545 113.554 9.06639 117.052 6.68931 121.828C4.31223 126.605 4.40279 132.531 6.93268 137.229C9.47955 141.96 14.2563 145.401 15.9486 150.506C18.2861 157.553 14.0356 164.854 11.3586 171.781C7.39111 182.048 6.81948 193.599 9.75687 204.211C12.3603 213.601 18.32 222.753 27.5001 226.018C37.0989 229.437 48.1184 225.543 55.6571 218.683C63.1959 211.824 67.8821 202.44 72.0137 193.13C72.3306 192.417 50.3993 170.395 50.3993 170.395C50.3993 170.395 50.7898 169.053 47.5977 173.507C44.9942 177.107 42.8945 181.21 40.5853 185.014ZM130.637 172.817L126.483 191.211L144.288 212.577C144.288 212.577 155.562 218.514 165.059 206.051C174.556 193.588 178.711 169.257 179.893 167.474C181.082 165.691 188.728 169.387 197.037 166.421C205.345 163.456 208.379 156.924 208.379 156.924L175.145 156.794C175.145 156.794 183.012 146.748 176.99 146.114C171.981 145.588 160.899 158.577 160.899 158.577L139.534 179.943C139.534 179.943 136.568 177.571 134.786 175.788C133.003 174.005 130.637 172.817 130.637 172.817Z" fill="url(#paint1_linear_2688_14886)"/>
<path d="M12.0469 122.418C15.0578 117.969 23.9096 115.875 30.3447 118.088" stroke="#323232" stroke-width="0.848958" stroke-miterlimit="10" stroke-linecap="round" stroke-linejoin="round"/>
<path d="M13.8242 127.166C16.739 122.531 25.3021 120.346 31.5278 122.65" stroke="#323232" stroke-width="0.848958" stroke-miterlimit="10" stroke-linecap="round" stroke-linejoin="round"/>
<path d="M86.1992 130.064C87.2859 132.962 90.9025 134.609 93.8002 133.528" stroke="#323232" stroke-width="0.848958" stroke-miterlimit="10" stroke-linecap="round" stroke-linejoin="round"/>
<path d="M57.25 225.238C73.833 227.722 93.4891 235.731 105.42 247.514C107.842 249.908 110.276 252.936 109.829 256.315C109.382 259.694 103.937 260.843 102.358 256.094C101.962 248.975 121.946 224.349 148.649 219.697" stroke="#323232" stroke-width="0.848958" stroke-miterlimit="10" stroke-linecap="round" stroke-linejoin="round"/>
<path d="M79.043 123.515C79.7618 120.317 81.9917 117.487 84.9404 116.044" stroke="#323232" stroke-width="0.848958" stroke-miterlimit="10" stroke-linecap="round" stroke-linejoin="round"/>
<path d="M35.8814 149.675C35.089 166.688 41.6939 191.562 40.1149 199.158C39.9281 200.063 39.6055 201.065 38.7735 201.467C37.6812 201.993 36.3285 201.071 35.9663 199.911C35.6041 198.75 35.9323 197.499 36.2832 196.339C41.6034 178.794 52.5323 163.003 67.0721 151.837" stroke="#323232" stroke-width="2" stroke-miterlimit="10" stroke-linecap="round" stroke-linejoin="round"/>
<path d="M85.5367 124.155C86.5213 124.155 87.3195 123.357 87.3195 122.372C87.3195 121.388 86.5213 120.589 85.5367 120.589C84.5521 120.589 83.7539 121.388 83.7539 122.372C83.7539 123.357 84.5521 124.155 85.5367 124.155Z" fill="#323232"/>
<path d="M70.1056 169.455C74.0221 177.945 77.0161 190.164 73.2694 198.727C80.0893 198.637 86.9093 198.546 93.7292 198.455C94.3405 198.45 95.0084 198.416 95.4555 198.008C95.846 197.652 95.9705 197.097 96.0667 196.576C98.3646 184.17 95.5404 170.898 88.3921 160.501C83.1569 152.889 76.552 146.714 72.8959 138.1C59.0239 146.312 65.3571 159.166 70.1056 169.455Z" fill="#323232"/>
<rect y="28" width="96.6372" height="29.7346" rx="14.8673" fill="white"/>
<path d="M18.9245 47.9473H17.4393V38.6478H18.9245V42.5281H23.7817V38.6478H25.2669V47.9473H23.7817V43.8662H18.9245V47.9473ZM32.1053 45.6458L33.2427 46.2747C32.7342 47.2916 31.7976 48.1078 30.2053 48.1078C28.2517 48.1078 26.7932 46.743 26.7932 44.6958C26.7932 42.6887 28.2116 41.2971 30.1116 41.2971C32.025 41.2971 33.1758 42.6218 33.1758 44.6021C33.1758 44.7493 33.1758 44.9366 33.1624 45.0303H28.3186C28.3989 46.1944 29.0947 46.9303 30.2187 46.9303C31.1285 46.9303 31.6905 46.4486 32.1053 45.6458ZM30.0715 42.4345C29.1215 42.4345 28.4658 43.0366 28.332 44.0401H31.6905C31.6102 43.0098 31.0616 42.4345 30.0715 42.4345ZM36.7579 48.1078C35.2994 48.1078 34.2691 47.3318 34.2691 46.0606C34.2691 44.9366 35.3128 44.0134 36.7846 44.0134C37.6276 44.0134 38.2565 44.3479 38.6579 44.7226V43.9331C38.6579 43.0098 38.1628 42.4746 37.2931 42.4746C36.3966 42.4746 35.8614 42.9429 35.6473 43.8261L34.3226 43.5451C34.6705 42.1669 35.7677 41.2971 37.3466 41.2971C39.0192 41.2971 40.1164 42.1669 40.1164 43.9465V47.9473H38.7114V47.1311C38.2565 47.7599 37.5072 48.1078 36.7579 48.1078ZM37.0255 47.0374C37.7213 47.0374 38.2699 46.636 38.6579 46.074V45.8733C38.31 45.4585 37.7213 45.0704 37.0255 45.0704C36.2628 45.0704 35.7677 45.4852 35.7677 46.0472C35.7677 46.636 36.2628 47.0374 37.0255 47.0374ZM44.0782 48.1078C42.7669 48.1078 42.0845 47.4388 42.0845 45.9669V42.6753H41.0809V41.4577H42.1246L42.4591 39.5443H43.543V41.4577H46.1254V42.6753H43.543V45.9268C43.543 46.5289 43.7437 46.8233 44.1986 46.8233C44.6402 46.8233 44.9747 46.462 45.3092 45.6993L46.4332 46.2747C45.9247 47.3987 45.1219 48.1078 44.0782 48.1078ZM55.1584 41.2971C56.724 41.2971 57.5669 42.2873 57.5669 43.9063V47.9473H56.1218V44.0803C56.1218 43.0634 55.6535 42.5148 54.7838 42.5148C53.9007 42.5148 53.2049 43.0767 53.2049 44.1472V47.9473H51.7464V44.0803C51.7464 43.0634 51.2915 42.5148 50.4217 42.5148C49.5386 42.5148 48.8428 43.0767 48.8428 44.1338V47.9473H47.3977V41.4577H48.8027V42.3141C49.2308 41.6718 49.94 41.2971 50.7964 41.2971C51.7598 41.2971 52.4689 41.645 52.8704 42.4345C53.4323 41.6049 54.2486 41.2971 55.1584 41.2971ZM61.4152 48.1078C59.9567 48.1078 58.9264 47.3318 58.9264 46.0606C58.9264 44.9366 59.9701 44.0134 61.442 44.0134C62.2849 44.0134 62.9138 44.3479 63.3152 44.7226V43.9331C63.3152 43.0098 62.8202 42.4746 61.9504 42.4746C61.0539 42.4746 60.5187 42.9429 60.3046 43.8261L58.9799 43.5451C59.3278 42.1669 60.425 41.2971 62.0039 41.2971C63.6765 41.2971 64.7737 42.1669 64.7737 43.9465V47.9473H63.3688V47.1311C62.9138 47.7599 62.1645 48.1078 61.4152 48.1078ZM61.6828 47.0374C62.3786 47.0374 62.9272 46.636 63.3152 46.074V45.8733C62.9673 45.4585 62.3786 45.0704 61.6828 45.0704C60.9201 45.0704 60.425 45.4852 60.425 46.0472C60.425 46.636 60.9201 47.0374 61.6828 47.0374ZM67.9728 50.7572H66.5277V41.4577H67.9327V42.488C68.3608 41.7922 69.1235 41.2971 70.194 41.2971C71.9201 41.2971 73.218 42.7824 73.218 44.6958C73.218 46.636 71.9201 48.1078 70.2074 48.1078C69.1503 48.1078 68.4144 47.6529 67.9728 46.9705V50.7572ZM69.8595 46.9303C71.0102 46.9303 71.706 46.074 71.706 44.6958C71.706 43.331 71.0102 42.4746 69.8595 42.4746C68.8024 42.4746 67.9728 43.438 67.9728 44.6958C67.9728 45.9669 68.8024 46.9303 69.8595 46.9303ZM77.1196 48.1078C75.4336 48.1078 74.0956 47.3451 74.0688 45.8198L75.4336 45.6191C75.5273 46.6627 76.2365 47.0106 77.1597 47.0106C77.8689 47.0106 78.4175 46.7296 78.4175 46.1275C78.4175 45.6592 78.1499 45.4719 77.4407 45.3381L76.6914 45.2176C75.5139 45.0035 74.3766 44.6423 74.3766 43.1972C74.3766 42.0331 75.4069 41.2971 77.0928 41.2971C78.7654 41.2971 79.6619 42.1133 79.8492 43.1838L78.5513 43.5049C78.4175 42.9429 78.0027 42.3943 77.066 42.3943C76.2766 42.3943 75.8217 42.6887 75.8217 43.1838C75.8217 43.6923 76.116 43.8796 76.9055 44.0134L77.6548 44.1472C78.8055 44.3345 79.8893 44.7092 79.8893 46.0874C79.8893 47.3987 78.6985 48.1078 77.1196 48.1078Z" fill="#202641"/>
<rect x="132.242" y="127.146" width="96.6372" height="29.7346" rx="14.8673" fill="white"/>
<path d="M154.091 145.741C154.211 145.741 154.305 145.728 154.385 145.701V147.079C154.265 147.106 154.131 147.133 153.971 147.133C152.445 147.133 151.455 146.517 150.264 144.122L149.836 143.292H148.19V147.093H146.705V137.793H150.666C152.619 137.793 153.85 138.823 153.85 140.549C153.85 142.008 152.954 142.998 151.442 143.185L151.589 143.453C152.579 145.3 153.288 145.741 154.091 145.741ZM150.572 139.091H148.19V141.995H150.585C151.749 141.995 152.298 141.459 152.298 140.549C152.298 139.613 151.736 139.091 150.572 139.091ZM160.339 144.791L161.476 145.42C160.968 146.437 160.031 147.253 158.439 147.253C156.485 147.253 155.027 145.888 155.027 143.841C155.027 141.834 156.445 140.442 158.345 140.442C160.258 140.442 161.409 141.767 161.409 143.747C161.409 143.895 161.409 144.082 161.396 144.176H156.552C156.632 145.34 157.328 146.076 158.452 146.076C159.362 146.076 159.924 145.594 160.339 144.791ZM158.305 141.58C157.355 141.58 156.699 142.182 156.565 143.185H159.924C159.844 142.155 159.295 141.58 158.305 141.58ZM165.741 147.253C163.814 147.253 162.436 146.035 162.436 143.841C162.436 141.901 163.8 140.442 165.647 140.442C167.172 140.442 168.457 141.285 168.778 143.172L167.426 143.533C167.159 142.115 166.476 141.62 165.687 141.62C164.59 141.62 163.948 142.476 163.948 143.841C163.948 145.206 164.617 146.076 165.754 146.076C166.65 146.076 167.172 145.5 167.547 144.617L168.738 145.246C168.176 146.383 167.306 147.253 165.741 147.253ZM172.943 147.253C171.002 147.253 169.544 145.835 169.544 143.841C169.544 141.847 171.002 140.442 172.943 140.442C174.869 140.442 176.328 141.847 176.328 143.841C176.328 145.835 174.869 147.253 172.943 147.253ZM172.943 146.076C174.067 146.076 174.829 145.219 174.829 143.841C174.829 142.476 174.067 141.62 172.943 141.62C171.819 141.62 171.056 142.463 171.056 143.841C171.056 145.219 171.819 146.076 172.943 146.076ZM179.141 147.093H177.696V140.603H179.101V141.727C179.435 140.951 180.024 140.496 180.947 140.496C181.951 140.496 182.74 141.205 182.74 142.369C182.74 142.677 182.687 143.011 182.566 143.373L181.241 143.239C181.268 143.038 181.295 142.864 181.295 142.704C181.295 142.021 181.027 141.7 180.465 141.7C179.729 141.7 179.141 142.53 179.141 143.868V147.093ZM186.419 147.253C184.693 147.253 183.395 145.768 183.395 143.841C183.395 141.914 184.693 140.442 186.406 140.442C187.463 140.442 188.199 140.884 188.64 141.58V137.793H190.085V147.093H188.68V146.022C188.239 146.745 187.489 147.253 186.419 147.253ZM186.753 146.076C187.81 146.076 188.64 145.112 188.64 143.841C188.64 142.583 187.81 141.62 186.753 141.62C185.603 141.62 184.907 142.463 184.907 143.841C184.907 145.219 185.603 146.076 186.753 146.076ZM192.622 139.506C192.113 139.506 191.725 139.144 191.725 138.649C191.725 138.154 192.113 137.78 192.622 137.78C193.117 137.78 193.518 138.154 193.518 138.649C193.518 139.144 193.117 139.506 192.622 139.506ZM193.344 147.093H191.899V140.603H193.344V147.093ZM196.598 147.093H195.153V140.603H196.558V141.459C196.986 140.817 197.682 140.442 198.592 140.442C200.198 140.442 201.081 141.433 201.081 143.052V147.093H199.636V143.252C199.636 142.209 199.154 141.66 198.217 141.66C197.321 141.66 196.598 142.222 196.598 143.292V147.093ZM208.055 140.549C207.84 140.549 207.666 140.737 207.519 141.071C207.961 141.446 208.228 141.981 208.228 142.664C208.228 144.109 207.038 144.885 205.552 144.885C205.124 144.885 204.723 144.818 204.375 144.697C204.094 144.791 203.866 144.992 203.866 145.273C203.866 145.567 204.08 145.795 204.469 145.795H206.864C208.617 145.795 209.352 146.49 209.352 147.681C209.352 149.14 207.787 150.063 205.833 150.063C203.452 150.063 202.301 149.3 202.301 148.163C202.301 147.561 202.662 147.133 203.304 146.812C202.863 146.531 202.609 146.116 202.609 145.581C202.609 144.925 202.997 144.497 203.545 144.216C203.13 143.841 202.876 143.333 202.876 142.664C202.876 141.218 204.067 140.442 205.552 140.442C205.954 140.442 206.342 140.496 206.69 140.616C207.078 139.827 207.573 139.492 208.228 139.492C208.844 139.492 209.513 139.867 209.513 140.951V141.165L208.509 141.326C208.483 140.764 208.349 140.549 208.055 140.549ZM205.552 143.841C206.262 143.841 206.837 143.44 206.837 142.664C206.837 141.914 206.262 141.499 205.552 141.499C204.843 141.499 204.281 141.914 204.281 142.664C204.281 143.44 204.843 143.841 205.552 143.841ZM206.69 147.146H204.736C204.121 147.146 203.692 147.467 203.692 147.936C203.692 148.578 204.335 148.952 205.82 148.952C207.024 148.952 207.907 148.497 207.907 147.828C207.907 147.347 207.546 147.146 206.69 147.146ZM212.958 147.253C211.272 147.253 209.934 146.49 209.907 144.965L211.272 144.764C211.366 145.808 212.075 146.156 212.998 146.156C213.707 146.156 214.256 145.875 214.256 145.273C214.256 144.804 213.988 144.617 213.279 144.483L212.53 144.363C211.352 144.149 210.215 143.788 210.215 142.342C210.215 141.178 211.245 140.442 212.931 140.442C214.604 140.442 215.5 141.259 215.687 142.329L214.39 142.65C214.256 142.088 213.841 141.54 212.904 141.54C212.115 141.54 211.66 141.834 211.66 142.329C211.66 142.838 211.954 143.025 212.744 143.159L213.493 143.292C214.644 143.48 215.728 143.854 215.728 145.233C215.728 146.544 214.537 147.253 212.958 147.253Z" fill="#202641"/>
<rect x="104.738" y="42.4023" width="92.177" height="29.7346" rx="14.8673" fill="white"/>
<path d="M123.663 62.3491H122.178V53.0496H128.493V54.3877H123.663V57.211H127.61V58.549H123.663V62.3491ZM134.178 60.0477L135.315 60.6766C134.807 61.6935 133.87 62.5097 132.278 62.5097C130.324 62.5097 128.866 61.1449 128.866 59.0976C128.866 57.0906 130.284 55.699 132.184 55.699C134.098 55.699 135.248 57.0237 135.248 59.004C135.248 59.1512 135.248 59.3385 135.235 59.4322H130.391C130.472 60.5963 131.167 61.3322 132.291 61.3322C133.201 61.3322 133.763 60.8505 134.178 60.0477ZM132.144 56.8363C131.194 56.8363 130.538 57.4385 130.405 58.442H133.763C133.683 57.4117 133.134 56.8363 132.144 56.8363ZM141.587 60.0477L142.724 60.6766C142.216 61.6935 141.279 62.5097 139.687 62.5097C137.733 62.5097 136.275 61.1449 136.275 59.0976C136.275 57.0906 137.693 55.699 139.593 55.699C141.507 55.699 142.657 57.0237 142.657 59.004C142.657 59.1512 142.657 59.3385 142.644 59.4322H137.8C137.88 60.5963 138.576 61.3322 139.7 61.3322C140.61 61.3322 141.172 60.8505 141.587 60.0477ZM139.553 56.8363C138.603 56.8363 137.947 57.4385 137.814 58.442H141.172C141.092 57.4117 140.543 56.8363 139.553 56.8363ZM146.708 62.5097C144.982 62.5097 143.684 61.0244 143.684 59.0976C143.684 57.1708 144.982 55.699 146.694 55.699C147.751 55.699 148.487 56.1405 148.929 56.8363V53.0496H150.374V62.3491H148.969V61.2787C148.528 62.0012 147.778 62.5097 146.708 62.5097ZM147.042 61.3322C148.099 61.3322 148.929 60.3688 148.929 59.0976C148.929 57.8399 148.099 56.8765 147.042 56.8765C145.892 56.8765 145.196 57.7195 145.196 59.0976C145.196 60.4758 145.892 61.3322 147.042 61.3322ZM155.855 62.5097C154.784 62.5097 154.021 62.0146 153.593 61.3054V62.3491H152.188V53.0496H153.633V56.8631C154.088 56.1539 154.811 55.699 155.868 55.699C157.581 55.699 158.879 57.1708 158.879 59.0976C158.879 61.0244 157.581 62.5097 155.855 62.5097ZM155.52 61.3322C156.671 61.3322 157.367 60.4758 157.367 59.0976C157.367 57.7195 156.671 56.8765 155.52 56.8765C154.463 56.8765 153.633 57.8399 153.633 59.0976C153.633 60.3688 154.463 61.3322 155.52 61.3322ZM162.312 62.5097C160.853 62.5097 159.823 61.7336 159.823 60.4625C159.823 59.3385 160.867 58.4152 162.339 58.4152C163.182 58.4152 163.81 58.7498 164.212 59.1244V58.335C164.212 57.4117 163.717 56.8765 162.847 56.8765C161.951 56.8765 161.415 57.3448 161.201 58.2279L159.877 57.9469C160.224 56.5687 161.322 55.699 162.901 55.699C164.573 55.699 165.67 56.5687 165.67 58.3483V62.3491H164.265V61.5329C163.81 62.1618 163.061 62.5097 162.312 62.5097ZM162.579 61.4392C163.275 61.4392 163.824 61.0378 164.212 60.4758V60.2751C163.864 59.8603 163.275 59.4723 162.579 59.4723C161.817 59.4723 161.322 59.8871 161.322 60.4491C161.322 61.0378 161.817 61.4392 162.579 61.4392ZM170.261 62.5097C168.334 62.5097 166.956 61.2921 166.956 59.0976C166.956 57.1575 168.321 55.699 170.167 55.699C171.693 55.699 172.977 56.542 173.298 58.4286L171.947 58.7899C171.679 57.3716 170.997 56.8765 170.207 56.8765C169.11 56.8765 168.468 57.7328 168.468 59.0976C168.468 60.4625 169.137 61.3322 170.274 61.3322C171.171 61.3322 171.693 60.7568 172.067 59.8737L173.258 60.5026C172.696 61.64 171.827 62.5097 170.261 62.5097ZM180.406 61.1181C180.5 61.1181 180.634 61.1047 180.727 61.078L180.714 62.3625C180.513 62.4026 180.286 62.416 180.112 62.416C178.908 62.416 178.225 61.8005 177.382 60.5026L176.727 59.4589L176.004 60.1681V62.3491H174.559V53.0496H176.004V58.723L178.841 55.8596H180.634L177.85 58.5758L178.506 59.5927C179.242 60.7033 179.563 61.1181 180.406 61.1181Z" fill="#202641"/>
<rect x="249.688" y="67.6772" width="90.6903" height="29.7346" rx="14.8673" fill="white"/>
<path d="M274.16 87.8118C271.711 87.8118 270.36 86.6076 270.36 84.9752C270.36 84.5871 270.44 84.1589 270.561 83.7977L271.952 84.1857C271.872 84.4266 271.845 84.6808 271.845 84.9083C271.845 85.9386 272.795 86.5541 274.2 86.5541C275.498 86.5541 276.301 85.9921 276.301 85.0956C276.301 84.3061 275.618 83.9181 274.749 83.7308L273.518 83.4899C271.404 83.0751 270.641 82.1652 270.641 80.8138C270.641 79.2215 272.033 78.1377 273.933 78.1377C276.288 78.1377 277.519 79.2884 277.652 81.2821L276.18 81.4828C276.007 80.1715 275.351 79.3955 273.892 79.3955C272.862 79.3955 272.126 79.8906 272.126 80.7469C272.126 81.6033 272.929 81.9645 273.852 82.1519L275.083 82.3927C277.064 82.7674 277.786 83.6772 277.786 84.9752C277.786 86.7548 276.221 87.8118 274.16 87.8118ZM281.712 87.7851C280.16 87.7851 279.277 86.7949 279.277 85.1625V81.1349H280.736V85.0153C280.736 86.0188 281.204 86.5674 282.087 86.5674C282.984 86.5674 283.666 86.0055 283.666 84.9752V81.1349H285.125V87.6245H283.72V86.7548C283.278 87.397 282.569 87.7851 281.712 87.7851ZM288.381 87.6245H286.936V81.1349H288.341V82.2589C288.676 81.4828 289.264 81.0279 290.188 81.0279C291.191 81.0279 291.98 81.7371 291.98 82.9012C291.98 83.2089 291.927 83.5434 291.807 83.9047L290.482 83.7709C290.509 83.5702 290.535 83.3963 290.535 83.2357C290.535 82.5533 290.268 82.2322 289.706 82.2322C288.97 82.2322 288.381 83.0617 288.381 84.3998V87.6245ZM296.539 87.6245H294.879L292.351 81.1349H293.903L295.736 86.1393L297.529 81.1349H299.068L296.539 87.6245ZM304.755 85.3231L305.893 85.9519C305.384 86.9689 304.448 87.7851 302.855 87.7851C300.902 87.7851 299.443 86.4203 299.443 84.373C299.443 82.366 300.862 80.9744 302.762 80.9744C304.675 80.9744 305.826 82.2991 305.826 84.2794C305.826 84.4266 305.826 84.6139 305.812 84.7076H300.969C301.049 85.8717 301.745 86.6076 302.869 86.6076C303.778 86.6076 304.34 86.1259 304.755 85.3231ZM302.721 82.1117C301.771 82.1117 301.116 82.7139 300.982 83.7174H304.34C304.26 82.6871 303.712 82.1117 302.721 82.1117ZM308.045 90.595C307.362 90.595 306.76 90.3541 306.399 89.7788L307.282 88.8555C307.496 89.2034 307.777 89.3774 308.085 89.3774C308.566 89.3774 308.821 88.9759 309.102 88.1865L309.316 87.6245H308.767L306.345 81.1349H307.897L309.731 86.2731L311.524 81.1349H313.062L310.199 88.7619C309.664 90.1802 308.981 90.595 308.045 90.595ZM316.527 87.7851C314.841 87.7851 313.503 87.0224 313.476 85.497L314.841 85.2963C314.935 86.34 315.644 86.6879 316.567 86.6879C317.277 86.6879 317.825 86.4069 317.825 85.8048C317.825 85.3364 317.558 85.1491 316.848 85.0153L316.099 84.8949C314.922 84.6808 313.784 84.3195 313.784 82.8744C313.784 81.7103 314.815 80.9744 316.5 80.9744C318.173 80.9744 319.07 81.7906 319.257 82.861L317.959 83.1822C317.825 82.6202 317.41 82.0716 316.474 82.0716C315.684 82.0716 315.229 82.366 315.229 82.861C315.229 83.3695 315.524 83.5568 316.313 83.6906L317.062 83.8244C318.213 84.0118 319.297 84.3864 319.297 85.7646C319.297 87.0759 318.106 87.7851 316.527 87.7851Z" fill="#202641"/>
<rect x="332.207" y="18.6147" width="96.6372" height="29.7346" rx="14.8673" fill="white"/>
<path d="M351.128 38.5625H349.642V29.263H351.128V38.5625ZM354.559 38.5625H353.114V32.0729H354.519V32.9293C354.947 32.287 355.643 31.9124 356.553 31.9124C358.159 31.9124 359.042 32.9025 359.042 34.5216V38.5625H357.597V34.7223C357.597 33.6786 357.115 33.13 356.178 33.13C355.282 33.13 354.559 33.692 354.559 34.7624V38.5625ZM363.018 38.7231C361.707 38.7231 361.025 38.054 361.025 36.5822V33.2906H360.021V32.0729H361.065L361.399 30.1595H362.483V32.0729H365.066V33.2906H362.483V36.542C362.483 37.1442 362.684 37.4385 363.139 37.4385C363.58 37.4385 363.915 37.0773 364.249 36.3146L365.373 36.8899C364.865 38.0139 364.062 38.7231 363.018 38.7231ZM371.156 36.261L372.293 36.8899C371.784 37.9069 370.848 38.7231 369.255 38.7231C367.302 38.7231 365.843 37.3583 365.843 35.311C365.843 33.3039 367.262 31.9124 369.162 31.9124C371.075 31.9124 372.226 33.237 372.226 35.2174C372.226 35.3645 372.226 35.5519 372.213 35.6455H367.369C367.449 36.8096 368.145 37.5456 369.269 37.5456C370.179 37.5456 370.741 37.0639 371.156 36.261ZM369.122 33.0497C368.172 33.0497 367.516 33.6518 367.382 34.6554H370.741C370.66 33.6251 370.112 33.0497 369.122 33.0497ZM375.166 38.5625H373.721V32.0729H375.126V33.1969C375.46 32.4208 376.049 31.9659 376.972 31.9659C377.976 31.9659 378.765 32.6751 378.765 33.8392C378.765 34.1469 378.712 34.4814 378.591 34.8427L377.267 34.7089C377.293 34.5082 377.32 34.3342 377.32 34.1737C377.32 33.4913 377.052 33.1701 376.49 33.1701C375.755 33.1701 375.166 33.9997 375.166 35.3378V38.5625ZM383.323 38.5625H381.664L379.135 32.0729H380.687L382.521 37.0773L384.314 32.0729H385.852L383.323 38.5625ZM387.484 30.9757C386.976 30.9757 386.588 30.6145 386.588 30.1194C386.588 29.6243 386.976 29.2496 387.484 29.2496C387.979 29.2496 388.381 29.6243 388.381 30.1194C388.381 30.6145 387.979 30.9757 387.484 30.9757ZM388.207 38.5625H386.762V32.0729H388.207V38.5625ZM394.859 36.261L395.996 36.8899C395.488 37.9069 394.551 38.7231 392.959 38.7231C391.005 38.7231 389.547 37.3583 389.547 35.311C389.547 33.3039 390.965 31.9124 392.865 31.9124C394.779 31.9124 395.929 33.237 395.929 35.2174C395.929 35.3645 395.929 35.5519 395.916 35.6455H391.072C391.153 36.8096 391.848 37.5456 392.972 37.5456C393.882 37.5456 394.444 37.0639 394.859 36.261ZM392.825 33.0497C391.875 33.0497 391.219 33.6518 391.086 34.6554H394.444C394.364 33.6251 393.815 33.0497 392.825 33.0497ZM400.182 38.5625H398.59L396.596 32.0729H398.108L399.433 36.9836L400.731 32.0729H402.176L403.487 36.9836L404.798 32.0729H406.31L404.317 38.5625H402.738L401.453 33.9462L400.182 38.5625ZM409.885 38.7231C408.199 38.7231 406.861 37.9604 406.834 36.435L408.199 36.2343C408.292 37.278 409.001 37.6259 409.925 37.6259C410.634 37.6259 411.182 37.3449 411.182 36.7427C411.182 36.2744 410.915 36.0871 410.206 35.9533L409.456 35.8329C408.279 35.6188 407.142 35.2575 407.142 33.8124C407.142 32.6483 408.172 31.9124 409.858 31.9124C411.53 31.9124 412.427 32.7286 412.614 33.799L411.316 34.1202C411.182 33.5582 410.768 33.0096 409.831 33.0096C409.042 33.0096 408.587 33.3039 408.587 33.799C408.587 34.3075 408.881 34.4948 409.67 34.6286L410.42 34.7624C411.571 34.9498 412.654 35.3244 412.654 36.7026C412.654 38.0139 411.463 38.7231 409.885 38.7231Z" fill="#202641"/>
<path d="M321.124 128.083C319.324 125.898 316.511 124.845 313.795 124.053C311.078 123.261 308.231 122.593 305.962 120.901C303.692 119.208 302.532 116.045 302.928 114.856C310.84 113.271 313.619 113.22 323.105 115.252C328.646 116.441 334.396 119.333 336.553 118.959C342.048 118.003 345.84 112.858 351.047 110.849C351.466 110.69 351.913 110.543 352.354 110.611C353.368 110.764 353.928 111.964 353.781 112.983C353.634 113.996 353 114.862 352.434 115.716C349.592 120.012 347.912 127.115 348.03 132.265C340.514 134.637 321.526 137.014 321.526 137.014C321.526 137.014 322.913 130.245 321.124 128.083Z" fill="url(#paint2_linear_2688_14886)"/>
<path d="M352.379 219.504C352.396 219.504 352.408 219.499 352.425 219.499C352.419 219.458 352.408 219.452 352.379 219.504Z" fill="url(#paint3_linear_2688_14886)"/>
<path d="M459.199 301.202C458.559 295.107 460.325 288.677 461.18 282.61C462.821 270.877 461.237 259.547 459.793 247.797C460.014 247.695 463.353 245.624 463.682 237.378C464.191 224.587 464.27 211.394 463.682 198.608C463.721 199.452 447.976 201.653 446.538 201.772C440.85 202.253 436.77 200.889 431.302 200.493C431.483 203.198 431.659 206.17 431.902 209.226C422.626 210.669 412.721 211.835 403.383 212.786C401.374 187.815 402.251 156.885 406.083 135.808C407.373 128.711 409.75 119.021 409.75 119.021C409.75 119.021 405.794 115.263 405.596 106.559C405.488 101.833 406.847 96.2975 405.862 91.6735C404.877 87.0495 401.198 82.2614 396.495 81.8313C391.831 81.4068 387.988 85.4818 386.375 89.8794C385.962 91 385.589 92.2791 384.553 92.8791C383.574 93.445 382.284 93.2186 381.327 93.8242C380.687 94.2261 380.314 94.9335 380.008 95.624C379.34 97.1239 378.865 98.8784 379.533 100.373C380.014 101.454 381.344 102.144 382.431 101.969C382.951 101.884 383.41 102.336 383.382 102.863C383.246 105.274 383.563 107.73 384.819 109.768C386.342 112.235 389.539 113.82 392.239 112.779C391.764 115.484 390.677 118.087 389.092 120.329C388.453 121.234 388.187 122.038 387.592 122.977C387.451 123.204 386.03 190.441 387.338 215.005C375.509 216.618 364.252 217.897 352.423 219.504C352.536 220.466 342.49 237.117 351.166 273.158C352.745 279.729 355.106 286.181 355.44 292.933C355.853 301.332 354.104 309.896 350.799 317.627H391.797C391.809 317.508 391.831 317.383 391.854 317.276C395.822 298.967 399.783 280.663 403.751 262.354C411.142 280.612 418.777 298.774 426.169 317.038H467.117C461.435 314.712 459.839 307.292 459.199 301.202Z" fill="url(#paint4_linear_2688_14886)"/>
<path d="M459.199 301.202C458.559 295.107 460.325 288.677 461.18 282.61C462.821 270.877 461.237 259.547 459.793 247.797C460.014 247.695 463.353 245.624 463.682 237.378C464.191 224.587 464.27 211.394 463.682 198.608C463.721 199.452 447.976 201.653 446.538 201.772C440.85 202.253 436.77 200.889 431.302 200.493C431.483 203.198 431.659 206.17 431.902 209.226C422.626 210.669 412.721 211.835 403.383 212.786C401.374 187.815 402.251 156.885 406.083 135.808C407.373 128.711 409.75 119.021 409.75 119.021C409.75 119.021 405.794 115.263 405.596 106.559C405.488 101.833 406.847 96.2975 405.862 91.6735C404.877 87.0495 401.198 82.2614 396.495 81.8313C391.831 81.4068 387.988 85.4818 386.375 89.8794C385.962 91 385.589 92.2791 384.553 92.8791C383.574 93.445 382.284 93.2186 381.327 93.8242C380.687 94.2261 380.314 94.9335 380.008 95.624C379.34 97.1239 378.865 98.8784 379.533 100.373C380.014 101.454 381.344 102.144 382.431 101.969C382.951 101.884 383.41 102.336 383.382 102.863C383.246 105.274 383.563 107.73 384.819 109.768C386.342 112.235 389.539 113.82 392.239 112.779C391.764 115.484 390.677 118.087 389.092 120.329C388.453 121.234 388.187 122.038 387.592 122.977C387.451 123.204 386.03 190.441 387.338 215.005C375.509 216.618 364.252 217.897 352.423 219.504C352.536 220.466 342.49 237.117 351.166 273.158C352.745 279.729 355.106 286.181 355.44 292.933C355.853 301.332 354.104 309.896 350.799 317.627H391.797C391.809 317.508 391.831 317.383 391.854 317.276C395.822 298.967 399.783 280.663 403.751 262.354C411.142 280.612 418.777 298.774 426.169 317.038H467.117C461.435 314.712 459.839 307.292 459.199 301.202Z" fill="url(#paint5_linear_2688_14886)"/>
<path d="M352.375 219.505C352.392 219.505 352.404 219.5 352.421 219.5C352.415 219.459 352.404 219.453 352.375 219.505Z" fill="url(#paint6_linear_2688_14886)"/>
<path d="M450.254 224.422C451.68 233.942 453.463 241.062 453.706 248.969" stroke="#323232" stroke-width="0.848958" stroke-miterlimit="10" stroke-linecap="round" stroke-linejoin="round"/>
<path d="M457.027 223.851C458.216 229.788 459.993 238.097 459.642 247.978" stroke="#323232" stroke-width="0.848958" stroke-miterlimit="10" stroke-linecap="round" stroke-linejoin="round"/>
<path d="M399.98 97.9276C400.512 97.1409 401.537 96.7164 402.465 96.9088C403.393 97.1013 404.174 97.8936 404.35 98.8275C404.52 99.7387 404.146 100.684 403.563 101.403C402.98 102.121 402.205 102.659 401.441 103.18" stroke="#323232" stroke-width="0.848958" stroke-miterlimit="10" stroke-linecap="round" stroke-linejoin="round"/>
<path d="M387.987 120.396C373.216 133.606 360.877 149.415 347.453 164C348.013 153.292 346.892 142.86 347.453 132.152C338.137 132.265 329.828 133.453 321.52 134.246C312.736 151.355 304.671 170.462 308.248 189.36C309.142 194.069 310.823 198.71 313.766 202.496C318.509 208.603 326.319 211.982 334.05 212.01C341.782 212.039 349.349 208.909 355.331 204.008L351.194 219.9L387.987 215.152V120.396Z" fill="white"/>
<path d="M403.656 213.041L430.913 210.8C430.913 210.8 430.647 205.525 430.263 203.193C441.525 204.138 453.394 203.08 463.774 199.35C464.628 199.045 459.993 175.387 457.09 166.948C453.388 156.178 447.53 145.141 439.42 137.144C433.5 131.309 410.142 118.682 410.142 118.682C410.142 118.682 404.726 139.34 402.23 162.992C400.255 181.72 403.656 213.041 403.656 213.041Z" fill="white"/>
<path d="M424.98 163.914C429.135 185.874 432.695 220.885 434.67 229.465C435.06 231.163 436.521 233.138 438.258 233.014C441.795 232.753 442.667 225.882 442.192 223.658C443.041 226.245 444.037 234.163 444.891 236.749C446.04 240.252 447.263 243.875 449.798 246.552C452.334 249.229 457.62 251.351 461.972 246.603" stroke="#323232" stroke-width="0.848958" stroke-miterlimit="10" stroke-linecap="round" stroke-linejoin="round"/>
<path d="M409.547 119.406C413.944 127.149 416.338 135.055 414.89 147.297C413.842 156.138 407.838 165.646 401.238 171.629" stroke="#323232" stroke-width="0.848958" stroke-miterlimit="10" stroke-linecap="round" stroke-linejoin="round"/>
<path d="M391.247 94.0845C392.176 94.0845 392.928 93.332 392.928 92.4036C392.928 91.4752 392.176 90.7227 391.247 90.7227C390.319 90.7227 389.566 91.4752 389.566 92.4036C389.566 93.332 390.319 94.0845 391.247 94.0845Z" fill="#323232"/>
<path d="M375.328 196.951C375.345 196.951 375.357 196.946 375.374 196.946C375.368 196.905 375.351 196.905 375.328 196.951Z" fill="url(#paint7_linear_2688_14886)"/>
<path d="M386.736 102.886C385.627 102.908 384.427 103.321 383.352 103.984C383.369 106.021 383.759 108.036 384.817 109.751C386.34 112.218 389.538 113.803 392.237 112.762C391.83 115.06 390.987 117.284 389.764 119.276C396.346 115.405 395.531 102.71 386.736 102.886Z" fill="#323232"/>
<path d="M348.048 132.61C348.07 146.51 348.093 160.405 348.116 174.305C348.121 176.796 348.042 179.518 346.406 181.403C345.552 182.387 344.126 183.044 342.931 182.523C342.264 182.235 341.777 181.635 341.432 180.995C339.581 177.582 341.183 173.355 343.135 170.004C354.313 150.829 375.124 135.429 388.169 121.296C383.081 128.637 379.493 137.172 378.825 146.08C378.157 154.989 381.876 166.546 387.586 173.411L387.983 215.152L351.189 219.9" stroke="#323232" stroke-width="2" stroke-miterlimit="10" stroke-linecap="round" stroke-linejoin="round"/>
<path d="M390.309 87.3664C392.952 86.6702 395.991 88.4757 396.647 91.1301" stroke="#323232" stroke-width="0.848958" stroke-miterlimit="10" stroke-linecap="round" stroke-linejoin="round"/>
<path d="M384.031 106.547C385.848 107.357 388.214 106.819 389.572 105.359" stroke="#FF8329" stroke-width="0.848958" stroke-miterlimit="10" stroke-linecap="round" stroke-linejoin="round"/>
<defs>
<linearGradient id="paint0_linear_2688_14886" x1="10.2958" y1="127.028" x2="27.1842" y2="127.028" gradientUnits="userSpaceOnUse">
<stop stop-color="#FF3C00"/>
<stop offset="1" stop-color="#FFE05E"/>
</linearGradient>
<linearGradient id="paint1_linear_2688_14886" x1="18.4583" y1="248.483" x2="276.876" y2="144.503" gradientUnits="userSpaceOnUse">
<stop stop-color="#FFCCDD"/>
<stop offset="1" stop-color="#FFE05E"/>
</linearGradient>
<linearGradient id="paint2_linear_2688_14886" x1="387" y1="248.5" x2="433.258" y2="132.758" gradientUnits="userSpaceOnUse">
<stop stop-color="#FF3C00"/>
<stop offset="1" stop-color="#FFE05E"/>
</linearGradient>
<linearGradient id="paint3_linear_2688_14886" x1="352.381" y1="219.484" x2="352.426" y2="219.484" gradientUnits="userSpaceOnUse">
<stop stop-color="#FF3C00"/>
<stop offset="1" stop-color="#FFE05E"/>
</linearGradient>
<linearGradient id="paint4_linear_2688_14886" x1="483.851" y1="140.527" x2="328.488" y2="120.828" gradientUnits="userSpaceOnUse">
<stop stop-color="#9C8CD0"/>
<stop offset="0.567" stop-color="#AEC4E7"/>
<stop offset="1" stop-color="#BEF1F9"/>
</linearGradient>
<linearGradient id="paint5_linear_2688_14886" x1="180.5" y1="251.5" x2="462.5" y2="292" gradientUnits="userSpaceOnUse">
<stop stop-color="#FF3C00"/>
<stop offset="1" stop-color="#FFE05E"/>
</linearGradient>
<linearGradient id="paint6_linear_2688_14886" x1="352.377" y1="219.485" x2="352.422" y2="219.485" gradientUnits="userSpaceOnUse">
<stop stop-color="#FF3C00"/>
<stop offset="1" stop-color="#FFE05E"/>
</linearGradient>
<linearGradient id="paint7_linear_2688_14886" x1="375.327" y1="196.934" x2="375.372" y2="196.934" gradientUnits="userSpaceOnUse">
<stop stop-color="#FF3C00"/>
<stop offset="1" stop-color="#FFE05E"/>
</linearGradient>
</defs>
</svg>
