<svg width="141" height="140" viewBox="0 0 141 140" fill="none" xmlns="http://www.w3.org/2000/svg">
<path d="M0.431152 32C0.431152 14.3269 14.758 0 32.4312 0H108.431C126.104 0 140.431 14.3269 140.431 32V108C140.431 125.673 126.104 140 108.431 140H32.4312C14.758 140 0.431152 125.673 0.431152 108V32Z" fill="white"/>
<path d="M87.4099 71.6468C80.1321 71.6468 74.2334 77.5459 74.2334 84.823C74.2334 92.1005 80.1321 98 87.4099 98C94.6868 98 100.586 92.1005 100.586 84.823C100.586 77.5459 94.6868 71.6468 87.4099 71.6468ZM53.1764 71.6478C45.8995 71.6478 40 77.5459 40 84.8237C40 92.1005 45.8995 98 53.1764 98C60.4537 98 66.3534 92.1005 66.3534 84.8237C66.3534 77.5459 60.4537 71.6478 53.1764 71.6478ZM83.469 55.1761C83.469 62.4532 77.5703 68.3536 70.2934 68.3536C63.0158 68.3536 57.1168 62.4532 57.1168 55.1761C57.1168 47.8995 63.0158 42 70.2934 42C77.5703 42 83.469 47.8995 83.469 55.1761Z" fill="url(#paint0_radial_1506_24714)"/>
<defs>
<radialGradient id="paint0_radial_1506_24714" cx="0" cy="0" r="1" gradientUnits="userSpaceOnUse" gradientTransform="translate(70.293 72.6052) scale(40.1463 37.1075)">
<stop stop-color="#FFB900"/>
<stop offset="0.6" stop-color="#F95D8F"/>
<stop offset="0.9991" stop-color="#F95353"/>
</radialGradient>
</defs>
</svg>
