<svg width="16" height="16" fill="none" xmlns="http://www.w3.org/2000/svg"><path fill-rule="evenodd" clip-rule="evenodd" d="M4.297 4.6c0-.951.769-1.716 1.712-1.716.942 0 1.711.765 1.711 1.715 0 .95-.769 1.715-1.711 1.715A1.714 1.714 0 0 1 4.297 4.6Zm1.712-2.767A2.767 2.767 0 0 0 3.24 4.6a2.767 2.767 0 0 0 2.769 2.766 2.767 2.767 0 0 0 2.768-2.766 2.767 2.767 0 0 0-2.768-2.766Zm-2.794 8.681a3.95 3.95 0 0 1 6.746 2.798v.47H2.057v-.47c0-1.05.417-2.056 1.158-2.798ZM6.01 8.306A5.01 5.01 0 0 0 1 13.312v.996c0 .29.237.525.528.525h8.961a.527.527 0 0 0 .528-.525v-.996A5.005 5.005 0 0 0 6.01 8.306ZM9.463 2.36c0-.29.236-.526.528-.526A2.77 2.77 0 0 1 12.76 4.6 2.765 2.765 0 0 1 9.99 7.365a.527.527 0 0 1-.528-.525c0-.29.236-.526.528-.526A1.71 1.71 0 0 0 11.703 4.6a1.717 1.717 0 0 0-1.712-1.715.527.527 0 0 1-.528-.525Zm2.31 6.17a.53.53 0 0 0-.682.304.524.524 0 0 0 .305.678 3.953 3.953 0 0 1 2.547 3.692v.58h-.965a.527.527 0 0 0-.528.525c0 .29.236.525.528.525h1.494a.527.527 0 0 0 .528-.525v-1.105a5.006 5.006 0 0 0-3.227-4.673Z" fill="#000" fill-opacity=".89"/></svg>