<svg width="16" height="16" viewBox="0 0 16 16" fill="none" xmlns="http://www.w3.org/2000/svg">
<path d="M13.5 1H2.5C2.10218 1 1.72064 1.15804 1.43934 1.43934C1.15804 1.72064 1 2.10218 1 2.5V15.5C1.00028 15.5923 1.02612 15.6828 1.07466 15.7613C1.1232 15.8399 1.19254 15.9035 1.275 15.945C1.35802 15.9871 1.45115 16.0052 1.54391 15.9973C1.63666 15.9893 1.72536 15.9556 1.8 15.9L5.665 13H13.5C13.8978 13 14.2794 12.842 14.5607 12.5607C14.842 12.2794 15 11.8978 15 11.5V2.5C15 2.10218 14.842 1.72064 14.5607 1.43934C14.2794 1.15804 13.8978 1 13.5 1ZM14 11.5C14 11.6326 13.9473 11.7598 13.8536 11.8536C13.7598 11.9473 13.6326 12 13.5 12H5.5C5.39181 12 5.28655 12.0351 5.2 12.1L2 14.5V2.5C2 2.36739 2.05268 2.24021 2.14645 2.14645C2.24021 2.05268 2.36739 2 2.5 2H13.5C13.6326 2 13.7598 2.05268 13.8536 2.14645C13.9473 2.24021 14 2.36739 14 2.5V11.5Z" fill="#FF3C00"/>
<path d="M11.5 6H4.5C4.36739 6 4.24021 6.05268 4.14645 6.14645C4.05268 6.24021 4 6.36739 4 6.5C4 8.43 5.795 10 8 10C10.205 10 12 8.43 12 6.5C12 6.36739 11.9473 6.24021 11.8536 6.14645C11.7598 6.05268 11.6326 6 11.5 6ZM8 9C6.55 9 5.34 8.14 5.06 7H10.94C10.66 8.14 9.45 9 8 9Z" fill="#FF3C00"/>
</svg>
