<svg width="38" height="38" viewBox="0 0 38 38" fill="none" xmlns="http://www.w3.org/2000/svg"><rect width="38" height="38" rx="4" fill="white"/><path fill-rule="evenodd" clip-rule="evenodd" d="M27.208 19.1944C27.208 18.5882 27.1536 18.0052 27.0525 17.4456H19V20.7529H23.6015C23.4032 21.8216 22.8009 22.7271 21.8953 23.3334V25.4787H24.6585C26.2753 23.9902 27.208 21.7983 27.208 19.1944Z" fill="#4285F4"/><path fill-rule="evenodd" clip-rule="evenodd" d="M19 27.55C21.3085 27.55 23.2439 26.7844 24.6585 25.4786L21.8953 23.3333C21.1297 23.8463 20.1504 24.1494 19 24.1494C16.7731 24.1494 14.8882 22.6454 14.2159 20.6245H11.3594V22.8397C12.7663 25.634 15.6577 27.55 19 27.55Z" fill="#34A853"/><path fill-rule="evenodd" clip-rule="evenodd" d="M14.2151 20.6245C14.0441 20.1115 13.9469 19.5635 13.9469 19C13.9469 18.4365 14.0441 17.8885 14.2151 17.3755V15.1603H11.3586C10.7796 16.3145 10.4492 17.6203 10.4492 19C10.4492 20.3797 10.7796 21.6855 11.3586 22.8397L14.2151 20.6245Z" fill="#FBBC05"/><path fill-rule="evenodd" clip-rule="evenodd" d="M19 13.8506C20.2553 13.8506 21.3823 14.282 22.2684 15.1292L24.7207 12.6769C23.24 11.2972 21.3046 10.45 19 10.45C15.6577 10.45 12.7663 12.366 11.3594 15.1603L14.2159 17.3755C14.8882 15.3546 16.7731 13.8506 19 13.8506Z" fill="#EA4335"/></svg>