<svg width="24" height="25" viewBox="0 0 24 25" fill="none" xmlns="http://www.w3.org/2000/svg">
<g clip-path="url(#clip0_766_16334)">
<path fill-rule="evenodd" clip-rule="evenodd" d="M9.49212 3.70624C7.98347 3.70624 6.76048 4.94392 6.76048 6.47067C6.76048 7.99743 7.98347 9.23511 9.49212 9.23511C11.0008 9.23511 12.2238 7.99743 12.2238 6.47067C12.2238 4.94392 11.0008 3.70624 9.49212 3.70624ZM5.07448 6.47067C5.07448 4.00159 7.05232 2 9.49212 2C11.9319 2 13.9097 4.00159 13.9097 6.47067C13.9097 8.93976 11.9319 10.9413 9.49212 10.9413C7.05232 10.9413 5.07448 8.93976 5.07448 6.47067Z" fill="#FF3C00"/>
<path fill-rule="evenodd" clip-rule="evenodd" d="M12 14C11.0411 13.5228 10.2761 13.3689 9.2088 13.42C8.14147 13.4711 7.10436 13.7952 6.19434 14.3619C5.28432 14.9287 4.53108 15.7196 4.00499 16.6608C3.4796 17.6007 3.19786 18.66 3.186 19.7398V21.2938H7.10918C7.57475 21.2938 7.95218 21.6757 7.95218 22.1469C7.95218 22.618 7.57475 23 7.10918 23H2.343C1.87742 23 1.5 22.618 1.5 22.1469V19.7263C1.51414 18.3566 1.87111 17.0129 2.53751 15.8207C3.2039 14.6285 4.15801 13.6267 5.31071 12.9088C6.46342 12.1909 7.7771 11.7804 9.12907 11.7157C10.481 11.6509 11.5295 11.8644 12.744 12.4689C13.1618 12.6768 13.3339 13.1881 13.1285 13.6109C12.923 14.0337 12.4178 14.2079 12 14Z" fill="#FF3C00"/>
<path fill-rule="evenodd" clip-rule="evenodd" d="M19.648 17H13.3521L16.5 19.0986L19.648 17ZM12 17H12V17L12 17ZM12 17.9014V23H21V17.9014L16.5 20.9014L12 17.9014ZM10.5 17C10.5 16.1716 11.1716 15.5 12 15.5H21C21.8284 15.5 22.5 16.1716 22.5 17V23C22.5 23.8284 21.8284 24.5 21 24.5H12C11.1716 24.5 10.5 23.8284 10.5 23V17Z" fill="#FF3C00"/>
</g>
<defs>
<clipPath id="clip0_766_16334">
<rect width="24" height="24" fill="white" transform="translate(0 0.5)"/>
</clipPath>
</defs>
</svg>
