<svg width="694" height="227" viewBox="0 0 694 227" fill="none" xmlns="http://www.w3.org/2000/svg">
<g clip-path="url(#clip0_2403_19924)">
<path fill-rule="evenodd" clip-rule="evenodd" d="M261.355 38.2427C263.784 42.4074 263.828 47.5266 261.485 51.7347C253.199 64.6628 249.468 79.9769 250.9 95.2476V95.2043C253.763 138.023 229.902 182.924 186.476 208.216C143.05 233.509 92.249 232.034 56.5016 208.347V208.39C43.9639 199.583 28.78 195.245 13.4659 196.069C8.65037 196.026 4.22533 193.423 1.83928 189.258C-0.546774 185.093 -0.633541 179.974 1.70913 175.766C9.99524 162.838 13.7262 147.524 12.2945 132.253V132.297C9.47464 89.4777 33.3352 44.5766 76.7613 19.3278C120.187 -5.96435 170.989 -4.48933 206.736 19.1977C219.317 28.0044 234.458 32.3426 249.772 31.5184C254.5 31.5617 258.926 34.1213 261.355 38.2427Z" fill="#8B95A8"/>
<path fill-rule="evenodd" clip-rule="evenodd" d="M458.009 205.657V119.368H519.005V138.63H482.043V153.467H514.103V170.04H482.043V186.308H520.264V205.657H458.009ZM667.244 205.657V168.998L666.29 169.345C656.963 172.556 647.245 174.378 637.397 174.768H636.659V205.657H611.584V119.368H636.659V155.506H637.397C638.004 155.506 650.368 155.42 666.767 149.997L667.288 149.823V119.368H692.363V205.657H667.244ZM304.825 205.57V119.585H365.474V140.583H329.813V157.545H358.142V175.766H329.813V205.57H304.825ZM396.362 108.349V22.0609H458.964V41.3229H420.353V56.1164H452.413V72.6886H420.353V88.9571H458.573V108.349H396.362ZM536.749 108.306V22.0175H561.868V87.2218H596.097V108.306H536.749ZM468.638 108.306V22.0175H493.757V87.2218H527.986V108.306H468.638ZM646.594 110.562C637.44 110.562 629.935 108.826 622.3 104.922C615.228 101.408 609.285 95.8984 605.25 89.0873C601.216 82.2762 599.22 74.2504 599.22 65.1834C599.22 56.1164 601.216 48.0906 605.25 41.2795C609.285 34.4684 615.185 28.9588 622.256 25.4448C629.892 21.5403 637.397 19.8484 646.551 19.8484C655.705 19.8484 663.21 21.5837 670.845 25.4448C677.916 28.9588 683.86 34.4684 687.894 41.2795C691.929 48.0906 693.968 56.1164 693.968 65.1834C693.968 74.2504 691.929 82.2762 687.894 89.0873C683.86 95.8984 677.916 101.408 670.845 104.922C663.253 108.826 655.748 110.562 646.594 110.562ZM646.594 40.9758C642.473 40.889 638.395 41.9302 634.837 43.9692C631.323 45.9214 628.46 48.9148 626.595 52.4722C624.686 56.1164 623.688 60.4113 623.688 65.2701C623.688 70.129 624.642 74.4239 626.595 78.0681C628.46 81.6254 631.323 84.5755 634.837 86.5277C642.212 90.3888 650.976 90.3888 658.351 86.5277C661.908 84.5755 664.772 81.6688 666.68 78.1114C668.633 74.4673 669.63 70.1724 669.63 65.3135C669.63 60.498 668.633 56.1598 666.68 52.5156C664.772 48.9582 661.908 46.0082 658.394 44.0126C654.75 41.8868 650.715 40.889 646.594 40.9758ZM360.528 108.306V71.6474L359.574 71.9945C350.246 75.1614 340.529 77.0269 330.681 77.4173H329.943V108.306H304.868V22.0175H329.943V58.1554H330.681C331.288 58.1554 343.652 58.0686 360.051 52.6457L360.572 52.4722V21.9741H385.647V108.262H360.528V108.306ZM565.165 207.262C564.297 207.262 563.429 207.262 562.562 207.219C556.011 207.045 549.59 205.7 543.56 203.184C537.964 200.798 533.365 197.457 529.938 193.336C528.376 191.471 527.118 189.432 526.12 187.262L545.773 176.851C546.206 179.02 547.161 181.102 548.506 182.837C550.241 185.007 552.454 186.698 555.013 187.74C558.007 188.998 561.217 189.692 564.471 189.735H565.685C567.854 189.779 570.024 189.475 572.149 188.911C574.102 188.39 575.924 187.436 577.442 186.091C578.743 184.92 579.524 183.271 579.611 181.536C579.785 179.497 578.874 177.545 577.225 176.33C575.533 175.072 573.624 174.161 571.629 173.64C569.503 173.033 566.162 172.252 561.607 171.341C554.623 170.04 548.809 168.565 544.341 167.003C539.916 165.441 535.968 162.708 532.931 159.107C529.764 155.463 528.289 150.3 528.55 143.75C528.767 138.066 530.415 133.034 533.495 128.826C536.575 124.618 540.87 121.407 546.206 119.282C551.412 117.329 556.965 116.332 562.562 116.418C563.256 116.418 563.993 116.418 564.731 116.462C570.371 116.592 575.967 117.763 581.173 119.932C585.728 121.841 589.806 124.791 593.103 128.522C594.665 130.344 595.966 132.383 596.964 134.596L578.96 144.14C578.44 141.364 576.921 138.891 574.709 137.199C572.193 135.247 568.982 134.162 565.078 133.988H564.167C562.432 133.988 560.653 134.205 559.004 134.683C557.356 135.116 555.837 136.027 554.666 137.242C553.581 138.413 552.974 139.932 552.931 141.537C552.801 143.533 553.668 145.441 555.273 146.613C556.879 147.828 558.701 148.695 560.653 149.216C562.648 149.736 565.989 150.474 570.631 151.385C576.488 152.383 582.257 153.771 587.897 155.55C592.452 157.068 596.487 159.801 599.611 163.445C602.821 167.133 604.296 172.339 604.079 178.976C603.949 184.573 601.997 189.952 598.483 194.29C594.969 198.629 590.066 201.926 583.949 204.182C578.223 206.264 571.976 207.262 565.165 207.262ZM447.424 206.785C442.522 206.828 437.663 206.091 433.021 204.616C430.418 203.748 427.945 202.663 425.516 201.362C423.13 200.017 420.874 198.499 418.791 196.763C414.757 193.379 411.243 189.388 408.466 184.92C407.121 182.794 405.907 180.538 404.822 178.239C404.518 177.545 404.215 176.851 403.954 176.2L403.781 175.766H398.922V205.917H373.847V119.585H412.978C419.963 119.585 426.166 120.8 431.546 123.143C436.925 125.485 441.003 128.826 443.91 133.121C446.817 137.502 448.335 142.665 448.248 147.914C448.292 151.298 447.597 154.682 446.166 157.762C444.777 160.712 442.652 163.315 440.092 165.311C436.795 167.74 433.151 169.692 429.29 171.037L428.509 171.298L429.16 172.599C430.461 175.029 432.11 177.284 434.105 179.193C435.016 180.104 436.058 180.885 437.099 181.623C438.183 182.317 439.311 182.924 440.483 183.401C442.825 184.312 445.341 184.876 447.858 185.05V206.828H447.424V206.785ZM398.922 159.02H409.898C412.11 159.02 414.323 158.586 416.362 157.675C418.314 156.808 420.006 155.506 421.307 153.858C422.566 152.209 423.26 150.214 423.216 148.131C423.26 146.005 422.566 143.966 421.307 142.275C420.006 140.583 418.314 139.281 416.362 138.457C414.323 137.546 412.11 137.112 409.898 137.112H398.922V159.02Z" fill="#8B95A8"/>
</g>
<defs>
<clipPath id="clip0_2403_19924">
<rect width="693.968" height="225.76" fill="white" transform="translate(0 0.89209)"/>
</clipPath>
</defs>
</svg>
