<svg width="734" height="226" viewBox="0 0 734 226" fill="none" xmlns="http://www.w3.org/2000/svg">
<g clip-path="url(#clip0_2403_19912)">
<mask id="mask0_2403_19912" style="mask-type:luminance" maskUnits="userSpaceOnUse" x="291" y="17" width="443" height="156">
<path d="M733.253 17.303H291.927V172.414H733.253V17.303Z" fill="white"/>
</mask>
<g mask="url(#mask0_2403_19912)">
<path fill-rule="evenodd" clip-rule="evenodd" d="M506.529 172.532L482.109 166.706V68.3788L506.529 63.7302V172.532ZM677.352 149.347C659.64 149.406 645.282 135.107 645.164 117.395C645.164 117.337 645.164 117.278 645.164 117.219C645.164 99.8012 659.463 85.5022 677.293 85.5022C695.122 85.5022 709.421 99.8012 709.421 117.219C709.48 134.931 695.122 149.288 677.469 149.347C677.469 149.347 677.41 149.347 677.352 149.347ZM732.723 117.219C732.723 147.817 707.95 172.59 677.352 172.59C646.753 172.59 621.98 147.817 621.98 117.219C621.98 87.0322 646.812 62.2591 677.41 62.2591C708.009 62.2591 732.723 87.0322 732.723 117.219ZM418.558 166.765L442.567 171.767V105.568C442.567 73.7924 417.793 62.6122 400.729 62.6122C389.49 62.6122 380.193 65.319 372.072 73.4393C363.54 65.319 353.478 62.2003 345.357 62.2003C333.353 62.2003 323.291 67.202 316.289 75.7343V64.4951L291.869 69.1438V166.706L316.289 171.708V104.803C316.289 93.9757 324.056 86.6203 336.001 86.6203C347.24 86.6203 355.361 93.9757 355.361 104.803V166.765L379.369 171.767V104.803C379.369 93.9757 387.489 86.6203 399.14 86.6203C410.379 86.6203 418.5 93.9757 418.5 104.803L418.558 166.765ZM603.739 62.2591L589.381 64.2009C562.666 70.3795 545.248 78.9118 545.248 108.333V166.765L569.668 171.414V111.805C569.668 98.2713 577.436 92.0339 589.44 89.739L603.797 87.4441L603.739 62.2591ZM483.286 21.9514C477.461 27.8946 477.461 37.3095 483.286 43.2527C489.229 49.3724 499.056 49.4313 505.117 43.4881C505.176 43.4292 505.294 43.3115 505.352 43.2527C511.178 37.3684 511.178 27.8357 505.352 21.9514C499.115 16.1259 489.465 16.1259 483.286 21.9514Z" fill="#8B95A8"/>
</g>
<path fill-rule="evenodd" clip-rule="evenodd" d="M63 0C28.2061 0 0 28.2061 0 63.0001V162.76C0 197.554 28.2061 225.76 63.0001 225.76H162.76C197.554 225.76 225.76 197.554 225.76 162.76V63C225.76 28.2061 197.554 0 162.76 0H63ZM132.364 28.7224H157.228L202.801 57.0043L157.228 198.615H132.364L153.073 69.2017L107.5 198.615H82.6361L105.422 77.2439L57.7721 198.615H32.9082L57.7721 85.3532L32.9082 28.7224H57.7721L105.422 73.2228L82.6361 28.7224H107.5L153.073 65.1136L132.364 28.7224Z" fill="#8B95A8"/>
</g>
<defs>
<clipPath id="clip0_2403_19912">
<rect width="733.253" height="225.76" fill="white"/>
</clipPath>
</defs>
</svg>
