<svg width="70" height="24" viewBox="0 0 70 24" fill="none" xmlns="http://www.w3.org/2000/svg">
<path fill-rule="evenodd" clip-rule="evenodd" d="M8.215 5.42969V10.9259H3.0408V5.42969H0.583618V18.5485H3.0408V13.2317H8.215V18.5485H10.6714V5.42969" fill="#9497A4"/>
<path fill-rule="evenodd" clip-rule="evenodd" d="M18.4266 14.0876C18.4266 15.2342 17.5114 16.167 16.3882 16.167C15.2647 16.167 14.3501 15.2342 14.3501 14.0876V8.19141H12.0166V14.0876C12.0166 16.5475 13.9777 18.5484 16.3882 18.5484C18.7983 18.5484 20.7594 16.5475 20.7594 14.0876V8.19141H18.4266" fill="#9497A4"/>
<path fill-rule="evenodd" clip-rule="evenodd" d="M34.8884 9.26689C34.8884 8.11505 35.6432 7.74989 36.4696 7.74989C37.1351 7.74989 38.0156 8.26143 38.5903 8.88294L40.0635 7.12885C39.3273 6.12421 37.8358 5.42969 36.6136 5.42969C34.169 5.42969 32.4076 6.8732 32.4076 9.26689C32.4076 13.7067 37.7819 12.2993 37.7819 14.7848C37.7819 15.5514 37.0453 16.228 36.2008 16.228C34.8703 16.228 34.4388 15.5703 33.8279 14.8758L32.1921 16.593C33.2351 17.8904 34.5287 18.5485 36.0747 18.5485C38.3931 18.5485 40.2624 17.0867 40.2624 14.8025C40.2624 9.8695 34.8884 11.4045 34.8884 9.26689Z" fill="#9497A4"/>
<path fill-rule="evenodd" clip-rule="evenodd" d="M68.4014 16.3941C67.0921 16.3941 66.7205 15.7999 66.7205 14.8893V10.8584H68.7556V8.81506H66.7205V6.12109L64.4731 7.17982V15.391C64.4731 17.4904 65.8532 18.5495 67.7464 18.5495C68.0296 18.5495 68.4194 18.5304 68.6321 18.4752L69.1808 16.3577C68.9331 16.3756 68.65 16.3941 68.4014 16.3941Z" fill="#9497A4"/>
<path fill-rule="evenodd" clip-rule="evenodd" d="M26.9049 16.2453C25.5168 16.2453 24.3917 15.083 24.3917 13.6495C24.3917 12.2159 25.5168 11.0538 26.9049 11.0538C28.2926 11.0538 29.4178 12.2159 29.4178 13.6495C29.4178 15.083 28.2926 16.2453 26.9049 16.2453ZM26.9186 8.6935C25.823 8.6935 25.0583 9.02193 24.3199 9.77062V5.42969H22.1042V13.4749C22.1042 16.4862 24.212 18.5485 26.5802 18.5485C29.2129 18.5485 31.5196 16.4495 31.5196 13.6212C31.5196 10.8289 29.3925 8.6935 26.9186 8.6935Z" fill="#9497A4"/>
<path fill-rule="evenodd" clip-rule="evenodd" d="M48.921 13.78C48.921 15.2135 47.7959 16.3757 46.408 16.3757C45.0201 16.3757 43.895 15.2135 43.895 13.78C43.895 12.3463 45.0201 11.1842 46.408 11.1842C47.7959 11.1842 48.921 12.3463 48.921 13.78ZM51.0227 13.8082C51.0227 10.98 48.7161 8.88086 46.0835 8.88086C43.7152 8.88086 41.6074 10.9433 41.6074 13.9545V21.9997H43.8231V17.6587C44.5616 18.4074 45.3263 18.7359 46.4218 18.7359C48.8957 18.7359 51.0227 16.6006 51.0227 13.8082Z" fill="#9497A4"/>
<path fill-rule="evenodd" clip-rule="evenodd" d="M58.093 16.3959C56.6942 16.3959 55.5601 15.1989 55.5601 13.7223C55.5601 12.2457 56.6942 11.0486 58.093 11.0486C59.4916 11.0486 60.6256 12.2457 60.6256 13.7223C60.6256 15.1989 59.4916 16.3959 58.093 16.3959ZM58.8512 6.19664C59.4392 5.90337 59.8513 5.27531 59.8513 4.54641V4.49147C59.8513 3.48565 59.0715 2.66261 58.1189 2.66261H58.0668C57.114 2.66261 56.3343 3.48565 56.3343 4.49147V4.54641C56.3343 5.27532 56.7465 5.90337 57.3345 6.19664V8.57504C56.459 8.71777 55.659 9.09907 54.9988 9.6601L48.813 4.58023C48.8537 4.41491 48.8823 4.24446 48.8825 4.0656C48.8839 2.92621 48.0101 2.00147 46.9308 2C45.8516 1.99854 44.9755 2.92096 44.9742 4.06035C44.9729 5.19962 45.8466 6.12436 46.9259 6.12582C47.2777 6.12631 47.6031 6.02082 47.8886 5.84952L53.9735 10.8466C53.4559 11.6712 53.1529 12.659 53.1529 13.7223C53.1529 14.8356 53.486 15.8652 54.049 16.7122L52.1985 18.6657C52.0522 18.6194 51.9003 18.5869 51.7396 18.5869C50.8528 18.5869 50.1338 19.346 50.1338 20.2822C50.1338 21.2184 50.8528 21.9774 51.7396 21.9774C52.6265 21.9774 53.3455 21.2184 53.3455 20.2822C53.3455 20.1126 53.3148 19.9522 53.2709 19.7979L55.1014 17.8655C55.9322 18.5351 56.9669 18.9372 58.093 18.9372C60.8212 18.9372 63.0329 16.6024 63.0329 13.7223C63.0329 11.115 61.2185 8.96098 58.8512 8.57492V6.19664H58.8512Z" fill="#9497A4"/>
</svg>
