<svg class="sc-x8zf0x-4 CaIFK" width="19" height="19" viewBox="0 0 19 19" fill="none" xmlns="http://www.w3.org/2000/svg"><path fill-rule="evenodd" clip-rule="evenodd" d="M7.20813 2.06023C4.11892 2.98733 1.8211 5.74416 1.57347 9.07194H5.48849C5.5472 6.89047 5.92526 4.90467 6.52395 3.40793C6.7233 2.90955 6.95151 2.45432 7.20813 2.06023ZM9.49505 1.72611C9.24069 1.72611 8.93788 1.85252 8.59955 2.21027C8.26003 2.56928 7.92673 3.12087 7.63426 3.85205C7.10166 5.18353 6.74335 7.0127 6.68477 9.07194H9.49505H12.3053C12.2468 7.0127 11.8884 5.18353 11.3558 3.85205C11.0634 3.12087 10.7301 2.56928 10.3906 2.21027C10.0522 1.85252 9.74941 1.72611 9.49505 1.72611ZM13.5016 9.07194C13.4429 6.89047 13.0648 4.90467 12.4662 3.40793C12.2668 2.90955 12.0386 2.45432 11.782 2.06023C14.8712 2.98733 17.169 5.74416 17.4166 9.07194H13.5016ZM12.3053 10.2678H9.49505H6.68477C6.74335 12.327 7.10166 14.1562 7.63426 15.4877C7.92673 16.2188 8.26003 16.7704 8.59955 17.1294C8.93788 17.4872 9.24069 17.6136 9.49505 17.6136C9.74941 17.6136 10.0522 17.4872 10.3906 17.1294C10.7301 16.7704 11.0634 16.2188 11.3558 15.4877C11.8884 14.1562 12.2468 12.327 12.3053 10.2678ZM11.7837 17.2768C12.0396 16.8833 12.2673 16.429 12.4662 15.9318C13.0648 14.435 13.4429 12.4492 13.5016 10.2678H17.4163C17.353 11.1062 17.1569 11.9306 16.8341 12.7098C16.4395 13.6624 15.8633 14.529 15.1377 15.2613C15.1207 15.2784 15.1036 15.2955 15.0865 15.3125C14.3542 16.0381 13.4876 16.6143 12.535 17.0089C12.2888 17.1109 12.038 17.2003 11.7837 17.2768ZM9.49505 18.8094C14.5427 18.8094 18.6346 14.7175 18.6346 9.66986V9.07194H18.6154C18.3074 4.30299 14.3418 0.530273 9.49505 0.530273C4.64828 0.530273 0.682682 4.30299 0.374714 9.07194H0.355469L0.355469 9.66986C0.355469 14.7175 4.4474 18.8094 9.49505 18.8094ZM7.20636 17.2768C6.95047 16.8833 6.72284 16.429 6.52395 15.9318C5.92526 14.435 5.5472 12.4492 5.48849 10.2678H1.57384C1.63712 11.1062 1.83324 11.9306 2.15598 12.7098C2.54982 13.6606 3.12459 14.5257 3.84824 15.257C3.86801 15.277 3.88788 15.2969 3.90786 15.3167C4.63923 16.0403 5.50432 16.6151 6.45511 17.0089C6.70134 17.1109 6.95208 17.2003 7.20636 17.2768Z" fill="black" fill-opacity="0.89"/></svg>