<svg width="15" height="15" viewBox="0 0 15 15" fill="none" xmlns="http://www.w3.org/2000/svg"><path d="M7.3281 1.33129C7.43437 0.936622 7.99433 0.936622 8.10059 1.33129L9.37642 6.06977C9.41348 6.20742 9.52101 6.31495 9.65867 6.35201L14.3971 7.62784C14.7918 7.7341 14.7918 8.29406 14.3971 8.40033L9.65867 9.67615C9.52101 9.71322 9.41348 9.82075 9.37642 9.9584L8.10059 14.6969C7.99433 15.0915 7.43437 15.0915 7.3281 14.6969L6.05228 9.9584C6.01521 9.82074 5.90769 9.71322 5.77003 9.67615L1.03156 8.40033C0.636885 8.29406 0.636885 7.7341 1.03156 7.62784L5.77003 6.35201C5.90769 6.31495 6.01521 6.20742 6.05228 6.06977L7.3281 1.33129Z" fill="white"/><path d="M3.37171 0.107328C3.4741 -0.0695327 3.74454 0.00293154 3.74479 0.207295L3.74721 2.20508C3.7473 2.27636 3.78532 2.34221 3.847 2.37792L5.57592 3.37891C5.75279 3.48131 5.68032 3.75175 5.47596 3.75199L3.47817 3.75441C3.40689 3.7545 3.34105 3.79252 3.30533 3.8542L2.30434 5.58313C2.20195 5.75999 1.93151 5.68752 1.93126 5.48316L1.92884 3.48537C1.92875 3.41409 1.89074 3.34825 1.82905 3.31253L0.100126 2.31154C-0.0767348 2.20915 -0.00427061 1.93871 0.200093 1.93846L2.19788 1.93604C2.26916 1.93595 2.335 1.89794 2.37072 1.83625L3.37171 0.107328Z" fill="white"/><path d="M10.5232 11.8572C10.3789 11.7125 10.5189 11.47 10.7163 11.5227L12.2525 11.9323C12.3214 11.9507 12.3948 11.931 12.4453 11.8807L13.5708 10.7578C13.7155 10.6135 13.9579 10.7535 13.9053 10.951L13.4957 12.4871C13.4773 12.556 13.497 12.6294 13.5473 12.6799L14.6701 13.8054C14.8145 13.9501 14.6745 14.1926 14.477 14.1399L12.9409 13.7303C12.872 13.7119 12.7986 13.7316 12.7481 13.782L11.6226 14.9048C11.4779 15.0491 11.2354 14.9091 11.2881 14.7117L11.6977 13.1755C11.716 13.1066 11.6964 13.0332 11.646 12.9827L10.5232 11.8572Z" fill="white"/></svg>