<svg width="16" height="16" viewBox="0 0 16 16" fill="none" xmlns="http://www.w3.org/2000/svg">
<path d="M4.5 5H11.5C11.8978 5 12.2794 4.84196 12.5607 4.56066C12.842 4.27936 13 3.89782 13 3.5V2.5C13 2.10218 12.842 1.72064 12.5607 1.43934C12.2794 1.15804 11.8978 1 11.5 1H10.5C10.5 0.734784 10.3946 0.48043 10.2071 0.292893C10.0196 0.105357 9.76522 0 9.5 0H6.5C6.23478 0 5.98043 0.105357 5.79289 0.292893C5.60536 0.48043 5.5 0.734784 5.5 1H4.5C4.10218 1 3.72064 1.15804 3.43934 1.43934C3.15804 1.72064 3 2.10218 3 2.5V3.5C3 3.89782 3.15804 4.27936 3.43934 4.56066C3.72064 4.84196 4.10218 5 4.5 5ZM4 2.5C4 2.36739 4.05268 2.24021 4.14645 2.14645C4.24021 2.05268 4.36739 2 4.5 2H5.5C5.76522 2 6.01957 1.89464 6.20711 1.70711C6.39464 1.51957 6.5 1.26522 6.5 1H9.5C9.5 1.26522 9.60536 1.51957 9.79289 1.70711C9.98043 1.89464 10.2348 2 10.5 2H11.5C11.6326 2 11.7598 2.05268 11.8536 2.14645C11.9473 2.24021 12 2.36739 12 2.5V3.5C12 3.63261 11.9473 3.75979 11.8536 3.85355C11.7598 3.94732 11.6326 4 11.5 4H4.5C4.36739 4 4.24021 3.94732 4.14645 3.85355C4.05268 3.75979 4 3.63261 4 3.5V2.5Z" fill="#FF3C00"/>
<path d="M11.1451 7.14497L7.50009 10.795L5.85509 9.14497C5.80847 9.09835 5.75313 9.06138 5.69222 9.03615C5.63131 9.01092 5.56602 8.99792 5.50009 8.99792C5.43416 8.99792 5.36888 9.01092 5.30797 9.03615C5.24706 9.06138 5.19171 9.09835 5.14509 9.14497C5.09847 9.19159 5.06149 9.24694 5.03626 9.30785C5.01103 9.36876 4.99805 9.43405 4.99805 9.49998C4.99805 9.56591 5.01103 9.63118 5.03626 9.69209C5.06149 9.75301 5.09847 9.80835 5.14509 9.85497L7.14509 11.855C7.19157 11.9018 7.24687 11.939 7.3078 11.9644C7.36873 11.9898 7.43409 12.0029 7.50009 12.0029C7.5661 12.0029 7.63145 11.9898 7.69238 11.9644C7.75331 11.939 7.80861 11.9018 7.85509 11.855L11.8551 7.85497C11.9017 7.80835 11.9387 7.75301 11.9639 7.6921C11.9892 7.63118 12.0021 7.5659 12.0021 7.49997C12.0021 7.43404 11.9892 7.36876 11.9639 7.30785C11.9387 7.24693 11.9017 7.19159 11.8551 7.14497C11.8085 7.09835 11.7531 7.06137 11.6922 7.03614C11.6313 7.01091 11.566 6.99792 11.5001 6.99792C11.4342 6.99792 11.3689 7.01091 11.308 7.03614C11.2471 7.06137 11.1917 7.09835 11.1451 7.14497Z" fill="#FF3C00"/>
<path d="M14.5 2C14.3674 2 14.2402 2.05268 14.1464 2.14645C14.0527 2.24021 14 2.36739 14 2.5V13.5C14 13.6326 13.9473 13.7598 13.8536 13.8536C13.7598 13.9473 13.6326 14 13.5 14H2.5C2.36739 14 2.24021 13.9473 2.14645 13.8536C2.05268 13.7598 2 13.6326 2 13.5V2.5C2 2.36739 1.94732 2.24021 1.85355 2.14645C1.75979 2.05268 1.63261 2 1.5 2C1.36739 2 1.24021 2.05268 1.14645 2.14645C1.05268 2.24021 1 2.36739 1 2.5V13.5C1 13.8978 1.15804 14.2794 1.43934 14.5607C1.72064 14.842 2.10218 15 2.5 15H13.5C13.8978 15 14.2794 14.842 14.5607 14.5607C14.842 14.2794 15 13.8978 15 13.5V2.5C15 2.36739 14.9473 2.24021 14.8536 2.14645C14.7598 2.05268 14.6326 2 14.5 2Z" fill="#FF3C00"/>
</svg>
