<svg width="954" height="227" viewBox="0 0 954 227" fill="none" xmlns="http://www.w3.org/2000/svg">
<g clip-path="url(#clip0_2403_19876)">
<path d="M0 175.654H57.19V169.582H52.8979C44.5433 169.582 42.5193 167.3 42.5193 158.96V83.5531C48.3474 73.6769 56.1852 67.3464 66.0614 67.3464C78.4641 67.3464 86.0578 76.4474 86.0578 93.6733V158.988C86.0578 167.343 84.0194 169.611 75.9376 169.611H71.3727V175.683H127.3V169.611H123.251C114.897 169.611 112.873 167.328 112.873 158.988V90.8742C112.873 88.5917 112.873 86.3093 112.629 84.0412C118.184 73.921 126.553 67.3464 136.429 67.3464C148.832 67.3464 156.426 76.4474 156.426 93.6733V158.988C156.426 167.343 154.387 169.611 146.305 169.611H141.741V175.683H197.667V169.611H193.878C185.265 169.611 183.255 167.328 183.255 158.988V90.8742C183.255 65.308 168.843 51.1397 147.827 51.1397C132.137 51.1397 118.471 59.7527 111.122 76.9499C106.829 60.2551 94.1683 51.1397 77.4448 51.1397C62.5014 51.1397 49.6106 59.2359 42.505 75.4282V54.1686H0V60.2407H5.06729C13.6802 60.2407 15.6899 62.5232 15.6899 70.8634V158.945C15.6899 167.3 13.6515 169.568 5.06729 169.568H0V175.654ZM231.344 33.9282C240.445 33.9282 248.039 26.3344 248.039 17.2334C248.039 8.13234 240.445 0.538574 231.344 0.538574C222.243 0.538574 214.649 8.13234 214.649 17.2334C214.635 26.3344 222.229 33.9282 231.344 33.9282ZM203.007 175.654H259.193V169.582H255.403C247.048 169.582 245.024 167.3 245.024 158.96V54.1686H202.491V60.2407H207.558C216.171 60.2407 218.181 62.5232 218.181 70.8634V158.945C218.181 167.3 216.142 169.568 207.558 169.568H202.993V175.64H203.007V175.654ZM300.19 104.296H316.397C312.349 101.77 310.842 98.2239 308.803 91.635L302.731 69.1121C299.946 58.9919 297.664 54.1686 286.524 54.1686H263.241V60.2407H266.542C273.361 60.2407 274.136 62.7672 276.175 70.361L281.486 90.1134C284.271 99.7455 288.577 104.282 300.219 104.282H300.19V104.296ZM337.657 104.296H353.863C365.505 104.296 369.553 99.7312 372.353 90.1277L377.664 70.3753C379.702 62.7816 380.693 60.2551 387.296 60.2551H390.598V54.183H367.572C356.189 54.183 353.906 58.7478 351.366 69.1264L345.294 91.6493C343.241 98.4679 341.705 101.755 337.657 104.296ZM316.397 125.556H337.657V104.296H316.397V125.556ZM263.241 175.683H286.524C297.664 175.683 299.946 170.874 302.731 160.74L308.803 138.217C310.842 131.642 312.349 128.096 316.397 125.556H300.19C288.548 125.556 284.242 130.121 281.457 139.724L276.146 159.476C274.107 167.07 273.361 169.597 266.514 169.597H263.212V175.669H263.241V175.683ZM367.515 175.683H390.54V169.611H387.239C380.664 169.611 379.645 167.084 377.606 159.491L372.295 139.738C369.51 130.106 365.462 125.57 353.806 125.57H337.642C341.69 128.096 343.169 131.398 345.193 138.231L351.265 160.754C353.792 171.133 356.074 175.697 367.472 175.697H367.515V175.683ZM393.842 226.299H452.554V220.226H446.481C438.385 220.226 436.361 217.944 436.361 209.604V161.271C443.711 172.166 456.114 178.741 470.784 178.741C498.374 178.741 520.395 154.452 520.395 112.435C520.395 74.4665 499.652 51.1971 472.808 51.1971C457.118 51.1971 443.955 60.2981 436.361 76.5049V54.226H393.828V60.2981H398.895C407.249 60.2981 409.517 62.5806 409.517 70.9208V209.589C409.517 217.944 407.235 220.212 398.895 220.212H393.828V226.284L393.842 226.299ZM463.191 66.844C479.641 66.844 493.063 82.2756 493.063 112.895C493.063 146.299 480.661 164.529 463.707 164.529C452.812 164.529 443.209 158.701 436.361 148.581V85.8069C442.936 73.4042 452.31 66.8297 463.191 66.8297V66.844ZM560.388 178.21C576.839 178.21 589.988 170.372 599.864 152.643V155.428C599.864 170.616 609.496 177.19 625.43 177.19C630.239 177.19 636.325 176.688 640.373 175.425V169.094C638.335 169.597 636.828 169.855 635.306 169.855C628.976 169.855 626.952 166.065 626.952 159.979V95.1663C626.952 65.2937 610.257 51.1254 582.164 51.1254C563.431 51.1254 545.215 59.7383 533.573 68.8393L537.621 75.9307C549.779 67.5761 561.665 62.7816 574.57 62.7816C591.265 62.7816 599.878 71.8826 599.878 93.1566V98.7119L568.742 110.871C540.406 122.512 530.013 133.393 530.013 149.859C530.013 166.309 541.655 178.195 560.388 178.195V178.21ZM556.598 143.27C556.598 130.609 563.948 121.508 578.877 114.933L599.893 105.832V145.308C592.055 156.203 582.939 162.52 573.063 162.52C563.187 162.52 556.612 155.687 556.612 143.284L556.598 143.27ZM645.426 175.683H703.148V169.611H698.339C689.984 169.611 687.96 167.328 687.96 158.988V83.8115C693.788 73.6913 702.372 67.3608 712.507 67.3608C725.656 67.3608 734.025 76.4618 734.025 93.6877V159.003C734.025 167.357 731.987 169.625 723.905 169.625H719.096V175.697H776.544V169.625H771.477C762.864 169.625 760.854 167.343 760.854 159.003V90.8885C760.854 65.3224 745.667 51.1541 724.149 51.1541C708.459 51.1541 695.295 59.2502 687.946 75.4426V54.183H645.412V60.2551H650.479C659.092 60.2551 661.102 62.5375 661.102 70.8778V158.96C661.102 167.314 659.064 169.582 650.479 169.582H645.412V175.654L645.426 175.683ZM842.333 178.712C859.028 178.712 874.732 171.118 886.13 162.017L882.34 156.462C872.22 163.812 860.822 167.084 850.2 167.084C824.389 167.084 809.202 148.868 809.202 113.44V108.875H889.173C888.671 74.7105 867.655 51.4268 837.036 51.4268C806.417 51.4268 781.856 79.017 781.856 115.464C781.856 155.457 804.637 178.741 842.347 178.741L842.333 178.712ZM837.266 57.7143C852.453 57.7143 861.813 74.165 863.349 102.014H809.704C811.987 73.921 822.609 57.7143 837.294 57.7143H837.266ZM894.714 175.654H953.426V169.582H947.598C939.243 169.582 937.219 167.3 937.219 158.96V3.55312H894.685V9.62525H899.753C908.107 9.62525 910.375 11.9077 910.375 20.2479V158.96C910.375 167.314 908.093 169.582 899.753 169.582H894.685V175.654H894.714Z" fill="#8B95A8"/>
</g>
<defs>
<clipPath id="clip0_2403_19876">
<rect width="953.426" height="225.76" fill="white" transform="translate(0 0.538574)"/>
</clipPath>
</defs>
</svg>
