<svg width="852" height="227" viewBox="0 0 852 227" fill="none" xmlns="http://www.w3.org/2000/svg">
<g clip-path="url(#clip0_2403_19878)">
<mask id="mask0_2403_19878" style="mask-type:luminance" maskUnits="userSpaceOnUse" x="0" y="0" width="852" height="227">
<path d="M851.282 0.323486H0V226.083H851.282V0.323486Z" fill="white"/>
</mask>
<g mask="url(#mask0_2403_19878)">
<path d="M118.953 221.089C110.78 221.089 104.197 214.393 104.311 206.22C104.424 198.048 111.007 191.465 119.18 191.578C127.238 191.578 133.822 198.275 133.822 206.334C133.822 214.393 127.238 221.089 118.953 221.089Z" fill="#8B95A8"/>
<path d="M44.3804 224.949V223.814C44.3804 183.066 77.8641 149.809 118.953 149.809H119.974V179.32H118.953C94.3222 179.206 74.3455 199.07 74.232 223.7V224.722H44.4939V224.949H44.3804Z" fill="#8B95A8"/>
<path d="M196.93 164.791C195.341 164.791 193.865 164.564 192.39 163.997C184.671 161.5 180.358 153.214 182.855 145.495C184.785 139.366 190.574 135.167 197.043 135.28C198.632 135.28 200.108 135.507 201.583 136.075C209.302 138.572 213.615 146.858 211.118 154.576C209.075 160.592 203.4 164.791 196.93 164.791Z" fill="#8B95A8"/>
<path d="M190.801 225.743C151.869 213.257 130.53 171.601 143.015 132.669V132.556L143.356 131.534L171.618 140.615L171.391 141.636C163.787 165.018 176.613 189.989 199.994 197.594H200.108L201.129 197.821L191.936 225.97L190.801 225.743Z" fill="#8B95A8"/>
<path d="M167.078 73.6473C163.9 73.6473 160.835 72.6258 158.338 70.8097C155.16 68.5396 153.004 65.1345 152.436 61.1619C151.755 57.3027 152.777 53.33 155.16 50.1519C157.998 46.2928 162.424 44.0227 167.192 44.0227C170.37 44.0227 173.434 45.0442 175.932 46.8603C179.11 49.1304 181.266 52.5355 181.834 56.5082C182.515 60.3673 181.493 64.34 179.11 67.5181C176.386 71.3772 171.845 73.6473 167.078 73.6473Z" fill="#8B95A8"/>
<path d="M177.521 118.595C161.857 118.595 146.534 113.714 133.822 104.52L132.914 103.839L150.393 80.0032L151.301 80.6843C158.906 86.246 168.1 89.1971 177.521 89.1971C179.904 89.1971 182.288 88.9701 184.558 88.6296C196.249 86.8135 206.805 80.4573 213.729 70.8094L214.41 69.9014L238.473 87.154L237.792 88.062C223.717 107.358 201.243 118.595 177.521 118.595Z" fill="#8B95A8"/>
<path d="M70.713 73.6473C62.5407 73.6473 55.844 67.0641 55.7305 58.8918C55.7305 58.0972 55.7305 57.3027 55.9575 56.5082C56.525 52.649 58.6816 49.1304 61.8597 46.8603C64.3568 45.0442 67.4214 44.0227 70.5995 44.0227C75.3667 44.0227 79.7934 46.2928 82.631 50.1519C84.9011 53.33 85.9226 57.3027 85.3551 61.1619C84.1065 68.4261 77.9773 73.6473 70.713 73.6473Z" fill="#8B95A8"/>
<path d="M85.6958 81.252L86.6038 80.571C106.467 66.383 111.007 38.6879 96.8192 18.8247C96.7057 18.7112 96.7057 18.5977 96.5922 18.4842L95.9112 17.5761L119.974 0.323486L120.655 1.23151C144.718 34.0342 137.567 80.2305 104.651 104.18C104.424 104.293 104.31 104.407 104.083 104.52L103.289 105.201L85.6958 81.252Z" fill="#8B95A8"/>
<path d="M40.8617 164.791C32.6894 164.904 26.1062 158.321 25.9927 150.149C25.9927 143.679 30.0788 137.89 36.3216 135.961C37.7971 135.507 39.3862 135.166 40.9752 135.166C49.1476 135.166 55.7308 141.75 55.7308 149.922C55.7308 156.392 51.6446 162.067 45.5154 163.996C43.9264 164.45 42.4508 164.677 40.8617 164.791Z" fill="#8B95A8"/>
<path d="M66.5135 141.636C60.4978 123.249 43.3586 110.877 23.9494 110.99C19.1822 110.99 14.5285 111.785 10.1019 113.147L9.19384 113.487L0 85.3384L1.02154 84.9979C19.7497 78.9821 40.1805 80.5712 57.7737 89.4245C75.3668 98.2779 88.7604 113.714 94.8896 132.556L95.2301 133.578L66.9675 142.658L66.5135 141.636Z" fill="#8B95A8"/>
<path d="M703.045 119.389C700.548 126.994 698.619 134.826 697.143 142.658H694.987C693.511 134.713 691.581 126.881 689.198 119.162L671.605 67.4045H642.434V69.4476L680.231 164.791H711.672L749.469 69.4476V67.4045H720.525L703.045 119.389Z" fill="#8B95A8"/>
<path d="M823.247 131.307V133.918C823.247 139.48 818.82 147.084 803.838 147.084C789.195 147.084 781.023 138.912 781.023 119.616H850.034C850.715 114.168 851.169 108.607 851.282 103.158C851.282 81.252 834.257 65.5884 804.291 65.5884C768.651 65.5884 753.101 87.8352 753.101 116.211C753.101 148.447 770.354 166.834 803.724 166.834C844.131 166.834 850.601 146.63 850.601 135.507C850.601 134.258 850.374 133.123 850.261 131.875L823.247 131.307ZM804.405 84.2031C815.415 84.2031 824.836 89.7648 824.836 100.775C824.836 101.683 824.836 102.477 824.609 103.385H781.704C782.953 89.9918 791.579 84.2031 804.405 84.2031Z" fill="#8B95A8"/>
<path d="M523.709 67.5179H504.072V90.1053H523.709V164.905H552.539V90.2188H600.097V165.018H628.927V67.6314H552.539V62.5237C552.539 50.0383 554.922 43.3415 573.764 43.3415H628.927V19.9596H570.926C535.626 19.7326 523.709 31.083 523.709 67.5179Z" fill="#8B95A8"/>
<path d="M351.182 67.5183H327.119C322.352 78.0742 313.158 83.6359 298.857 83.6359H287.96V105.996H321.558V141.523H287.96V164.905H384.78V141.41H351.182V67.5183Z" fill="#8B95A8"/>
<path d="M458.103 113.601C445.05 113.601 434.267 118.141 428.933 122.568H427.344L429.954 90.1057H491.701V67.5183H404.983L397.833 142.658H425.187C430.295 136.075 438.24 132.216 446.639 132.329C462.644 132.329 472.745 140.729 472.745 158.208C472.745 172.964 463.552 183.86 448.115 183.86C430.068 183.86 424.052 172.737 424.052 162.181C424.052 161.386 424.052 160.592 424.279 159.797L394.882 160.365C394.655 161.5 394.541 162.748 394.541 163.997C394.541 186.244 411.226 206.675 449.023 206.675C480.804 206.675 504.073 187.946 504.073 157.754C503.846 130.286 486.706 113.601 458.103 113.601Z" fill="#8B95A8"/>
</g>
</g>
<defs>
<clipPath id="clip0_2403_19878">
<rect width="851.282" height="225.76" fill="white" transform="translate(0 0.323486)"/>
</clipPath>
</defs>
</svg>
