<svg width="141" height="140" viewBox="0 0 141 140" fill="none" xmlns="http://www.w3.org/2000/svg">
<path d="M0.431152 32C0.431152 14.3269 14.758 0 32.4312 0H108.431C126.104 0 140.431 14.3269 140.431 32V108C140.431 125.673 126.104 140 108.431 140H32.4312C14.758 140 0.431152 125.673 0.431152 108V32Z" fill="white"/>
<g clip-path="url(#clip0_1506_24708)">
<path d="M78.1056 68.6004L54.3846 64.4004V95.4342C54.3846 96.8515 55.5297 98.0004 56.9423 98.0004H97.8735C99.2861 98.0004 100.431 96.8515 100.431 95.4342V84.0004L78.1056 68.6004Z" fill="#185C37"/>
<path d="M78.1056 42H56.9423C55.5297 42 54.3846 43.1489 54.3846 44.5662V56L78.1056 70L90.6637 74.2L100.431 70V56L78.1056 42Z" fill="#21A366"/>
<path d="M54.3846 56H78.1056V70H54.3846V56Z" fill="#107C41"/>
<path opacity="0.1" d="M71.3618 53.1992H54.3846V88.1992H71.3618C72.7724 88.1946 73.9148 87.0484 73.9194 85.633V55.7654C73.9148 54.3501 72.7724 53.2038 71.3618 53.1992Z" fill="black"/>
<path opacity="0.2" d="M69.9665 54.5996H54.3846V89.5996H69.9665C71.3772 89.595 72.5196 88.4488 72.5242 87.0334V57.1658C72.5196 55.7504 71.3772 54.6042 69.9665 54.5996Z" fill="black"/>
<path opacity="0.2" d="M69.9665 54.5996H54.3846V86.7996H69.9665C71.3772 86.795 72.5196 85.6488 72.5242 84.2334V57.1658C72.5196 55.7504 71.3772 54.6042 69.9665 54.5996Z" fill="black"/>
<path opacity="0.2" d="M68.5712 54.5996H54.3846V86.7996H68.5712C69.9818 86.795 71.1242 85.6488 71.1288 84.2334V57.1658C71.1242 55.7504 69.9818 54.6042 68.5712 54.5996Z" fill="black"/>
<path d="M42.9888 54.5996H68.5711C69.9837 54.5996 71.1288 55.7485 71.1288 57.1658V82.8334C71.1288 84.2507 69.9837 85.3996 68.5711 85.3996H42.9888C41.5763 85.3996 40.4312 84.2507 40.4312 82.8334V57.1658C40.4312 55.7485 41.5763 54.5996 42.9888 54.5996Z" fill="url(#paint0_linear_1506_24708)"/>
<path d="M48.3525 78.3401L53.733 69.9751L48.8032 61.6562H52.7688L55.459 66.9763C55.7074 67.4816 55.8776 67.8568 55.9698 68.1046H56.0046C56.1814 67.7014 56.3674 67.3099 56.5628 66.93L59.4386 61.6591H63.079L58.0237 69.9289L63.2074 78.34H59.3339L56.2265 72.5007C56.0801 72.2522 55.9559 71.9912 55.8553 71.7209H55.8093C55.7183 71.9858 55.5975 72.2394 55.4493 72.4769L52.2498 78.3401H48.3525Z" fill="white"/>
<path d="M97.8735 42H78.1056V56H100.431V44.5662C100.431 43.1489 99.2861 42 97.8735 42Z" fill="#33C481"/>
<path d="M78.1056 70H100.431V84H78.1056V70Z" fill="#107C41"/>
</g>
<defs>
<linearGradient id="paint0_linear_1506_24708" x1="45.764" y1="52.5944" x2="65.8962" y2="87.3468" gradientUnits="userSpaceOnUse">
<stop stop-color="#18884F"/>
<stop offset="0.5" stop-color="#117E43"/>
<stop offset="1" stop-color="#0B6631"/>
</linearGradient>
<clipPath id="clip0_1506_24708">
<rect width="60" height="56" fill="white" transform="translate(40.4312 42)"/>
</clipPath>
</defs>
</svg>
