<svg width="141" height="140" viewBox="0 0 141 140" fill="none" xmlns="http://www.w3.org/2000/svg">
<path d="M0.431885 32C0.431885 14.3269 14.7588 0 32.4319 0H108.431C126.104 0 140.431 14.3269 140.431 32V108C140.431 125.673 126.104 140 108.431 140H32.4319C14.7588 140 0.431885 125.673 0.431885 108V32Z" fill="white"/>
<path d="M77.4325 70.0132C77.4327 72.0321 77.0682 74.0344 76.3565 75.9238C74.4666 76.6355 72.4637 77.0003 70.4442 77.0007H70.4196C68.4001 77.0009 66.3971 76.6364 64.5072 75.9247C63.7944 74.035 63.4293 72.032 63.4295 70.0123V69.9859C63.4295 67.9052 63.8113 65.9124 64.5028 64.0736C66.3931 63.3608 68.3968 62.9963 70.4169 62.9976H70.4398C72.5214 62.9976 74.5133 63.3794 76.3521 64.0736C77.0646 65.9633 77.4291 67.9664 77.4282 69.9859V70.0123H77.4308L77.4325 70.0132ZM98.043 65.3326H81.6996L93.2551 53.7763C91.438 51.2244 89.2071 48.9941 86.6547 47.1777L75.0975 58.734V42.3898C73.5608 42.1313 72.0052 42.0009 70.4468 42H70.4169C68.8315 42 67.2786 42.1355 65.7654 42.3898V58.734L54.2055 47.1768C52.9325 48.0829 51.7376 49.0941 50.6335 50.1998L50.6282 50.2051C49.5241 51.31 48.5139 52.5048 47.6078 53.7772L59.1677 65.3326H42.8207C42.8207 65.3326 42.4319 68.4031 42.4319 69.9903V70.0097C42.4319 71.5969 42.5665 73.1524 42.8216 74.6665H59.1685L47.6069 86.2211C49.4253 88.7727 51.6563 91.0033 54.2082 92.8214L65.7662 81.266V97.6111C67.2778 97.8645 68.828 97.9982 70.4117 98H70.4512C72.0078 97.9986 73.5615 97.8685 75.0966 97.6111V81.266L86.6556 92.8241C87.9288 91.9171 89.1245 90.906 90.2303 89.801H90.2329C91.3365 88.695 92.3464 87.4993 93.2524 86.2264L81.697 74.6674H98.0439C98.2973 73.1541 98.431 71.6039 98.431 70.0202V69.9798C98.431 68.4225 98.3008 66.8696 98.0439 65.3344L98.043 65.3326Z" fill="#FF4A00"/>
</svg>
