<svg width="259" height="173" viewBox="0 0 259 173" fill="none" xmlns="http://www.w3.org/2000/svg">
<g clip-path="url(#clip0_1047_28943)">
<rect width="258" height="172" transform="translate(0.347595 0.942505)" fill="#C2B6E4"/>
<g filter="url(#filter0_f_1047_28943)">
<path d="M1040.38 -111.736C1694.88 113.261 1766.96 907.848 1473.58 1322.84C1153.39 1717.42 826.998 1880.27 313.012 1685.04C-368.992 1470.36 -465.386 656.385 -172.011 241.406C60.5863 -87.6055 496.503 -298.703 1040.38 -111.736Z" fill="#9C89D4"/>
<path d="M1044.98 -110.369C1699.49 114.628 1771.57 909.215 1478.19 1324.21C1158 1718.79 831.608 1881.64 317.621 1686.41C-364.382 1471.73 -460.777 657.753 -167.401 242.773C65.1956 -86.2383 501.112 -297.336 1044.98 -110.369Z" fill="url(#paint0_linear_1047_28943)"/>
</g>
<path d="M132.041 74.0341C132.041 74.0341 126.534 72.1892 126.512 67.3553C126.495 62.5209 130.025 59.2552 132.365 58.5285C134.705 57.8018 141.288 58.3274 141.288 58.3274L132.041 74.0341Z" fill="#FF3C00"/>
<path d="M142.603 96.6268C155.249 96.5422 165.758 96.1582 165.758 96.1582L164.198 62.4807L141.288 58.3275C141.288 58.3275 134.829 58.9971 132.63 65.7532C130.36 72.7148 129.745 75.2358 129.745 75.2358L123.858 74.3939C123.858 74.3939 123.215 82.1965 126.155 87.2074C130.02 93.8051 135.112 96.6795 142.603 96.6268Z" fill="url(#paint1_linear_1047_28943)"/>
<path d="M228.686 241.214C231.848 239.872 233.898 239.005 233.898 239.005C233.898 239.005 225.931 185.462 216.045 163.256C206.16 141.05 189.894 120.722 167.626 110.975C168.563 107.475 169.501 103.976 170.438 100.476L129.509 100.884L128.638 108.226C104.645 119.15 85.4231 126.472 61.4816 137.363C64.3736 121.499 66.6966 105.528 68.4184 89.4947C59.2635 88.5258 50.1086 87.557 40.9537 86.5882L66.4296 87.1191C66.4296 87.1191 70.8863 64.6478 71.5772 55.9689C72.2814 47.1964 67.6617 49.2843 66.5612 54.2345C65.5174 58.9299 61.1324 70.2646 61.1324 70.2646C61.1324 70.2646 52.4262 70.199 46.0277 73.7621C39.6292 77.3252 39.3779 86.5533 39.3779 86.5533L39.9876 86.5639C35.0814 100.387 32.6882 115.102 32.9681 129.766C33.152 139.456 35.0319 148.873 41.0642 156.454C49.9215 167.582 66.1809 170.821 79.783 166.658C93.3846 162.491 111.597 146.727 111.597 146.727C111.817 147.068 112.038 147.414 112.263 147.764C117.764 156.4 124.162 167.507 129.586 175.939L130.128 176.229C130.128 176.229 117.133 181.444 107.144 196.979C97.393 212.143 93.7587 226.406 93.8643 255.398C93.9798 287.376 82.9579 308.735 82.7661 334.858C82.5743 360.981 96.4957 374.042 86.9645 384.697C79.2429 393.331 77.366 399.952 77.366 399.952L112.594 397.024L144.643 230.554C144.643 230.554 166.891 389.224 169.118 389.717C171.345 390.21 207.29 387.212 207.29 387.212C207.29 387.212 206.769 382.19 202.314 381.2C197.86 380.209 194.636 371.844 193.4 366.896C192.163 361.948 190.889 277.967 190.388 259.167C189.891 240.368 183.326 212.04 175.236 196.928C167.142 181.815 161.873 172.934 161.873 172.934L168.891 141.585C180.546 150.266 187.753 163.88 191.4 177.945C195.049 192.016 197.688 203.06 198.415 219.42C198.926 230.879 200.606 241.534 200.928 252.999C202.39 252.377 206.646 251.632 206.646 251.632C207.876 258.645 206.309 267.544 210.455 267.963C212.817 268.202 213.43 259.038 213.368 257.993C213.436 259.139 214.355 270.855 221.317 274.812C228.509 278.903 235.02 274.116 230.418 250.666C229.191 244.435 228.8 242.088 228.686 241.214Z" fill="url(#paint2_linear_1047_28943)"/>
<path d="M137.679 58.4663C137.679 58.4663 140.08 60.6332 141.911 71.3188C143.743 82.0045 142.603 96.6265 142.603 96.6265L182.118 95.4301C182.118 95.4301 179.026 93.5746 179.073 87.0462C179.119 80.5133 177.535 58.2026 162.097 56.1747C146.66 54.1514 137.679 58.4663 137.679 58.4663Z" fill="#FF3C00"/>
<path d="M168.589 141.344C180.245 150.025 187.451 163.639 191.099 177.704C194.747 191.775 197.386 202.819 198.114 219.179C198.624 230.638 200.305 241.293 200.626 252.758C211.88 247.958 233.595 238.76 233.595 238.76C233.595 238.76 225.629 185.217 215.743 163.011C205.858 140.805 189.592 120.477 167.324 110.729C168.261 107.23 169.199 103.73 170.136 100.231L129.207 100.638L128.336 107.98C104.224 118.958 84.9346 126.296 60.8228 137.279C58.4981 138.336 55.9172 139.677 55.2275 142.142C54.5374 144.601 57.6948 147.575 59.54 145.807C63.2152 127.091 66.0761 108.215 68.1163 89.2491C58.6491 88.2481 49.182 87.2471 39.7149 86.2461C34.7883 100.094 32.3882 114.833 32.6669 129.529C32.8508 139.219 34.7306 148.637 40.7629 156.218C49.6203 167.346 65.8797 170.584 79.4818 166.422C93.0834 162.255 111.296 146.49 111.296 146.49C111.516 146.832 111.736 147.178 111.962 147.528C117.463 156.164 123.86 167.271 129.285 175.703L161.978 172.614L168.589 141.344Z" fill="white"/>
<path d="M111.602 146.731C117.246 155.5 123.942 167.171 129.586 175.94C129.586 175.94 116.274 182.502 107.139 196.984C98.0048 211.467 97.2833 223.141 97.2833 223.141" stroke="#323232" stroke-width="1.26" stroke-miterlimit="10" stroke-linecap="round" stroke-linejoin="round"/>
<path d="M136.455 60.0405C136.455 60.0405 135.284 60.4015 132.635 65.7521C129.985 71.1026 129.75 75.2347 129.75 75.2347L124.021 75.3445C124.021 75.3445 123.031 79.7992 126.159 87.2063C130.818 98.2582 142.603 96.6216 142.603 96.6216L141.676 101.07L129.513 100.878L128.642 108.221C104.53 119.198 85.2404 126.537 61.1286 137.519C58.804 138.576 56.223 139.918 55.5334 142.382C54.8433 144.842 58.0007 147.815 59.8459 146.047C63.521 127.331 66.3819 108.455 68.4222 89.4895C58.955 88.4885 49.4879 87.4875 40.0207 86.4865C35.0941 100.335 32.6941 115.073 32.9728 129.77C33.1567 139.46 35.0365 148.877 41.0688 156.458C49.9261 167.586 66.1856 170.825 79.7877 166.662C93.3893 162.495 101.595 155.864 112.031 146.202" stroke="#323232" stroke-width="1.26" stroke-miterlimit="10" stroke-linecap="round" stroke-linejoin="round"/>
<path d="M133.346 76.5727L138.202 74.5893" stroke="#323232" stroke-width="0.56" stroke-miterlimit="10" stroke-linecap="round" stroke-linejoin="round"/>
<path d="M127.114 84.9909C131.28 84.7481 134.049 83.4929 134.049 83.4929" stroke="#323232" stroke-width="0.56" stroke-miterlimit="10" stroke-linecap="round" stroke-linejoin="round"/>
<path d="M162.054 167.12C166.006 155.434 166.286 150.569 169.424 138.639C170.301 135.312 170.029 130.329 166.591 130.164C163.959 130.041 162.481 133.569 163.445 136.018C164.409 138.468 166.773 140.016 168.886 141.59C180.542 150.271 187.748 163.885 191.396 177.951C195.045 192.021 197.679 203.066 198.411 219.426C198.921 230.884 200.602 241.54 200.924 253.004C212.178 248.205 233.888 239.007 233.888 239.007C233.888 239.007 225.922 185.464 216.036 163.258C206.15 141.051 189.885 120.724 167.617 110.976C168.554 107.477 169.491 103.977 170.429 100.478L150.991 100.109" stroke="#323232" stroke-width="1.26" stroke-miterlimit="10" stroke-linecap="round" stroke-linejoin="round"/>
<path d="M61.4513 70.2311C60.8352 76.7401 60.7802 79.3229 60.7802 79.3229" stroke="#323232" stroke-width="0.56" stroke-miterlimit="10" stroke-linecap="round" stroke-linejoin="round"/>
<path d="M57.0239 71.0125C56.4078 77.5215 56.1155 79.3268 56.1155 79.3268" stroke="#323232" stroke-width="0.56" stroke-miterlimit="10" stroke-linecap="round" stroke-linejoin="round"/>
<path d="M51.953 71.8616C51.4581 76.4264 51.309 78.8576 51.309 78.8576" stroke="#323232" stroke-width="0.56" stroke-miterlimit="10" stroke-linecap="round" stroke-linejoin="round"/>
<path d="M47.0517 74.3055L46.4291 78.3948" stroke="#323232" stroke-width="0.56" stroke-miterlimit="10" stroke-linecap="round" stroke-linejoin="round"/>
</g>
<defs>
<filter id="filter0_f_1047_28943" x="-906.62" y="-759.952" width="3127.64" height="3107.14" filterUnits="userSpaceOnUse" color-interpolation-filters="sRGB">
<feFlood flood-opacity="0" result="BackgroundImageFix"/>
<feBlend mode="normal" in="SourceGraphic" in2="BackgroundImageFix" result="shape"/>
<feGaussianBlur stdDeviation="289.091" result="effect1_foregroundBlur_1047_28943"/>
</filter>
<linearGradient id="paint0_linear_1047_28943" x1="-96.5306" y1="-77.3337" x2="1095.67" y2="1301.22" gradientUnits="userSpaceOnUse">
<stop stop-color="white"/>
<stop offset="1" stop-color="white" stop-opacity="0"/>
</linearGradient>
<linearGradient id="paint1_linear_1047_28943" x1="124.042" y1="80.3023" x2="165.6" y2="75.9942" gradientUnits="userSpaceOnUse">
<stop stop-color="#FFCCDD"/>
<stop offset="1" stop-color="#FFE05E"/>
</linearGradient>
<linearGradient id="paint2_linear_1047_28943" x1="42.9388" y1="228.492" x2="230.787" y2="209.019" gradientUnits="userSpaceOnUse">
<stop stop-color="#FFCCDD"/>
<stop offset="1" stop-color="#FFE05E"/>
</linearGradient>
<clipPath id="clip0_1047_28943">
<rect width="258" height="172" fill="white" transform="translate(0.347595 0.942505)"/>
</clipPath>
</defs>
</svg>
