<svg width="141" height="140" viewBox="0 0 141 140" fill="none" xmlns="http://www.w3.org/2000/svg">
<rect x="0.68457" width="140" height="140" rx="16" fill="white"/>
<g clip-path="url(#clip0_1006_27117)">
<path d="M42.6171 94.0001H52.7989V69.2729L38.2534 58.3638V89.6365C38.2534 92.051 40.2098 94.0001 42.6171 94.0001Z" fill="#4285F4"/>
<path d="M87.708 94.0001H97.8898C100.304 94.0001 102.253 92.0438 102.253 89.6365V58.3638L87.708 69.2729" fill="#34A853"/>
<path d="M87.708 50.3638V69.2729L102.253 58.3638V52.5456C102.253 47.1493 96.0935 44.0729 91.7807 47.3093" fill="#FBBC04"/>
<path d="M52.7988 69.2729V50.3638L70.2534 63.4547L87.7079 50.3638V69.2729L70.2534 82.3638" fill="#EA4335"/>
<path d="M38.2534 52.5456V58.3638L52.7989 69.2729V50.3638L48.7261 47.3093C44.4061 44.0729 38.2534 47.1493 38.2534 52.5456" fill="#C5221F"/>
</g>
<defs>
<clipPath id="clip0_1006_27117">
<rect width="64" height="48" fill="white" transform="translate(38.2534 46)"/>
</clipPath>
</defs>
</svg>
