<svg width="141" height="140" viewBox="0 0 141 140" fill="none" xmlns="http://www.w3.org/2000/svg">
<rect x="0.253418" width="140" height="140" rx="16" fill="white"/>
<path d="M84.636 60.5056V53.8649C85.5145 53.4537 86.2583 52.8017 86.7811 51.9848C87.304 51.1679 87.5845 50.2195 87.5901 49.2496V49.0932C87.5864 47.7377 87.0464 46.4386 86.0881 45.4799C85.1297 44.5211 83.831 43.9806 82.4754 43.9762H82.319C80.9635 43.9799 79.6644 44.5199 78.7057 45.4782C77.7469 46.4365 77.2064 47.7353 77.2021 49.0909V49.2472C77.2063 50.2118 77.4828 51.1555 77.9996 51.9699C78.5164 52.7843 79.2525 53.4363 80.1234 53.8509L80.1537 53.8649V60.5196C77.6147 60.9075 75.2241 61.9623 73.2261 63.5762L73.2541 63.5552L54.9887 49.3312C55.3361 48.0283 55.2208 46.6452 54.6624 45.4177C54.1041 44.1903 53.1372 43.1945 51.9268 42.6002C50.7163 42.0059 49.3372 41.8499 48.0245 42.1588C46.7119 42.4677 45.5471 43.2223 44.7286 44.294C43.9102 45.3657 43.4888 46.6881 43.5363 48.0357C43.5839 49.3834 44.0974 50.6728 44.9894 51.6841C45.8814 52.6955 47.0965 53.3661 48.4277 53.5817C49.7588 53.7972 51.1235 53.5444 52.2891 52.8662L52.2611 52.8802L70.2184 66.8592C68.6307 69.2396 67.7876 72.0387 67.7964 74.8999C67.7964 78.0336 68.7881 80.9386 70.4727 83.3139L70.4424 83.2696L64.9777 88.7342C64.5402 88.593 64.0841 88.5183 63.6244 88.5126H63.6197C62.6815 88.5126 61.7644 88.7908 60.9843 89.312C60.2042 89.8333 59.5962 90.5741 59.2371 91.4409C58.8781 92.3077 58.7842 93.2615 58.9672 94.1817C59.1502 95.1019 59.602 95.9471 60.2654 96.6105C60.9289 97.2739 61.7741 97.7257 62.6943 97.9088C63.6145 98.0918 64.5683 97.9978 65.435 97.6388C66.3018 97.2798 67.0427 96.6718 67.5639 95.8917C68.0852 95.1116 68.3634 94.1944 68.3634 93.2562C68.3578 92.7844 68.2799 92.3161 68.1324 91.8679L68.1417 91.9006L73.5481 86.4942C75.31 87.8396 77.3557 88.7654 79.5294 89.2011C81.703 89.6368 83.9474 89.571 86.0918 89.0086C88.2362 88.4462 90.2241 87.4021 91.9042 85.9557C93.5842 84.5093 94.9123 82.6988 95.7872 80.6618C96.6622 78.6249 97.061 76.4152 96.9533 74.2009C96.8455 71.9866 96.2342 69.8261 95.1657 67.8837C94.0972 65.9412 92.5997 64.2681 90.7872 62.9916C88.9747 61.7151 86.8949 60.8689 84.7061 60.5172L84.6221 60.5056H84.636ZM82.3867 82.3852C80.908 82.3815 79.4635 81.9397 78.2358 81.1155C77.0081 80.2912 76.0521 79.1216 75.4888 77.7544C74.9255 76.3872 74.78 74.8836 75.0707 73.4338C75.3615 71.9839 76.0754 70.6527 77.1223 69.6084C78.1693 68.5641 79.5022 67.8534 80.9528 67.5663C82.4034 67.2792 83.9066 67.4284 85.2724 67.9951C86.6382 68.5619 87.8055 69.5207 88.6266 70.7505C89.4478 71.9803 89.886 73.4258 89.886 74.9046V74.9092C89.886 76.8932 89.0979 78.796 87.695 80.1989C86.2921 81.6018 84.3894 82.3899 82.4054 82.3899L82.3867 82.3852Z" fill="#FF7A59"/>
</svg>
