<svg width="141" height="140" viewBox="0 0 141 140" fill="none" xmlns="http://www.w3.org/2000/svg">
<path d="M0.431946 32C0.431946 14.3269 14.7588 0 32.4319 0H108.432C126.105 0 140.432 14.3269 140.432 32V108C140.432 125.673 126.105 140 108.432 140H32.4319C14.7588 140 0.431946 125.673 0.431946 108V32Z" fill="white"/>
<path d="M61.0859 72.7422V79.485C71.4197 79.485 79.8159 71.066 79.8159 60.666H73.1293C73.0913 67.3327 67.7345 72.7041 61.0859 72.7422Z" fill="#3BE081"/>
<path d="M61.0859 91.2946C54.4754 91.2946 49.1565 85.9232 49.1565 79.3328C49.1565 72.7423 54.4754 67.3328 61.0859 67.3328V60.6661C50.7902 60.6281 42.4699 68.9709 42.4319 79.2947C42.4319 89.6184 50.7522 97.9613 61.01 97.9994H61.0859V91.2946Z" fill="#0037FF"/>
<path d="M61.0859 91.2959V98.0006C71.3817 98.0006 79.7019 89.6578 79.7019 79.334H73.0153C73.0153 85.9244 67.6585 91.2959 61.0859 91.2959Z" fill="#00CCFF"/>
<path d="M61.0859 53.9619V60.6666C71.3817 60.6666 79.7019 52.3238 79.7019 42H73.0153C73.0153 48.5905 67.6585 53.9619 61.0859 53.9619Z" fill="#861DFF"/>
<path d="M79.8159 53.9619V60.6666C90.1117 60.6666 98.4319 52.3238 98.4319 42H91.7454C91.7454 48.5905 86.3885 53.9619 79.8159 53.9619Z" fill="#FC7F10"/>
</svg>
