<svg width="96" height="32" viewBox="0 0 96 32" fill="none" xmlns="http://www.w3.org/2000/svg">
<path d="M45.465 24.8365H48.5238V11.477H45.465V24.8365ZM56.6545 16.9411C55.0859 16.4444 53.648 16.0261 53.648 15.0587V15.0064C53.648 14.2221 54.3277 13.6731 55.5303 13.6731C56.1055 13.6731 56.7591 13.8038 57.4388 14.0391C57.4388 14.0391 57.4388 14.0391 57.465 14.0391C57.5172 14.0653 57.5695 14.0914 57.648 14.1176C58.1447 14.2744 59.4257 14.4836 60.5499 12.7581C59.1382 11.8169 57.3081 11.2417 55.6349 11.2417C52.9682 11.2417 50.8767 12.7842 50.8767 15.3202V15.3725C50.8767 17.9346 53.0728 18.745 55.0597 19.294C56.6283 19.7646 58.0401 20.1306 58.0401 21.1764V21.2287C58.0401 22.1176 57.2819 22.6666 55.9748 22.6666C55.112 22.6666 54.1447 22.4313 53.1774 21.9868C52.8898 21.8823 51.478 21.3855 50.2493 23.111C51.9225 24.4182 53.9878 25.0979 55.8963 25.0979C58.6676 25.0979 60.8636 23.7123 60.8636 20.8888V20.8365C60.8114 18.4313 58.6153 17.5424 56.6545 16.9411ZM37.1251 21.3071L33.5434 11.477H30.2493L35.7395 24.9411H38.4846L43.9486 11.477H40.7329L37.1251 21.3071ZM75.0336 11.1895C70.929 11.1895 67.8963 14.3528 67.8963 18.196C67.8963 22.013 70.9029 25.1241 74.9813 25.1241C79.112 25.1241 82.1447 21.9607 82.1447 18.1437C82.1447 14.3006 79.112 11.1895 75.0336 11.1895ZM75.0336 22.4836C72.6545 22.4836 70.9551 20.5228 70.9551 18.1437C70.9551 15.7908 72.5238 13.8561 74.9813 13.8561C77.3865 13.8561 79.0859 15.8169 79.0859 18.196C79.0597 20.5751 77.4911 22.4836 75.0336 22.4836ZM91.2166 11.1895C89.1512 11.1895 87.8963 12.2875 87.0336 13.5424V11.477H83.9748V24.8365H87.0336V17.3071C87.0336 15.2417 88.2623 13.9868 90.0401 13.9868C91.8702 13.9868 92.8898 15.1633 92.8898 17.2548V24.8365H95.9486V16.3398C95.9748 13.2287 94.2231 11.1895 91.2166 11.1895ZM62.8244 24.8365H65.8832V11.477H62.8244V24.8365Z" fill="black" fill-opacity="0.89"/>
<path fill-rule="evenodd" clip-rule="evenodd" d="M29.648 0H3.45189C1.85712 0 0.549927 1.30719 0.549927 2.90196V29.098C0.549927 30.6928 1.85712 32 3.45189 32H29.648C31.2427 32 32.5499 30.6928 32.5499 29.098V2.90196C32.5499 1.30719 31.2427 0 29.648 0ZM11.2427 10.0657C12.3146 10.0657 13.2035 9.22911 13.2035 8.13107C13.2035 7.03303 12.3146 6.19643 11.2427 6.19643C10.1708 6.19643 9.28193 7.03303 9.28193 8.13107C9.28193 9.22911 10.1708 10.0657 11.2427 10.0657ZM7.00754 21.83C7.00754 21.4117 7.08597 20.8888 7.19055 20.3921L8.68074 14.4052H6.40623L7.08597 11.8692H12.5239L10.3801 20.4182C10.2232 20.9673 10.1709 21.4117 10.1709 21.7254C10.1709 22.2744 10.4324 22.4313 10.8507 22.5359C11.086 22.5882 13.1252 22.562 14.2494 20.0784L15.6611 14.4052H13.3605L14.0402 11.8692H18.9552L18.3278 14.7712C19.1905 13.1503 20.916 11.6339 22.6154 11.6339C24.4193 11.6339 25.9095 12.915 25.9095 15.3986C25.9095 16.0261 25.8311 16.7058 25.5958 17.4901L24.6807 20.7843C24.6023 21.1241 24.55 21.4117 24.55 21.6731C24.55 22.2483 24.7853 22.5359 25.2036 22.5359C25.6481 22.5359 26.1971 22.2222 26.8245 20.4705L28.0794 20.9673C27.3474 23.5816 25.9879 24.6797 24.2886 24.6797C22.3017 24.6797 21.3605 23.5032 21.3605 21.8823C21.3605 21.4117 21.4389 20.9411 21.5696 20.4444L22.5108 17.0457C22.6154 16.6535 22.6415 16.3137 22.6415 15.9999C22.6415 14.9019 21.9879 14.2483 20.916 14.2483C19.5827 14.2483 18.6938 15.2418 18.2232 17.098L16.3932 24.4705H13.1775L13.7526 22.1437C12.8115 23.6862 11.5043 24.6535 9.88336 24.6535C7.92257 24.6535 7.00754 23.5293 7.00754 21.83Z" fill="black" fill-opacity="0.89"/>
</svg>
