<svg width="141" height="140" viewBox="0 0 141 140" fill="none" xmlns="http://www.w3.org/2000/svg">
<path d="M0.431152 32C0.431152 14.3269 14.758 0 32.4312 0H108.431C126.104 0 140.431 14.3269 140.431 32V108C140.431 125.673 126.104 140 108.431 140H32.4312C14.758 140 0.431152 125.673 0.431152 108V32Z" fill="white"/>
<path d="M96.5141 68.4322L72.4157 44.3338L70.0802 42L43.648 68.4322C42.784 69.2986 42.784 70.7012 43.648 71.5659L60.2212 88.1384L70.0802 97.9998L96.5141 71.5659C97.3788 70.7012 97.3788 69.2986 96.5141 68.4322V68.4322ZM70.0802 78.2771L61.8028 70.0002L70.0802 61.7204L78.3594 70.0002L70.0802 78.2771Z" fill="#2684FF"/>
<path d="M70.0802 61.7201C64.661 56.2985 64.6333 47.5178 70.0225 42.0645L51.9049 60.175L61.7663 70.0364L70.0802 61.7201Z" fill="url(#paint0_linear_1506_24712)"/>
<path d="M78.3824 69.9766L70.0802 78.277C72.6965 80.8909 74.168 84.439 74.168 88.1383C74.168 91.8376 72.6965 95.3834 70.0802 97.9997L88.2414 79.8379L78.3824 69.9766V69.9766Z" fill="url(#paint1_linear_1506_24712)"/>
<defs>
<linearGradient id="paint0_linear_1506_24712" x1="66.5221" y1="55.4267" x2="57.042" y2="64.9045" gradientUnits="userSpaceOnUse">
<stop stop-color="#0052CC"/>
<stop offset="1" stop-color="#2684FF"/>
</linearGradient>
<linearGradient id="paint1_linear_1506_24712" x1="73.7407" y1="84.4805" x2="83.2019" y2="75.0193" gradientUnits="userSpaceOnUse">
<stop stop-color="#0052CC"/>
<stop offset="1" stop-color="#2684FF"/>
</linearGradient>
</defs>
</svg>
