<svg width="16" height="16" viewBox="0 0 16 16" fill="none" xmlns="http://www.w3.org/2000/svg">
<path d="M12.5 6.98603C12.3674 6.98603 12.2402 7.0386 12.1464 7.13219C12.0527 7.22576 12 7.35268 12 7.48503C12 11.1078 7.16 13.9421 6.5 13.9721C5.84 14.002 1 11.1078 1 7.48503V1.49701C1 1.36466 1.05268 1.23773 1.14645 1.14416C1.24021 1.05058 1.36739 0.998004 1.5 0.998004H11.5C11.6326 0.998004 11.7598 1.05058 11.8536 1.14416C11.9473 1.23773 12 1.36466 12 1.49701C12 1.62935 12.0527 1.75628 12.1464 1.84985C12.2402 1.94343 12.3674 1.99601 12.5 1.99601C12.6326 1.99601 12.7598 1.94343 12.8536 1.84985C12.9473 1.75628 13 1.62935 13 1.49701C13 1.09998 12.842 0.719206 12.5607 0.438463C12.2794 0.15772 11.8978 0 11.5 0H1.5C1.10218 0 0.72064 0.15772 0.43934 0.438463C0.15804 0.719206 0 1.09998 0 1.49701V7.51497C0 11.6367 5.225 15 6.5 15C7.775 15 13 11.6367 13 7.48503C13 7.35268 12.9473 7.22576 12.8536 7.13219C12.7598 7.0386 12.6326 6.98603 12.5 6.98603Z" fill="#FF3C00"/>
<path d="M14.8549 2.14071C14.8085 2.09394 14.7532 2.05682 14.6922 2.03148C14.6313 2.00615 14.5659 1.9931 14.4999 1.9931C14.4339 1.9931 14.3686 2.00615 14.3077 2.03148C14.2467 2.05682 14.1914 2.09394 14.1449 2.14071L6.79495 9.48103C6.59995 9.67564 5.79495 10.7835 5.99995 10.9781C6.20495 11.1727 7.30494 10.3793 7.49994 10.1846L14.8549 2.84929C14.9018 2.8029 14.939 2.74771 14.9644 2.68691C14.9898 2.6261 15.0028 2.56088 15.0028 2.495C15.0028 2.42912 14.9898 2.3639 14.9644 2.30309C14.939 2.24228 14.9018 2.1871 14.8549 2.14071Z" fill="#FF3C00"/>
<path d="M9 3.49302C9 3.36068 8.94732 3.23375 8.85355 3.14018C8.75979 3.04659 8.63261 2.99402 8.5 2.99402H3.5C3.36739 2.99402 3.24021 3.04659 3.14645 3.14018C3.05268 3.23375 3 3.36068 3 3.49302C3 3.62537 3.05268 3.75229 3.14645 3.84586C3.24021 3.93945 3.36739 3.99202 3.5 3.99202H8.5C8.63261 3.99202 8.75979 3.93945 8.85355 3.84586C8.94732 3.75229 9 3.62537 9 3.49302Z" fill="#FF3C00"/>
<path d="M3.5 5.98804C3.36739 5.98804 3.24021 6.04061 3.14645 6.13419C3.05268 6.22777 3 6.35469 3 6.48704C3 6.61938 3.05268 6.74631 3.14645 6.83988C3.24021 6.93347 3.36739 6.98604 3.5 6.98604H6.5C6.63261 6.98604 6.75979 6.93347 6.85355 6.83988C6.94732 6.74631 7 6.61938 7 6.48704C7 6.35469 6.94732 6.22777 6.85355 6.13419C6.75979 6.04061 6.63261 5.98804 6.5 5.98804H3.5Z" fill="#FF3C00"/>
</svg>
