<svg width="24" height="24" viewBox="0 0 24 24" fill="none" xmlns="http://www.w3.org/2000/svg">
<path fill-rule="evenodd" clip-rule="evenodd" d="M5.94035 4C7.01009 4 7.87879 4.84328 7.87879 5.88219C7.87879 6.92142 7.01009 7.76471 5.94035 7.76471C4.86629 7.76471 4 6.92142 4 5.88219C4 4.84328 4.86629 4 5.94035 4ZM4.48485 20H7.39394V8.95686H4.48485V20Z" fill="white" fill-opacity="0.89"/>
<path fill-rule="evenodd" clip-rule="evenodd" d="M9.33337 8.97952H12.6126V10.486H12.6595C13.1156 9.61964 14.2325 8.70593 15.8969 8.70593C19.36 8.70593 20.0001 10.9879 20.0001 13.956V20.0001H16.5802V14.6408C16.5802 13.3628 16.5576 11.7187 14.8019 11.7187C13.0217 11.7187 12.7502 13.1115 12.7502 14.5493V20.0001H9.33337V8.97952Z" fill="white" fill-opacity="0.89"/>
</svg>
