<svg width="258" height="173" viewBox="0 0 258 173" fill="none" xmlns="http://www.w3.org/2000/svg">
<g clip-path="url(#clip0_1026_34643)">
<rect width="258" height="172" transform="translate(0 0.942505)" fill="#C2B6E4"/>
<g filter="url(#filter0_f_1026_34643)">
<path d="M1040.03 -111.736C1694.53 113.261 1766.61 907.848 1473.23 1322.84C1153.04 1717.42 826.651 1880.27 312.664 1685.04C-369.339 1470.36 -465.734 656.385 -172.358 241.406C60.2387 -87.6055 496.155 -298.703 1040.03 -111.736Z" fill="#9C89D4"/>
<path d="M1044.64 -110.369C1699.14 114.628 1771.22 909.215 1477.84 1324.21C1157.65 1718.79 831.26 1881.64 317.274 1686.41C-364.73 1471.73 -461.124 657.753 -167.749 242.773C64.848 -86.2383 500.765 -297.336 1044.64 -110.369Z" fill="url(#paint0_linear_1026_34643)"/>
</g>
<path d="M125.958 73.6891C127.634 72.8942 128.669 71.0239 128.423 69.2938C128.176 67.5171 126.697 65.974 124.873 65.6C125.908 64.0102 125.12 61.7658 123.493 60.7839C121.866 59.7552 119.647 59.8955 117.921 60.6904C115.752 61.6723 114.076 63.9167 114.371 66.2078C114.519 67.143 114.963 68.0314 114.717 68.9665C114.47 69.9485 113.583 70.6031 113.09 71.4447C112.005 73.2683 112.843 75.6062 113.878 77.4297C116.491 82.1055 128.521 79.9546 125.958 73.6891Z" fill="#323232"/>
<path d="M80.4215 204.071L80.668 203.417L89.0989 179.477L84.0206 174.193L83.922 174.1L81.802 175.222L79.3861 176.484L79.2875 176.531L78.2521 198.086L78.4494 202.482C67.2082 193.598 57.1899 187.098 51.6187 174.1C51.7173 169.658 54.0935 160.633 56.0656 156.378C59.6648 148.523 68.4901 134.823 76.7237 126.968C80.175 123.695 83.6262 120.842 86.5844 118.131C86.8802 117.85 87.1761 117.569 87.5212 117.289C88.31 116.541 89.0989 115.793 89.8384 115.045L89.8877 114.998C90.1343 114.764 90.3315 114.53 90.578 114.25C91.2682 113.501 91.9092 112.753 92.5008 111.958C92.5008 111.958 92.5008 111.958 92.5008 111.912C92.6487 111.725 92.7966 111.538 92.8952 111.351C92.9446 111.257 92.9939 111.21 93.0432 111.117C94.0785 109.574 94.8674 108.031 95.3604 106.348C95.6069 105.553 95.7548 104.711 95.8535 103.823V103.776C95.9028 103.355 95.9521 102.887 96.0014 102.42C96.0014 102.093 96.0507 101.812 96.0507 101.532C92.2543 98.0714 90.578 94.097 90.1343 87.6912C89.5919 80.3502 90.6273 78.3864 95.8041 73.9444C100.636 69.8297 112.222 69.97 113.751 70.0167C113.849 70.0167 113.898 70.0167 113.898 70.0167C113.898 70.0167 115.082 72.1208 116.709 74.5522C117.892 76.3758 119.322 78.3864 120.653 79.8359C123.759 83.2492 128.394 81.2854 128.394 83.2492C128.394 85.213 126.323 87.1769 126.323 87.1769L126.816 92.0397L120.259 91.7124C120.259 91.7124 119.963 93.3021 121.541 94.7516C123.069 96.2011 126.224 96.0608 126.224 96.0608C125.879 98.352 124.745 100.269 122.329 101.391C120.653 102.186 118.977 102.654 117.399 102.887C117.399 103.028 117.399 103.215 117.399 103.449C117.399 105.553 118.484 110.603 127.654 112.753C128.246 112.894 128.887 113.034 129.528 113.127C129.577 113.127 131.007 113.361 133.423 113.782C133.571 113.782 133.669 113.829 133.817 113.829C134.113 113.876 134.409 113.922 134.705 113.969C134.852 114.016 134.951 114.016 135.099 114.063C135.395 114.109 135.691 114.156 136.036 114.203C136.184 114.25 136.381 114.25 136.578 114.296C136.923 114.343 137.219 114.39 137.564 114.483C138.797 114.717 140.128 114.951 141.508 115.185C142.396 115.325 143.333 115.512 144.269 115.699C152.059 117.149 161.427 119.066 168.083 120.983C171.041 121.824 173.901 122.806 176.317 123.695C176.317 123.695 176.317 123.695 176.366 123.695C180.359 125.144 186.916 130.117 186.916 130.117C186.916 74.9161 198.772 100.687 212.209 146.653C213.689 156.846 208.413 166.525 197.566 168.021C192.242 168.769 185.142 166.572 179.965 163.112C175.133 159.885 168.477 152.825 167.639 151.936C168.132 152.498 168.527 153.059 168.822 153.713C168.921 153.9 168.97 154.087 169.069 154.274C169.118 154.461 169.217 154.648 169.266 154.789C169.365 155.022 169.414 155.256 169.463 155.49C169.513 155.63 169.513 155.771 169.562 155.911C169.562 155.958 169.562 156.004 169.562 156.051C169.611 156.238 169.611 156.425 169.661 156.565C169.71 156.752 169.71 156.986 169.759 157.173C169.759 157.36 169.809 157.547 169.809 157.688C169.956 161.007 168.872 164.561 167.59 167.226C166.357 169.751 164.829 172.089 163.103 174.333C162.807 174.754 159.8 178.308 159.8 178.308L180.557 210.43C167.343 217.771 151.911 221.98 135.493 221.98C114.737 221.98 95.6562 215.293 80.4708 204.025L80.3722 204.726" fill="url(#paint1_linear_1026_34643)"/>
<path d="M192.944 91.3416C192.944 91.3416 200.998 72.1411 192.364 73.8807C183.795 75.6204 180.316 86.6381 180.316 86.6381C174.001 101.844 184.117 128.132 184.117 128.132C180.96 125.619 176.321 124.137 176.321 124.137L176.063 124.975C178.834 133.737 182.055 147.075 183.537 164.084C196.617 168.917 198.709 164.664 204.701 160.605C218.553 150.941 192.944 91.3416 192.944 91.3416Z" fill="url(#paint2_linear_1026_34643)"/>
<path d="M183.344 87.2808C183.344 87.2808 187.145 76.8429 188.692 80.5155C190.238 84.1236 187.725 88.3761 187.725 88.3761" stroke="black" stroke-width="0.558952" stroke-miterlimit="10" stroke-linecap="round"/>
<path d="M182.734 122.495C174.054 92.1654 179.478 81.0324 189.465 75.1692C199.452 69.306 197.196 84.3829 192.751 91.4059" stroke="#323232" stroke-width="1.26188" stroke-miterlimit="10" stroke-linecap="round" stroke-linejoin="round"/>
<path d="M187.145 52.0345C184.375 40.759 173.035 33.8005 161.695 36.571C150.42 39.3415 143.461 50.6814 146.232 62.0213C149.002 73.3612 160.342 80.2554 171.682 77.4848C182.957 74.7143 189.916 63.31 187.145 52.0345ZM170.78 73.8122C161.502 76.0673 152.159 70.3974 149.904 61.1193C147.649 51.8412 153.319 42.4987 162.597 40.2436C171.875 37.9885 181.218 43.6584 183.473 52.9365C185.792 62.2146 180.058 71.5572 170.78 73.8122Z" fill="white"/>
<path d="M166.721 74.3255C176.293 74.3255 184.053 66.5657 184.053 56.9935C184.053 47.4213 176.293 39.6615 166.721 39.6615C157.148 39.6615 149.389 47.4213 149.389 56.9935C149.389 66.5657 157.148 74.3255 166.721 74.3255Z" stroke="black" stroke-width="0.296486" stroke-miterlimit="10" stroke-linecap="round"/>
<path d="M161.695 36.571C172.97 33.8005 184.375 40.759 187.145 52.0345C189.916 63.31 182.957 74.7143 171.682 77.4848" stroke="black" stroke-width="0.296486" stroke-miterlimit="10" stroke-linecap="round"/>
<path d="M180.702 72.7173L186.694 79.4181" stroke="black" stroke-width="0.592972" stroke-miterlimit="10"/>
<path d="M185.018 74.1996L181.668 77.2278L185.92 81.9958C186.307 81.287 187.145 79.5474 187.918 79.7407C188.884 79.9984 189.4 82.3179 189.142 83.22C188.949 83.9287 189.013 84.7019 189.013 85.4106L196.809 94.1733L200.16 91.145L185.018 74.1996Z" fill="black"/>
<path d="M104.067 96.8344C105.447 93.9822 104.215 93.234 104.264 91.0364C107.715 90.2415 109.934 86.3606 108.8 83.1811C110.772 83.6019 112.991 82.807 114.223 81.2173C115.456 79.6275 115.555 77.3831 114.519 75.7466C116.393 75.4661 118.069 74.1568 118.661 72.4268C119.252 70.6968 118.71 68.6862 117.33 67.4237C119.499 67.0964 121.077 64.852 120.584 62.7947C120.091 60.7841 117.625 59.4281 115.505 59.9892C115.259 58.3995 114.026 56.9967 112.448 56.4824C110.871 55.968 108.997 56.3421 107.765 57.4175C107.321 55.6875 105.645 54.2848 103.82 54.051C101.947 53.8172 99.9747 54.7523 99.0873 56.3421C98.2491 54.5185 95.9811 53.3496 93.9104 53.7704C91.8397 54.1912 90.2126 56.0616 90.2619 58.0721C87.2051 56.6227 83.0143 59.2878 83.2116 62.5141C81.3873 61.9998 79.2673 62.6076 78.1333 64.0571C76.9993 65.4599 76.8514 67.564 77.8375 69.107C75.816 69.1538 73.8439 70.463 73.1537 72.2865C72.4634 74.1101 73.1044 76.3077 74.6328 77.5702C72.069 79.3937 72.4634 83.8357 75.3723 85.2384C73.5974 86.9217 73.0058 89.6337 73.9425 91.878C74.8793 94.0757 77.2458 95.7122 79.7603 95.8057C78.8236 97.6293 79.5138 100.061 81.2887 101.23C83.0637 102.399 85.6767 102.118 87.2051 100.669C88.487 104.316 93.1215 106.186 96.3263 103.801C96.4742 101.557 96.9672 100.248 98.8407 100.107C101.996 99.8736 103.081 98.9385 104.067 96.8344Z" fill="#323232"/>
<path d="M118.168 84.0695C119.012 84.0695 119.696 83.4206 119.696 82.62C119.696 81.8195 119.012 81.1705 118.168 81.1705C117.324 81.1705 116.64 81.8195 116.64 82.62C116.64 83.4206 117.324 84.0695 118.168 84.0695Z" fill="#323232"/>
<path d="M101.897 84.5836C107.074 83.7419 111.955 87.015 112.843 91.9245C113.73 96.8341 110.279 101.463 105.102 102.305C103.327 102.585 101.602 102.398 100.073 101.837" stroke="#323232" stroke-width="0.561244" stroke-miterlimit="10"/>
<path d="M121.767 132.464C123.197 135.083 124.183 139.992 124.183 139.992" stroke="#323232" stroke-width="0.561244" stroke-miterlimit="10" stroke-linecap="round" stroke-linejoin="round"/>
<path d="M182.312 212.233C169.098 219.574 152.532 223.735 136.114 223.735C115.358 223.735 95.7348 216.067 80.5494 204.845L81.141 203.256L89.5719 179.316L84.4936 174.032L84.395 173.938C84.395 173.938 89.917 170.899 93.4176 164.073C95.6855 159.677 97.066 153.646 95.5869 145.837C93.5655 135.27 90.1142 125.544 87.3039 118.717C87.2053 118.484 87.1067 118.25 87.0081 118.063C87.3039 117.782 87.5998 117.502 87.9449 117.221C88.7337 116.473 89.5226 115.725 90.2621 114.977L90.3114 114.93C90.558 114.696 90.7552 114.462 91.0017 114.182C91.6919 113.434 92.3329 112.686 92.9245 111.891C92.9245 111.891 92.9245 111.891 92.9245 111.844C93.0724 111.657 93.171 111.47 93.319 111.283C93.4176 111.564 93.5162 111.891 93.6148 112.171C95.7348 118.624 99.4819 128.583 103.525 132.417C109.293 137.888 115.9 139.431 123.739 138.028C124.331 137.935 124.922 137.795 125.563 137.654C134.191 135.691 137.051 126.058 135.572 119.98C135.079 118.016 134.586 116.146 134.142 114.416C134.093 114.182 134.044 113.995 133.945 113.761C134.093 113.761 134.191 113.808 134.339 113.808C134.635 113.855 134.931 113.901 135.227 113.948C135.375 113.995 135.473 113.995 135.621 114.042C135.917 114.088 136.213 114.135 136.558 114.182C136.706 114.229 136.903 114.229 137.1 114.275C137.445 114.322 137.741 114.369 138.086 114.462C139.319 114.696 140.65 114.93 142.031 115.164C142.08 115.257 142.08 115.351 142.129 115.444C143.115 117.782 144.151 120.26 145.186 122.598C150.166 134.007 162.837 147.286 169.394 153.692C169.493 153.879 169.542 154.066 169.641 154.253C169.69 154.44 169.789 154.627 169.838 154.768C169.936 155.002 169.986 155.235 170.035 155.469C170.084 155.609 170.084 155.75 170.134 155.89C170.134 155.937 170.134 155.983 170.134 156.03C170.183 156.217 170.183 156.404 170.232 156.545C170.282 156.732 170.282 156.965 170.331 157.152C170.331 157.339 170.38 157.526 170.38 157.667C170.528 160.987 169.443 164.54 168.162 167.205C166.929 169.73 165.401 172.068 163.675 174.312C163.379 174.733 160.372 178.287 160.372 178.287L182.312 212.233Z" fill="white"/>
<path d="M117.823 103.38C119.696 108.523 124.923 111.937 130.346 113.573C135.819 115.21 141.587 115.35 147.257 116.004C158.449 117.314 170.775 120.4 180.685 125.637C184.185 127.46 186.305 129.892 188.376 133.165C189.017 134.193 189.51 135.502 188.82 136.531C187.932 137.887 186.016 138.215 184.53 136.251C183.045 134.286 182.632 123.979 182.681 122.389" stroke="#323232" stroke-width="1.2628" stroke-miterlimit="10" stroke-linecap="round" stroke-linejoin="round"/>
<path d="M82.1762 175.059C82.9651 174.779 83.7046 174.405 84.3949 174.031C88.3884 171.833 91.4453 168.186 93.3188 164.071L93.3681 164.025C94.2555 162.061 94.8965 160.003 95.2909 157.946C96.6714 150.231 94.7979 142.329 92.4313 134.801C90.8043 129.564 85.9233 118.903 86.5642 119.043C86.6135 119.043 86.86 118.95 87.2545 118.716C88.5363 117.921 91.2973 115.677 93.5653 112.17C95.4388 109.271 96.9672 105.484 97.0165 100.901C97.0165 100.2 97.0165 99.4987 96.9179 98.7974" stroke="#323232" stroke-width="1.2628" stroke-miterlimit="10" stroke-linecap="round" stroke-linejoin="round"/>
<path d="M152.878 182.072C164.168 178.098 171.909 166.034 170.528 154.345" stroke="#323232" stroke-width="0.561244" stroke-miterlimit="10" stroke-linecap="round" stroke-linejoin="round"/>
</g>
<defs>
<filter id="filter0_f_1026_34643" x="-906.967" y="-759.952" width="3127.64" height="3107.14" filterUnits="userSpaceOnUse" color-interpolation-filters="sRGB">
<feFlood flood-opacity="0" result="BackgroundImageFix"/>
<feBlend mode="normal" in="SourceGraphic" in2="BackgroundImageFix" result="shape"/>
<feGaussianBlur stdDeviation="289.091" result="effect1_foregroundBlur_1026_34643"/>
</filter>
<linearGradient id="paint0_linear_1026_34643" x1="-96.8782" y1="-77.3337" x2="1095.33" y2="1301.22" gradientUnits="userSpaceOnUse">
<stop stop-color="white"/>
<stop offset="1" stop-color="white" stop-opacity="0"/>
</linearGradient>
<linearGradient id="paint1_linear_1026_34643" x1="185.358" y1="63.6269" x2="5.37835" y2="224.267" gradientUnits="userSpaceOnUse">
<stop stop-color="#FFECE6"/>
<stop offset="1" stop-color="#FF3C00"/>
</linearGradient>
<linearGradient id="paint2_linear_1026_34643" x1="185.358" y1="63.6269" x2="5.37835" y2="224.267" gradientUnits="userSpaceOnUse">
<stop stop-color="#FFECE6"/>
<stop offset="1" stop-color="#FF3C00"/>
</linearGradient>
<clipPath id="clip0_1026_34643">
<rect width="258" height="172" fill="white" transform="translate(0 0.942505)"/>
</clipPath>
</defs>
</svg>
