<svg width="259" height="173" viewBox="0 0 259 173" fill="none" xmlns="http://www.w3.org/2000/svg">
<g clip-path="url(#clip0_1047_29195)">
<rect width="258" height="172" transform="translate(0.347733 0.942505)" fill="#C2B6E4"/>
<g filter="url(#filter0_f_1047_29195)">
<path d="M1040.38 -111.736C1694.88 113.261 1766.96 907.848 1473.58 1322.84C1153.39 1717.42 826.998 1880.27 313.012 1685.04C-368.992 1470.36 -465.386 656.385 -172.011 241.406C60.5864 -87.6055 496.503 -298.703 1040.38 -111.736Z" fill="#9C89D4"/>
<path d="M1044.98 -110.369C1699.49 114.628 1771.57 909.215 1478.19 1324.21C1158 1718.79 831.608 1881.64 317.621 1686.41C-364.382 1471.73 -460.777 657.753 -167.401 242.773C65.1957 -86.2383 501.112 -297.336 1044.98 -110.369Z" fill="url(#paint0_linear_1047_29195)"/>
</g>
<path d="M14.7516 124.665C20.1195 120.935 25.404 115.681 27.3752 113.52C47.0273 119.434 57.9298 115.984 60.9245 113.52L80.9405 132.285L90.8347 198.815L22.9398 200.635C19.6644 198.997 9.7852 161.854 7.81397 143.999C6.7222 135.901 11.7947 127.849 14.7516 124.665Z" fill="white"/>
<path d="M183.854 73.3675C182.59 72.8973 181.698 71.5668 181.734 70.2432C181.765 68.8844 182.698 67.6068 183.971 67.1841C183.102 66.0651 183.483 64.3118 184.567 63.446C185.647 62.5448 187.244 62.4796 188.543 62.9459C190.174 63.5192 191.555 65.0824 191.529 66.8329C191.5 67.5494 191.255 68.2536 191.507 68.9397C191.763 69.6612 192.451 70.0864 192.872 70.6831C193.796 71.9745 193.386 73.8021 192.794 75.257C191.306 78.9844 182.53 78.2899 183.854 73.3675Z" fill="#323232"/>
<path d="M228.643 171.586C228.402 170.007 228.191 168.389 227.95 166.81L228.293 171.981C228.293 171.981 228.423 171.86 228.643 171.586Z" fill="url(#paint1_linear_1047_29195)"/>
<path d="M226.665 168.127L226.436 167.652L218.461 150.249L221.663 145.873L221.726 145.795L223.333 146.478L225.163 147.244L225.237 147.272L223.04 164.469L223.333 176.297L223.04 171.331C221.663 187.328 223.749 239.643 240.954 204.16C234.829 223.607 248.354 149.774 241.864 132.284C238.977 124.504 229.566 114.988 223.04 109.699C220.306 107.497 217.607 105.612 215.271 103.795C215.037 103.607 214.803 103.418 214.533 103.233C213.908 102.73 213.283 102.226 212.694 101.719L212.655 101.688C212.459 101.53 212.299 101.369 212.1 101.177C211.546 100.666 211.027 100.151 210.539 99.5973C210.539 99.5973 210.539 99.5973 210.536 99.5621C210.415 99.4324 210.294 99.3028 210.208 99.1694C210.165 99.1027 210.126 99.0712 210.083 99.0045C209.217 97.9207 208.528 96.818 208.039 95.5867C207.798 95.0063 207.623 94.383 207.481 93.7207L207.477 93.6854C207.407 93.3719 207.334 93.0231 207.261 92.6743C207.234 92.4275 207.176 92.2198 207.153 92.0082C209.586 89.1064 210.462 85.9801 210.258 81.1154C210.049 75.5379 209.149 74.1369 205.087 71.1863C201.297 68.456 193.025 69.455 191.936 69.6081C191.865 69.6157 191.83 69.6195 191.83 69.6195C191.83 69.6195 191.155 71.2974 190.189 73.2563C189.492 74.7226 188.633 76.349 187.799 77.5446C185.856 80.358 182.382 79.2344 182.542 80.7153C182.702 82.1962 184.342 83.5174 184.342 83.5174L184.432 87.5901L184.545 88.2725C184.545 88.2725 184.545 88.3862 184.773 89.0685C184.887 89.7509 185.135 90.209 185.135 90.209C185.568 91.9101 186.534 93.2683 188.353 93.9283C189.616 94.3985 190.853 94.6218 192 94.6765C192.011 94.7823 192.026 94.9233 192.045 95.0996C192.216 96.6863 191.851 100.578 185.47 102.907C185.058 103.058 184.611 103.213 184.16 103.333C184.125 103.337 183.122 103.624 181.429 104.127C181.323 104.139 181.256 104.181 181.15 104.193C180.943 104.251 180.735 104.309 180.527 104.367C180.425 104.414 180.355 104.421 180.253 104.468C180.045 104.526 179.838 104.584 179.595 104.646C179.493 104.693 179.352 104.708 179.214 104.758C178.972 104.82 178.764 104.878 178.525 104.975C177.662 105.247 176.73 105.526 175.762 105.808C175.138 105.982 174.484 106.196 173.829 106.409C168.377 108.103 161.835 110.27 157.232 112.229C155.186 113.092 153.221 114.053 151.566 114.909C151.566 114.909 151.566 114.909 151.531 114.913C148.793 116.314 146.918 117.443 146.918 117.443C146.918 117.443 145.694 106.09 144.994 98.2822L144.991 98.247C144.722 95.4225 144.577 93.084 144.522 91.9128C144.43 87.4283 144.931 85.1272 144.073 84.114C143.215 83.1008 142.593 84.2736 141.659 85.8723C141.419 86.2906 141.21 86.6698 141.033 87.0099C140.568 87.9875 140.456 88.6059 140.456 88.6059C140.456 88.6059 135.103 83.9397 131.557 82.4673C131.408 82.412 131.295 82.3529 131.146 82.2976C127.791 80.9472 124.906 80.6519 123.019 82.9955C121.038 85.4563 121.885 87.3624 122.512 88.5432C123.006 89.4887 123.946 90.6 124.937 91.8487C126.497 93.7493 128.299 95.9091 129.134 98.0306C130.66 101.932 131.232 107.899 130.983 110.886C130.44 116.759 127.926 130.156 127.769 134.988C127.541 142.789 132.099 149.681 139.976 149.973C143.844 150.126 148.742 147.922 152.162 144.914C155.354 142.108 159.539 136.271 160.066 135.536C159.759 135.998 159.523 136.451 159.365 136.967C159.309 137.116 159.289 137.261 159.234 137.41C159.214 137.554 159.159 137.703 159.135 137.813C159.083 137.997 159.067 138.177 159.051 138.357C159.027 138.466 159.039 138.572 159.015 138.682C159.018 138.717 159.022 138.752 159.026 138.787C159.006 138.932 159.021 139.073 158.997 139.183C158.977 139.328 158.996 139.504 158.976 139.649C158.992 139.79 158.971 139.935 158.983 140.041C159.147 142.555 160.211 145.151 161.345 147.062C162.431 148.871 163.714 150.516 165.13 152.076C165.376 152.37 167.815 154.818 167.815 154.818L155.586 180.641C165.631 185.158 177.006 187.142 188.745 185.876C203.586 184.276 216.685 177.763 226.626 168.095L226.754 168.616" fill="url(#paint2_linear_1047_29195)"/>
<path d="M201.388 89.1331C200.169 87.0887 200.989 86.4295 200.775 84.7761C198.243 84.4428 196.341 81.6873 196.893 79.2023C195.518 79.6717 193.867 79.2433 192.856 78.1395C191.846 77.0357 191.593 75.3509 192.2 74.037C190.837 73.9699 189.532 73.1118 188.969 71.8529C188.405 70.5939 188.629 69.0359 189.514 67.9775C187.936 67.8979 186.626 66.3271 186.811 64.7377C187 63.1836 188.652 61.971 190.214 62.2307C190.261 61.0129 191.028 59.8601 192.114 59.3506C193.2 58.8411 194.57 58.9788 195.539 59.6947C195.716 58.3559 196.8 57.1689 198.085 56.852C199.406 56.5312 200.892 57.0844 201.656 58.2148C202.107 56.775 203.633 55.7187 205.148 55.8764C206.663 56.0341 207.978 57.3191 208.107 58.839C210.174 57.5103 213.387 59.197 213.509 61.6451C214.771 61.1166 216.336 61.4115 217.265 62.4172C218.19 63.3875 218.467 64.9628 217.887 66.2023C219.336 66.0818 220.853 66.917 221.495 68.2389C222.136 69.5608 221.857 71.2674 220.867 72.3372C222.848 73.5146 222.927 76.8947 220.961 78.1767C222.367 79.3092 223.011 81.3086 222.523 83.0733C222.032 84.8027 220.473 86.2192 218.683 86.4835C219.501 87.7864 219.205 89.6731 218.031 90.6914C216.857 91.7097 214.966 91.6996 213.755 90.7244C213.135 93.5734 209.974 95.3411 207.489 93.7899C207.2 92.1089 206.741 91.1597 205.39 91.1983C203.115 91.2653 202.264 90.6437 201.388 89.1331Z" fill="#323232"/>
<path d="M190.267 80.5943C189.664 80.6594 189.122 80.2228 189.057 79.6191C188.992 79.0154 189.428 78.4733 190.032 78.4082C190.635 78.3432 191.177 78.7798 191.242 79.3834C191.307 79.9871 190.871 80.5292 190.267 80.5943Z" fill="#323232"/>
<path d="M201.943 79.7281C198.173 79.4926 194.949 82.337 194.714 86.1076C194.478 89.8782 197.322 93.1028 201.092 93.3384C202.384 93.4131 203.602 93.1391 204.65 92.5981" stroke="#323232" stroke-width="0.56" stroke-miterlimit="10"/>
<path d="M191.629 117.365C190.819 119.449 190.513 123.227 190.513 123.227" stroke="#323232" stroke-width="0.56" stroke-miterlimit="10" stroke-linecap="round" stroke-linejoin="round"/>
<path d="M154.825 182.184C164.87 186.701 177.052 188.562 188.791 187.297C203.632 185.696 212.813 195.028 222.758 185.395L224.123 161.854L218.457 150.212L221.658 145.837L221.721 145.758C221.721 145.758 217.526 143.892 214.468 139.014C212.489 135.875 211.012 131.433 211.434 125.431C212.021 117.306 213.697 109.706 215.152 104.342C215.203 104.158 215.255 103.974 215.31 103.825C215.076 103.637 214.841 103.448 214.572 103.263C213.947 102.76 213.322 102.256 212.732 101.749L212.693 101.718C212.498 101.56 212.338 101.399 212.139 101.207C211.585 100.696 211.066 100.181 210.578 99.6272C210.578 99.6272 210.578 99.6272 210.574 99.5919C210.453 99.4623 210.368 99.3289 210.247 99.1992C210.199 99.4184 210.155 99.6728 210.107 99.892C209.116 104.921 207.247 112.72 204.668 115.923C200.988 120.493 196.39 122.166 190.671 121.713C190.24 121.688 189.806 121.628 189.336 121.571C183.007 120.755 180.18 113.712 180.743 109.015C180.936 107.496 181.136 106.048 181.313 104.709C181.329 104.529 181.349 104.384 181.401 104.2C181.295 104.211 181.228 104.254 181.122 104.266C180.915 104.324 180.707 104.382 180.499 104.44C180.397 104.486 180.327 104.494 180.225 104.541C180.017 104.599 179.81 104.657 179.567 104.719C179.465 104.765 179.324 104.781 179.186 104.831C178.943 104.893 178.736 104.951 178.497 105.048C177.634 105.319 176.702 105.598 175.733 105.881C175.706 105.955 175.713 106.026 175.686 106.1C175.171 107.939 174.632 109.888 174.082 111.73C171.449 120.718 163.469 131.708 159.301 137.044C159.246 137.193 159.226 137.337 159.171 137.486C159.151 137.631 159.095 137.78 159.072 137.889C159.02 138.073 159.004 138.253 158.988 138.433C158.964 138.543 158.975 138.649 158.951 138.758C158.955 138.793 158.959 138.829 158.963 138.864C158.943 139.009 158.958 139.15 158.934 139.259C158.914 139.404 158.933 139.581 158.913 139.725C158.928 139.866 158.908 140.011 158.92 140.117C159.084 142.632 160.148 145.228 161.281 147.139C162.368 148.948 163.651 150.593 165.067 152.152C165.313 152.447 167.752 154.895 167.752 154.895L154.825 182.184Z" fill="white"/>
<path d="M192.085 95.1304C191.163 99.1533 187.704 102.13 183.959 103.782C180.18 105.438 176.067 105.989 172.066 106.919C164.17 108.769 154.813 112.56 148.153 117.273C145.798 118.918 145.276 120.402 144.061 123.029C143.687 123.855 143.44 124.88 144.018 125.602C144.762 126.556 146.424 126.092 147.062 125.06C147.699 124.028 147.664 122.712 147.5 121.517C142.384 88.2903 146.862 85.1681 143.879 83.6348C141.952 82.6299 141.003 86.7271 140.678 89.0093" stroke="#323232" stroke-width="1.26" stroke-miterlimit="10" stroke-linecap="round" stroke-linejoin="round"/>
<path d="M223.399 187.783C222.496 181.389 224.389 156.167 225.275 147.623C225.26 147.482 225.248 147.377 225.233 147.236C225.218 147.095 225.203 146.953 225.188 146.812M225.188 146.812C226.777 146.998 228.461 146.745 229.592 145.66C230.92 144.411 230.881 141.74 229.2 141.029C227.777 140.398 226.043 141.513 225.451 142.967C224.938 144.164 225.012 145.512 225.188 146.812ZM225.188 146.812C224.898 146.772 224.644 146.728 224.389 146.685C224.061 146.613 223.732 146.541 223.399 146.435C222.813 146.284 222.253 146.059 221.73 145.83C218.695 144.481 216.213 141.966 214.539 139.008L214.5 138.976C213.706 137.564 213.08 136.062 212.631 134.541C211.017 128.829 211.714 122.726 212.794 116.867C213.531 112.793 216.155 104.377 215.708 104.532C215.672 104.536 215.489 104.485 215.188 104.339C214.206 103.838 212.05 102.359 210.143 99.889C208.568 97.8474 207.167 95.1092 206.759 91.6576C206.702 91.1288 206.645 90.5999 206.659 90.0634" stroke="#323232" stroke-width="1.26" stroke-miterlimit="10" stroke-linecap="round" stroke-linejoin="round"/>
<path d="M134.36 87.3002C130.791 84.2965 128.164 83.0817 124.847 82.0839" stroke="#323232" stroke-width="0.454907" stroke-miterlimit="10" stroke-linecap="round" stroke-linejoin="round"/>
<path d="M132.255 89.2756C128.686 86.2718 126.103 84.8026 122.786 83.8048" stroke="#323232" stroke-width="0.454907" stroke-miterlimit="10" stroke-linecap="round" stroke-linejoin="round"/>
<path d="M129.717 91.8673C126.85 88.4311 125.379 87.0203 122.048 85.5604" stroke="#323232" stroke-width="0.454907" stroke-miterlimit="10" stroke-linecap="round" stroke-linejoin="round"/>
<path d="M136.147 87.0011C133.628 87.4511 130.659 90.3394 129.292 92.8766" stroke="#323232" stroke-width="0.454907" stroke-miterlimit="10" stroke-linecap="round" stroke-linejoin="round"/>
<path d="M10.2024 157.646C12.856 171.407 18.0268 194.607 22.03 198.701" stroke="#323232" stroke-width="1.26" stroke-linecap="round"/>
<path d="M96.0892 149.786C100.681 146.856 103.086 139.641 99.369 131.244C91.7161 113.971 66.3961 97.3095 59.0493 92.7615C55.9444 90.8373 54.6763 87.9948 54.1515 86.0707C53.8017 84.8462 52.0962 84.7588 51.7026 85.9395C51.309 86.989 51.2653 88.6071 52.1836 91.056C52.1836 91.056 50.3032 91.1872 47.898 91.6682L47.417 91.056L48.6852 90.5312C50.828 89.6566 51.7026 87.1202 50.653 85.0649C50.1283 84.1028 48.8601 81.8288 48.8601 81.8288L48.4665 81.2166C48.9475 80.7793 49.2537 80.167 49.2537 79.5111C49.2537 78.2429 48.2041 77.1934 46.9359 77.1934C46.6298 77.1934 46.3674 77.2371 46.105 77.3683L45.5366 76.4062C41.1635 69.9778 35.391 63.6806 29.9684 65.1237C19.3856 67.8787 20.2165 76.1876 20.2165 76.1876C20.2165 76.1876 16.3245 72.383 15.756 74.2634C15.1875 76.1438 20.304 78.0243 20.304 78.0243C20.304 78.0243 16.3682 77.5432 16.3682 79.7735C16.3682 81.7414 20.785 79.5111 20.785 79.5111C30.4495 90.2688 31.7177 104.525 27.2571 113.359C46.5951 118.41 54.2148 117.159 61.1921 114.19C66.7022 121.318 73.7428 131.157 78.9468 141.259C81.0896 145.457 83.626 148.168 86.2061 149.699C85.4189 149.786 84.588 149.917 83.7571 150.092C60.405 154.378 31.4332 173.532 26.0106 144.539H7.49088C7.49088 144.539 7.49088 200.749 71.8624 172.001C71.8624 172.001 83.8009 164.217 93.3779 161.025C100.331 173.007 103.392 160.588 103.392 160.588C103.392 160.588 105.404 151.973 96.0892 149.786Z" fill="url(#paint3_linear_1047_29195)"/>
<path d="M41.3814 66.1296C41.3814 64.599 40.1132 63.3308 38.5826 63.3308C37.883 63.3308 37.2707 63.5932 36.7897 63.9868C36.6148 62.5874 35.3903 61.4941 33.9472 61.4941C32.8102 61.4941 31.8481 62.1501 31.3671 63.1122C30.886 62.0626 29.8365 61.3192 28.6121 61.3192C27.2564 61.3192 26.1194 62.1938 25.7258 63.3746C24.9387 62.7186 23.9329 62.325 22.7959 62.325C20.3032 62.325 18.2479 64.3366 18.2479 66.873C18.2479 67.6164 18.4228 68.3161 18.7727 68.9721C16.1925 69.1033 14.1372 71.2023 14.1372 73.7825C14.1372 75.4442 15.0118 76.9311 16.28 77.8057C15.4054 78.7678 14.8806 79.9922 14.8806 81.3916C14.8806 84.2778 17.1109 86.5955 19.9534 86.7705C19.8659 87.1203 19.8222 87.4264 19.8222 87.82C19.8222 90.2689 21.8338 92.2805 24.2827 92.2805C24.5888 92.2805 24.8949 92.2368 25.1573 92.1931C25.0261 92.4992 24.9824 92.849 24.9824 93.1989C24.9824 94.8169 26.2943 96.0851 27.8686 96.0851C28.3059 96.0851 28.6995 95.9976 29.0494 95.8227C32.9851 94.0735 31.8044 89.2194 31.8044 89.2194C31.8044 89.2194 27.9998 87.9512 28.3497 85.8959C28.6995 83.7968 32.4604 85.546 32.4604 85.546L34.4282 84.4527C27.1689 70.0216 39.1074 68.8846 39.1074 68.8846C40.4193 68.5785 41.3814 67.4415 41.3814 66.1296Z" fill="#323232"/>
<path d="M52.1392 91.1003C52.1392 91.1003 39.6322 91.9312 38.1891 97.3101C36.746 102.689 52.1392 103.389 52.1392 103.389C52.1392 103.389 68.8006 121.843 78.8149 141.259" stroke="#323232" stroke-width="1.26" stroke-miterlimit="10" stroke-linecap="round" stroke-linejoin="round"/>
<path d="M29.0059 96.0421C29.0059 96.0421 32.0233 104.657 27.1692 113.359C21.8778 122.805 7.35919 122.805 7.35919 144.539H25.7829C31.1281 169.928 56.9935 158.621 71.8619 153.242C86.7303 147.863 99.0624 147.163 102.648 154.51C106.234 161.857 98.8875 172.483 93.2462 161.07" stroke="#323232" stroke-width="1.26" stroke-miterlimit="10" stroke-linecap="round" stroke-linejoin="round"/>
<path d="M49.6908 83.4475L45.1428 85.153" stroke="#323232" stroke-width="0.56" stroke-miterlimit="10" stroke-linecap="round"/>
<path d="M41.557 79.2059C42.2574 79.2059 42.8252 78.6381 42.8252 77.9377C42.8252 77.2373 42.2574 76.6696 41.557 76.6696C40.8566 76.6696 40.2888 77.2373 40.2888 77.9377C40.2888 78.6381 40.8566 79.2059 41.557 79.2059Z" fill="#323232"/>
<path d="M38.2331 97.3103L48.4223 96.0421" stroke="#323232" stroke-width="0.56" stroke-miterlimit="10" stroke-linecap="round"/>
<path d="M38.8455 99.7158L48.4225 99.191" stroke="#323232" stroke-width="0.56" stroke-miterlimit="10" stroke-linecap="round"/>
<path d="M97.838 166.055L96.7447 159.845" stroke="#323232" stroke-width="0.227454" stroke-miterlimit="10" stroke-linecap="round"/>
<path d="M100.199 165.836L99.3684 160.807" stroke="#323232" stroke-width="0.227454" stroke-miterlimit="10" stroke-linecap="round"/>
<path d="M151.565 108.397L147.812 116.704L142.808 119.093L129.351 109.861L122.906 95.4499V74.2842L149.148 79.1253L151.565 108.397Z" fill="#DBD5F0"/>
<path d="M119.816 114.605C132.944 117.594 140.7 110.142 140.7 110.142C140.7 110.142 137.407 107.759 132.944 104.466C128.482 101.173 129.348 95.1936 129.348 95.1936C130.821 95.4969 135.327 93.9804 137.407 90.4274C139.487 86.8311 137.061 81.3284 137.061 81.3284L141.567 79.3786C141.567 79.3786 141.567 79.3786 140.354 77.9054C139.14 76.4323 137.971 76.129 134.981 74.6124C131.991 73.1393 133.204 70.4529 133.204 70.4529C133.204 70.4529 137.364 67.1599 135.891 62.0905C134.418 57.021 128.135 57.9309 128.135 57.9309L130.518 62.3938C130.518 62.3938 128.395 62.8271 124.842 62.3938C122.459 62.0905 118.559 61.7872 113.793 64.1702C109.244 66.4667 108.117 74.0058 109.33 77.6021C110.543 81.1984 114.703 92.2472 114.4 95.1936C114.096 98.1832 105.431 105.029 104.564 105.332C104.564 105.332 106.687 111.615 119.816 114.605Z" fill="url(#paint4_linear_1047_29195)"/>
<path d="M113.403 88.7792L117.216 85.7896C117.216 85.7896 115.266 84.2731 114.487 81.76C114.053 80.3735 113.317 78.337 114.097 76.3872C115.83 71.9244 118.863 75.7806 118.863 75.7806C118.863 75.7806 130.388 72.2277 133.725 70.3646C137.494 68.2415 137.191 59.6624 133.161 57.8859C130.562 56.716 126.445 56.5427 126.445 56.5427L129.132 61.9155C129.132 61.9155 110.327 60.139 107.641 69.9746C104.954 79.8102 113.403 88.7792 113.403 88.7792Z" fill="#323232"/>
<path d="M136.801 81.0672C134.331 81.8472 131.818 83.1037 129.002 82.9737C126.402 82.8437 123.889 81.4139 121.896 79.7241C120.206 78.2942 119.21 76.2144 118.256 74.2213C118.256 74.2213 117.087 78.5108 117.173 81.6305C117.303 85.1835 118.386 87.8698 118.386 87.8698C119.686 90.4696 119.513 89.213 121.506 91.2928C123.499 93.3726 126.749 95.2357 129.608 94.9324C129.608 94.9324 136.498 94.7158 138.058 87.9998C139.011 84.0569 136.801 81.0672 136.801 81.0672Z" fill="#323232"/>
<path d="M93.7065 211.894C76.9889 164.469 67.2084 128.191 103.942 105.9C124.299 123.642 138.941 110.335 140.533 110.335C141.807 110.335 146.106 113.634 148.835 118.183C159.838 146.273 158.502 181.87 162.483 202.682H121.57L93.7065 211.894Z" fill="white"/>
<path d="M130.864 78.5991C131.367 78.5991 131.774 77.9395 131.774 77.1259C131.774 76.3123 131.367 75.6527 130.864 75.6527C130.362 75.6527 129.954 76.3123 129.954 77.1259C129.954 77.9395 130.362 78.5991 130.864 78.5991Z" fill="#323232"/>
<path d="M128.178 57.8875C128.178 57.8875 134.461 56.9776 135.934 62.047C137.407 67.1165 133.248 70.4094 133.248 70.4094C133.248 70.4094 132.034 73.0958 135.024 74.569C138.014 76.0422 139.184 76.3455 140.397 77.862L141.09 78.7285C141.35 79.0318 141.22 79.5085 140.83 79.6385L137.061 81.4149C137.061 81.4149 139.487 86.831 137.407 90.384C135.327 93.9802 130.821 95.4534 129.348 95.1501C129.348 95.1501 128.438 101.129 132.944 104.422C137.407 107.715 140.7 110.098 140.7 110.098C140.7 110.098 132.684 117.118 119.556 114.171C106.427 111.182 104.607 105.332 104.607 105.332" stroke="#323232" stroke-width="0.56" stroke-miterlimit="10" stroke-linecap="round" stroke-linejoin="round"/>
<path d="M104.595 105.332C92.3131 114.771 63.9495 129.101 89.2423 197.337" stroke="#323232" stroke-width="1.26" stroke-miterlimit="10" stroke-linecap="round" stroke-linejoin="round"/>
<path d="M115.786 84.9689C117.606 87.0053 119.253 89.4751 121.246 91.5115C123.239 93.5913 126.662 95.3244 129.522 95.0211" stroke="#323232" stroke-width="0.56" stroke-miterlimit="10" stroke-linecap="round"/>
<path d="M138.373 85.3156L133.255 86.3391" stroke="#B9D3EE" stroke-width="0.56" stroke-linecap="round"/>
<path d="M189.891 87.3628L184.773 88.3863" stroke="#323232" stroke-width="0.56" stroke-linecap="round"/>
<path d="M140.647 110.108C148.267 113.861 156.114 126.826 158.161 171.634L161.687 201.886" stroke="#323232" stroke-width="1.26" stroke-linecap="round"/>
<path d="M158.918 61.8234C159.387 60.3793 159.929 59.2602 160.521 58.5326C161.113 57.805 161.882 57.2142 162.836 56.8384C163.791 56.4626 164.523 56.0833 165.076 55.6789C165.629 55.2745 165.995 54.7666 166.205 54.167C166.698 52.6564 166.289 51.6898 164.978 51.2674C164.379 51.057 163.831 51.1266 163.301 51.4644C162.783 51.7689 162.406 52.31 162.137 53.0762L157.061 51.4448C157.729 49.4345 158.833 48.1008 160.441 47.3557C162.037 46.6438 163.946 46.6402 166.201 47.3566C168.422 48.0613 169.991 49.1353 170.905 50.5787C171.787 52.0104 171.95 53.6765 171.329 55.5536C171.07 56.398 170.647 57.0724 170.101 57.6667C169.556 58.2611 168.811 58.7853 167.833 59.2277L165.595 60.2756C164.965 60.5784 164.457 60.9612 164.115 61.4024C163.773 61.8436 163.451 62.4415 163.194 63.1743L158.918 61.8234ZM156.829 66.1783C157.052 65.4338 157.529 64.9277 158.204 64.6033C158.912 64.2907 159.627 64.2795 160.438 64.5267C161.249 64.7738 161.833 65.2407 162.202 65.8941C162.571 66.5474 162.661 67.2522 162.404 67.985C162.18 68.7295 161.703 69.2356 161.028 69.56C160.32 69.8726 159.605 69.8838 158.794 69.6366C157.983 69.3895 157.399 68.9226 157.03 68.2692C156.661 67.6159 156.605 66.9228 156.829 66.1783Z" fill="white" stroke="#323232" stroke-width="0.56" stroke-miterlimit="10" stroke-linecap="round" stroke-linejoin="round"/>
<path d="M76.0414 65.2588C75.2809 63.9446 74.8109 62.7932 74.6653 61.8666C74.5197 60.94 74.5938 59.9736 74.9524 59.0122C75.311 58.0508 75.5178 57.2532 75.5868 56.5713C75.6558 55.8894 75.5221 55.2783 75.2167 54.721C74.4223 53.3449 73.4301 53.0031 72.2399 53.6955C71.6828 54.0009 71.3683 54.455 71.2653 55.075C71.1454 55.6641 71.296 56.3061 71.6862 57.0181L67.0805 59.7032C66.0316 57.8627 65.7773 56.1503 66.2978 54.4562C66.8352 52.793 68.1083 51.3707 70.1481 50.1723C72.1569 48.9909 74.0039 48.5423 75.689 48.8264C77.3432 49.1276 78.6918 50.1195 79.6728 51.8362C80.1279 52.5932 80.3464 53.359 80.4241 54.1618C80.5018 54.9646 80.3938 55.8691 80.0692 56.8924L79.3529 59.2574C79.1571 59.9283 79.1021 60.5623 79.2018 61.1115C79.3016 61.6606 79.5311 62.2997 79.9043 62.9808L76.0414 65.2588ZM77.8844 69.7235C77.4802 69.0594 77.4225 68.3664 77.6323 67.6477C77.873 66.9119 78.3423 66.3729 79.0682 65.9349C79.794 65.4968 80.5318 65.3743 81.2645 65.5363C81.9973 65.6983 82.5812 66.1029 82.9545 66.784C83.3587 67.4481 83.4164 68.141 83.2066 68.8598C82.9659 69.5956 82.4966 70.1345 81.7707 70.5726C81.0449 71.0106 80.3071 71.1332 79.5744 70.9712C78.8416 70.8091 78.2886 70.3876 77.8844 69.7235Z" fill="white" stroke="#323232" stroke-width="0.56" stroke-miterlimit="10" stroke-linecap="round" stroke-linejoin="round"/>
<path d="M108.709 195.445C104.225 182.319 100.584 164.447 98.4309 152.511C95.432 135.887 90.7877 149.345 100.571 163.676" stroke="#323232" stroke-width="1.26" stroke-linecap="round"/>
</g>
<defs>
<filter id="filter0_f_1047_29195" x="-906.62" y="-759.952" width="3127.64" height="3107.14" filterUnits="userSpaceOnUse" color-interpolation-filters="sRGB">
<feFlood flood-opacity="0" result="BackgroundImageFix"/>
<feBlend mode="normal" in="SourceGraphic" in2="BackgroundImageFix" result="shape"/>
<feGaussianBlur stdDeviation="289.091" result="effect1_foregroundBlur_1047_29195"/>
</filter>
<linearGradient id="paint0_linear_1047_29195" x1="-96.5304" y1="-77.3337" x2="1095.67" y2="1301.22" gradientUnits="userSpaceOnUse">
<stop stop-color="white"/>
<stop offset="1" stop-color="white" stop-opacity="0"/>
</linearGradient>
<linearGradient id="paint1_linear_1047_29195" x1="226.84" y1="167.632" x2="229.426" y2="171.17" gradientUnits="userSpaceOnUse">
<stop stop-color="#FF3C00"/>
<stop offset="1" stop-color="#FFE05E"/>
</linearGradient>
<linearGradient id="paint2_linear_1047_29195" x1="140.248" y1="70.4296" x2="227.124" y2="220.819" gradientUnits="userSpaceOnUse">
<stop stop-color="#FF3C00"/>
<stop offset="1" stop-color="#FFE05E"/>
</linearGradient>
<linearGradient id="paint3_linear_1047_29195" x1="4.0613" y1="75.7629" x2="97.3173" y2="249.879" gradientUnits="userSpaceOnUse">
<stop stop-color="#FFCCDD"/>
<stop offset="1" stop-color="#FF3C00"/>
</linearGradient>
<linearGradient id="paint4_linear_1047_29195" x1="81.1679" y1="138.085" x2="177.04" y2="93.5039" gradientUnits="userSpaceOnUse">
<stop stop-color="#9C89D4"/>
<stop offset="0.994792" stop-color="#C3F0F7"/>
</linearGradient>
<clipPath id="clip0_1047_29195">
<rect width="258" height="172" fill="white" transform="translate(0.347733 0.942505)"/>
</clipPath>
</defs>
</svg>
