<svg width="141" height="140" viewBox="0 0 141 140" fill="none" xmlns="http://www.w3.org/2000/svg">
<path d="M0.43103 32C0.43103 14.3269 14.7579 0 32.431 0H108.431C126.104 0 140.431 14.3269 140.431 32V108C140.431 125.673 126.104 140 108.431 140H32.431C14.7579 140 0.43103 125.673 0.43103 108V32Z" fill="white"/>
<g clip-path="url(#clip0_1428_36414)">
<path d="M42.431 42H98.431V98H42.431V42Z" fill="#FFD02F"/>
<path d="M80.5904 49.4668H74.6124L79.9196 57.6918L68.6997 49.4668H62.7217L68.0289 60.2444L56.809 49.4668H50.831L56.0507 63.3804L50.831 90.5333H56.809L68.0289 61.4193L62.7217 90.5333H68.6997L79.9196 58.8678L74.6124 90.5333H80.5904L91.8978 55.7493L80.5904 49.4668Z" fill="#050038"/>
</g>
<defs>
<clipPath id="clip0_1428_36414">
<rect width="56" height="56" fill="white" transform="translate(42.431 42)"/>
</clipPath>
</defs>
</svg>
