<svg width="259" height="173" viewBox="0 0 259 173" fill="none" xmlns="http://www.w3.org/2000/svg">
<g clip-path="url(#clip0_1047_29153)">
<rect width="258" height="172" transform="translate(0.173737 0.942505)" fill="#C2B6E4"/>
<g filter="url(#filter0_f_1047_29153)">
<path d="M1040.2 -111.736C1694.7 113.261 1766.79 907.848 1473.41 1322.84C1153.22 1717.42 826.824 1880.27 312.838 1685.04C-369.166 1470.36 -465.56 656.385 -172.185 241.406C60.4124 -87.6055 496.329 -298.703 1040.2 -111.736Z" fill="#9C89D4"/>
<path d="M1044.81 -110.369C1699.31 114.628 1771.4 909.215 1478.02 1324.21C1157.83 1718.79 831.434 1881.64 317.447 1686.41C-364.556 1471.73 -460.951 657.753 -167.575 242.773C65.0217 -86.2383 500.938 -297.336 1044.81 -110.369Z" fill="url(#paint0_linear_1047_29153)"/>
</g>
<path d="M138.436 111.718L139.637 103.034L134.629 99.3024C134.629 99.3024 123.977 103.008 123.45 103.139C122.924 103.27 115.368 110.904 115.368 110.904L114.645 117.458L121.602 129.71L124.467 131.345L138.436 111.718Z" fill="#2E2E2E"/>
<path d="M140.209 113.449C141.856 113.449 143.192 112.113 143.192 110.466C143.192 108.819 141.856 107.483 140.209 107.483C138.561 107.483 137.226 108.819 137.226 110.466C137.226 112.113 138.561 113.449 140.209 113.449Z" fill="#2E2E2E"/>
<path d="M140.124 108.831C141.771 108.831 143.107 107.495 143.107 105.848C143.107 104.2 141.771 102.865 140.124 102.865C138.477 102.865 137.141 104.2 137.141 105.848C137.141 107.495 138.477 108.831 140.124 108.831Z" fill="#2E2E2E"/>
<path d="M138.655 104.274C140.303 104.274 141.638 102.939 141.638 101.291C141.638 99.6441 140.303 98.3086 138.655 98.3086C137.008 98.3086 135.672 99.6441 135.672 101.291C135.672 102.939 137.008 104.274 138.655 104.274Z" fill="#2E2E2E"/>
<path d="M133.131 102.802C135.062 102.802 136.627 101.237 136.627 99.3059C136.627 97.375 135.062 95.8096 133.131 95.8096C131.2 95.8096 129.635 97.375 129.635 99.3059C129.635 101.237 131.2 102.802 133.131 102.802Z" fill="#2E2E2E"/>
<path d="M127.339 104.242C129.27 104.242 130.835 102.676 130.835 100.745C130.835 98.8144 129.27 97.249 127.339 97.249C125.408 97.249 123.842 98.8144 123.842 100.745C123.842 102.676 125.408 104.242 127.339 104.242Z" fill="#2E2E2E"/>
<path d="M122.031 107.405C123.962 107.405 125.527 105.839 125.527 103.908C125.527 101.977 123.962 100.412 122.031 100.412C120.1 100.412 118.534 101.977 118.534 103.908C118.534 105.839 120.1 107.405 122.031 107.405Z" fill="#2E2E2E"/>
<path d="M117.455 111.729C119.386 111.729 120.951 110.163 120.951 108.232C120.951 106.301 119.386 104.736 117.455 104.736C115.524 104.736 113.958 106.301 113.958 108.232C113.958 110.163 115.524 111.729 117.455 111.729Z" fill="#2E2E2E"/>
<path d="M114.707 117.328C116.638 117.328 118.204 115.763 118.204 113.832C118.204 111.901 116.638 110.335 114.707 110.335C112.776 110.335 111.211 111.901 111.211 113.832C111.211 115.763 112.776 117.328 114.707 117.328Z" fill="#2E2E2E"/>
<path d="M114.42 123.607C116.351 123.607 117.916 122.042 117.916 120.111C117.916 118.18 116.351 116.614 114.42 116.614C112.489 116.614 110.923 118.18 110.923 120.111C110.923 122.042 112.489 123.607 114.42 123.607Z" fill="#2E2E2E"/>
<path d="M117.255 128.719C119.186 128.719 120.751 127.154 120.751 125.223C120.751 123.292 119.186 121.726 117.255 121.726C115.324 121.726 113.759 123.292 113.759 125.223C113.759 127.154 115.324 128.719 117.255 128.719Z" fill="#2E2E2E"/>
<path d="M120.051 133.106C121.793 133.106 123.204 131.694 123.204 129.953C123.204 128.212 121.793 126.8 120.051 126.8C118.31 126.8 116.899 128.212 116.899 129.953C116.899 131.694 118.31 133.106 120.051 133.106Z" fill="#2E2E2E"/>
<path d="M131.035 106.452C131.035 106.452 134.475 103.865 137.442 107.267C139.489 109.612 138.868 112.559 142.063 113.275C145.259 113.991 147.051 113.21 148.824 115.286C150.58 117.34 150.907 119.532 149.315 120.866C147.326 122.534 144.674 123.401 144.674 123.401C144.674 123.401 146.315 127.032 146.852 131.162C147.169 133.615 146.044 136.608 143.375 137.939C139.902 139.67 137.468 138.325 137.468 138.325C137.468 138.325 138.956 141.831 140.899 143.127C143.987 145.184 146.273 145.985 146.273 145.985L133.013 166.103L113.121 146.898C113.121 146.898 120.657 140.448 121.579 133.638C122.151 129.416 123.466 127.234 120.13 122.91C116.997 118.852 121.432 115.99 124.124 118.956C126.116 121.151 126.609 121.596 126.609 121.596C126.609 121.596 129.916 119.041 130.132 114.331C130.354 109.628 131.035 106.452 131.035 106.452Z" fill="url(#paint1_linear_1047_29153)"/>
<path d="M138.24 126.318C138.937 127.512 140.203 128.352 141.573 128.529C142.943 128.706 144.382 128.215 145.36 127.237" stroke="#2E2E2E" stroke-width="0.56" stroke-miterlimit="10" stroke-linecap="round" stroke-linejoin="round"/>
<path d="M132.863 116.628C133.524 114.875 135.293 113.599 137.164 113.521C139.035 113.445 140.902 114.574 141.704 116.265" stroke="#2E2E2E" stroke-width="0.56" stroke-miterlimit="10" stroke-linecap="round" stroke-linejoin="round"/>
<path d="M216.217 138.145C212.698 122.053 201.603 109.18 185.142 97.5198C171.699 87.9988 149.71 79.6389 135.414 71.4556C134.384 66.6542 134.044 63.2232 131.993 57.5224C129.033 49.2901 119.754 43.5631 113.667 56.8356C111.394 61.7907 110.609 67.3312 110.321 72.7737C96.0252 80.957 81.7192 89.4085 69.5718 100.535C57.4245 111.662 47.4554 125.779 43.9361 141.867C40.4168 157.956 44.1454 176.108 55.8512 187.696C65.3461 174.002 79.5115 153.763 79.5115 153.763C79.5115 153.763 72.45 139.424 99.4039 107.809C110.024 95.3513 122.037 83.1156 122.724 70.0852C122.78 69.032 122.871 69.6044 122.933 70.772C123.62 83.8025 139.051 91.2204 152.216 100.951C183.768 124.271 182.395 141.419 182.395 141.419C182.395 141.419 194.372 171.781 203.867 185.475C215.579 173.884 219.736 154.234 216.217 138.145Z" fill="url(#paint2_linear_1047_29153)"/>
<path d="M147.255 15.3177H99.1537V63.4192H147.255V15.3177Z" fill="url(#paint3_linear_1047_29153)"/>
<path d="M99.1537 15.3177L100.125 42.5272" stroke="#323232" stroke-width="0.56" stroke-miterlimit="10" stroke-linecap="round" stroke-linejoin="round"/>
<path d="M103.695 63.4193H138.995" stroke="#323232" stroke-width="0.56" stroke-miterlimit="10" stroke-linecap="round" stroke-linejoin="round"/>
<path d="M126.151 50.2435V28.7738H122.815C122.815 31.3378 121.023 32.2955 117.903 32.2646V35.4773C120.035 35.4773 121.641 35.1066 122.722 34.2107V50.2435H126.151Z" fill="white"/>
<path d="M146.505 145.989C146.505 145.989 152.684 149.017 160.909 148.733C167.539 148.504 180.897 139.519 180.897 139.519L209.705 182.732L189.603 194.918C190.29 196.976 198.194 217.455 198.194 217.455L55.8394 217.421L65.1173 199.716L52.0868 184.4L79.0668 151.935C79.0668 151.935 89.8372 156.357 101.131 151.706C112.791 146.904 116.905 143.817 116.905 143.817C116.905 143.817 124.464 150.175 126.508 152.733C128.428 155.133 134.054 163.706 134.054 163.706C134.054 163.706 138.002 156.128 139.885 153.76C141.308 151.958 146.505 145.989 146.505 145.989Z" fill="white"/>
<path d="M146.391 146.901L153.936 168.851L135.074 164.393" stroke="#2E2E2E" stroke-width="0.56" stroke-miterlimit="10" stroke-linecap="round" stroke-linejoin="round"/>
<path d="M116.896 143.474L114.152 170.221L134.044 164.393" stroke="#2E2E2E" stroke-width="0.56" stroke-miterlimit="10" stroke-linecap="round" stroke-linejoin="round"/>
<path d="M146.047 146.217C122.766 173.524 115.868 214.807 151.902 240.567" stroke="#2E2E2E" stroke-width="0.56" stroke-miterlimit="10" stroke-linecap="round" stroke-linejoin="round"/>
<path d="M116.552 143.13C145.06 164.919 148.788 208.289 129.184 236.796" stroke="#2E2E2E" stroke-width="0.56" stroke-miterlimit="10" stroke-linecap="round" stroke-linejoin="round"/>
<path d="M210.523 124.268C219.903 141.789 224.119 159.925 211.209 178.454C205.518 186.621 191.291 192.492 186.99 194.088C182.689 195.684 177.587 194.068 175.058 190.242C171.438 184.76 175.791 178.653 181.443 181.385C183.595 182.425 185.256 184.188 186.463 186.251C192.043 195.812 194.061 207.259 198.863 220.293" stroke="#2E2E2E" stroke-width="1.26" stroke-miterlimit="10" stroke-linecap="round" stroke-linejoin="round"/>
<path d="M118.034 65.83C117.884 63.8741 117.684 60.7113 118.551 58.9255C119.957 56.0212 122.158 55.2329 122.25 59.5731C122.332 63.3835 122.77 69.4833 122.495 73.2839" fill="#FFB199"/>
<path d="M118.034 65.83C117.884 63.8741 117.684 60.7113 118.551 58.9255C119.957 56.0212 122.158 55.2329 122.25 59.5731C122.332 63.3835 122.77 69.4833 122.495 73.2839" stroke="#2E2E2E" stroke-width="0.56" stroke-miterlimit="10" stroke-linecap="round" stroke-linejoin="round"/>
<path d="M123.115 70.7323L122.363 58.5453L125.859 58.8393L126.284 64.7205L127.722 70.4055L123.115 70.7323Z" fill="#FFB199"/>
<path d="M122.74 58.5822C122.263 57.1954 124.526 55.9297 125.455 57.0646C125.929 57.6435 125.936 58.4579 125.939 59.2037C125.955 62.9192 126.466 66.6314 127.453 70.2128" fill="#FFB199"/>
<path d="M122.74 58.5822C122.263 57.1954 124.526 55.9297 125.455 57.0646C125.929 57.6435 125.936 58.4579 125.939 59.2037C125.955 62.9192 126.466 66.6314 127.453 70.2128" stroke="#2E2E2E" stroke-width="0.56" stroke-miterlimit="10" stroke-linecap="round" stroke-linejoin="round"/>
<path d="M137.465 139.244C143.202 146.371 153.243 149.717 162.106 147.454C165.691 146.538 178.872 142.227 180.779 139.058L208.213 180.668" stroke="#2E2E2E" stroke-width="0.56" stroke-miterlimit="10" stroke-linecap="round" stroke-linejoin="round"/>
<path d="M39.0235 134.547C42.7718 124.146 48.6655 114.527 56.2307 106.465" stroke="#2E2E2E" stroke-width="0.56" stroke-miterlimit="10" stroke-linecap="round" stroke-linejoin="round"/>
<path d="M181.642 90.099C189.865 94.763 197.299 100.814 203.536 107.918" stroke="#2E2E2E" stroke-width="0.56" stroke-miterlimit="10" stroke-linecap="round" stroke-linejoin="round"/>
</g>
<defs>
<filter id="filter0_f_1047_29153" x="-906.794" y="-759.952" width="3127.64" height="3107.14" filterUnits="userSpaceOnUse" color-interpolation-filters="sRGB">
<feFlood flood-opacity="0" result="BackgroundImageFix"/>
<feBlend mode="normal" in="SourceGraphic" in2="BackgroundImageFix" result="shape"/>
<feGaussianBlur stdDeviation="289.091" result="effect1_foregroundBlur_1047_29153"/>
</filter>
<linearGradient id="paint0_linear_1047_29153" x1="-96.7045" y1="-77.3337" x2="1095.5" y2="1301.22" gradientUnits="userSpaceOnUse">
<stop stop-color="white"/>
<stop offset="1" stop-color="white" stop-opacity="0"/>
</linearGradient>
<linearGradient id="paint1_linear_1047_29153" x1="75.8301" y1="143.149" x2="174.712" y2="130.573" gradientUnits="userSpaceOnUse">
<stop stop-color="#FF3C00" stop-opacity="0.98"/>
<stop offset="1" stop-color="#FFECE6"/>
</linearGradient>
<linearGradient id="paint2_linear_1047_29153" x1="-73.7069" y1="161.66" x2="217.429" y2="118.316" gradientUnits="userSpaceOnUse">
<stop stop-color="#FF3A01"/>
<stop offset="1" stop-color="#FFECE6"/>
</linearGradient>
<linearGradient id="paint3_linear_1047_29153" x1="99.1536" y1="39.3688" x2="147.255" y2="39.3688" gradientUnits="userSpaceOnUse">
<stop offset="0.0026455" stop-color="#5157BB"/>
<stop offset="1" stop-color="#8F94DE"/>
</linearGradient>
<clipPath id="clip0_1047_29153">
<rect width="258" height="172" fill="white" transform="translate(0.173737 0.942505)"/>
</clipPath>
</defs>
</svg>
