<svg width="141" height="139" viewBox="0 0 141 139" fill="none" xmlns="http://www.w3.org/2000/svg">
<rect x="0.685547" width="140" height="138.607" rx="16" fill="white"/>
<g clip-path="url(#clip0_1006_27045)">
<path d="M57.1594 67.0835C57.9048 68.1593 58.6679 69.2211 59.5732 70.1876C58.7617 69.6936 58.0242 69.0871 57.3827 68.3863C57.6073 68.3404 57.7496 68.1358 57.5003 68.0759C56.7725 67.9054 57.1053 67.4644 57.1594 67.0835Z" fill="#FEFEFE"/>
<path d="M78.0692 64.6085C78.2078 64.4942 78.3763 64.4219 78.5548 64.4004L78.6876 64.525C78.5077 64.6614 78.2914 64.6873 78.0798 64.7273C78.0363 64.7049 78.021 64.679 78.0315 64.652C78.0421 64.625 78.0562 64.6085 78.0692 64.6085Z" fill="#C1D4F3"/>
<path d="M98.3986 76.7378C97.0629 69.6537 90.7196 64.2369 83.5156 64.0088C81.8909 63.962 80.2672 64.1328 78.6878 64.5167C78.473 64.5302 78.2624 64.5819 78.0658 64.6696C77.9482 64.6896 77.8542 64.7754 77.7343 64.7872C77.8518 64.7613 77.953 64.6825 78.0717 64.6543C78.2398 64.5779 78.4421 64.5661 78.555 64.3898C80.7972 63.4691 83.104 62.8248 85.5461 62.8083C85.9506 62.8083 86.0835 62.6449 86.1599 62.298C86.6302 60.1475 86.6972 57.9865 86.261 55.8313C84.435 46.8154 75.813 41.3233 66.8607 43.4597C58.803 45.3821 53.5649 53.5244 55.1217 61.6725C55.4897 63.5973 56.2163 65.3727 57.1569 67.0811C57.6273 68.164 58.3821 69.0423 59.124 69.7854C58.5808 69.3974 58.0588 68.7942 57.378 68.3886C56.2786 67.414 55.3405 66.2715 54.5985 65.0035C54.3821 64.6425 54.1999 64.5943 53.8095 64.7119C46.4809 66.92 41.7448 74.4003 42.8442 82.0229C43.9788 89.8571 50.9935 96.4979 60.4327 95.4856C67.0582 94.7742 72.5279 89.7854 73.9812 83.3139C74.1281 83.241 74.1258 83.3245 74.0987 83.4315C73.8107 85.9571 73.1863 88.3851 71.9388 90.619C71.7425 90.9718 71.793 91.1376 72.0694 91.388C75.9494 94.8812 80.5126 96.2146 85.6014 95.3421C94.395 93.8395 100.052 85.5103 98.3986 76.7378ZM58.4762 88.2393C57.3691 88.2334 56.274 88.0095 55.2535 87.5803C54.233 87.1511 53.307 86.5251 52.5285 85.7379C51.75 84.9508 51.1342 84.018 50.7163 82.9928C50.2984 81.9676 50.0865 80.8701 50.0929 79.7631C50.1058 75.1176 53.9141 71.3245 58.5502 71.3398C63.2275 71.3551 67.0394 75.1764 67.0217 79.8313C67.0041 84.4862 63.1711 88.2592 58.4762 88.2393ZM70.6843 67.2316C69.5722 67.2308 68.4711 67.011 67.444 66.5845C66.4169 66.1581 65.4839 65.5334 64.6983 64.7463C63.9126 63.9591 63.2898 63.0249 62.8654 61.997C62.4409 60.969 62.2232 59.8675 62.2246 58.7554C62.234 54.1205 66.0306 50.3686 70.7149 50.3651C71.8309 50.3541 72.9381 50.5646 73.9722 50.9846C75.0064 51.4046 75.9469 52.0256 76.7393 52.8116C77.5317 53.5977 78.1602 54.5332 78.5885 55.5639C79.0167 56.5946 79.2362 57.7 79.2342 58.8162C79.2322 59.9323 79.0087 61.0369 78.5767 62.0661C78.1447 63.0952 77.5128 64.0284 76.7175 64.8116C75.9223 65.5948 74.9795 66.2124 73.9439 66.6286C72.9083 67.0448 71.8003 67.2514 70.6843 67.2363V67.2316ZM82.8971 88.2404C81.7872 88.2465 80.6869 88.034 79.6591 87.6148C78.6313 87.1957 77.6961 86.5783 76.907 85.7977C76.1178 85.0172 75.4901 84.0888 75.0597 83.0657C74.6293 82.0426 74.4047 80.9447 74.3986 79.8348C74.3925 78.7248 74.6051 77.6246 75.0242 76.5968C75.4433 75.569 76.0608 74.6338 76.8413 73.8447C77.6218 73.0555 78.5502 72.4278 79.5733 71.9974C80.5964 71.567 81.6943 71.3424 82.8042 71.3363C87.4709 71.3174 91.318 75.1317 91.3251 79.7795C91.3214 82.0167 90.4333 84.1616 88.8545 85.7466C87.2757 87.3316 85.1342 88.228 82.8971 88.2404Z" fill="#1661D2"/>
<path d="M78.0695 64.6084L78.0801 64.726C77.8766 64.8528 77.6426 64.9222 77.4028 64.927C77.5805 64.7455 77.8167 64.6327 78.0695 64.6084Z" fill="#96B7EA"/>
</g>
<defs>
<clipPath id="clip0_1006_27045">
<rect width="56" height="52.6067" fill="white" transform="translate(42.6855 43)"/>
</clipPath>
</defs>
</svg>
