<svg width="140" height="140" viewBox="0 0 140 140" fill="none" xmlns="http://www.w3.org/2000/svg">
<path d="M0 32C0 14.3269 14.3269 0 32 0H108C125.673 0 140 14.3269 140 32V107.958C140 125.631 125.673 139.958 108 139.958H32C14.3269 139.958 0 125.631 0 107.958V32Z" fill="white"/>
<path d="M76.9082 79.5198H44.6891C43.2034 79.5198 42 78.3165 42 76.8307C42 75.345 43.2034 74.1417 44.6891 74.1417H76.9082C78.3939 74.1417 79.5973 75.345 79.5973 76.8307C79.5973 78.3165 78.3939 79.5198 76.9082 79.5198ZM95.3109 65.858H63.0931C61.6074 65.858 60.404 64.6546 60.404 63.1689C60.404 61.6832 61.6074 60.4798 63.0931 60.4798H95.3109C96.7966 60.4798 98 61.6832 98 63.1689C98 64.6546 96.7966 65.858 95.3109 65.858ZM88.6501 52.9215C88.6501 54.4066 87.4461 55.6106 85.961 55.6106C84.4759 55.6106 83.2719 54.4066 83.2719 52.9215C83.2719 51.4364 84.4759 50.2324 85.961 50.2324C87.4461 50.2324 88.6501 51.4364 88.6501 52.9215ZM56.7274 87.0822C56.7274 88.5673 55.5235 89.7712 54.0383 89.7712C52.5532 89.7712 51.3492 88.5673 51.3492 87.0822C51.3492 85.597 52.5532 84.3931 54.0383 84.3931C55.5235 84.3931 56.7274 85.597 56.7274 87.0822Z" fill="#93C8A2"/>
<path d="M69.9853 95.9579C67.3621 95.9579 64.7712 95.5682 62.2851 94.7975C60.8675 94.3582 60.0742 92.853 60.5133 91.4353C60.9527 90.0108 62.4618 89.2179 63.8762 89.6614C65.8463 90.2728 67.901 90.5819 69.9853 90.5819C79.1052 90.5819 87.0237 84.7295 89.6905 76.0148C89.899 75.3333 90.3699 74.7626 90.9995 74.4286C91.629 74.0946 92.3656 74.0246 93.0468 74.2342C94.4659 74.6642 95.2641 76.1693 94.83 77.5871C91.4678 88.5736 81.4831 95.9579 69.9853 95.9579ZM47.7112 65.84C46.8588 65.8401 46.0568 65.4358 45.55 64.7504C45.0431 64.065 44.8914 63.1798 45.1412 62.3648C48.5041 51.379 58.4888 44 69.9853 44C72.6104 44 75.2013 44.3897 77.6854 45.1611C78.3664 45.372 78.9356 45.8449 79.2679 46.4755C79.6002 47.1062 79.6683 47.8431 79.4573 48.524C79.2469 49.2054 78.7742 49.775 78.1433 50.1073C77.5123 50.4396 76.7751 50.5072 76.0943 50.2952C74.1256 49.6905 72.0695 49.3814 69.9853 49.3814C60.8674 49.3814 52.9475 55.2338 50.2807 63.9485C49.9346 65.0775 48.8927 65.8488 47.7119 65.85L47.7112 65.84Z" fill="#43AF79"/>
</svg>
