<svg width="141" height="140" viewBox="0 0 141 140" fill="none" xmlns="http://www.w3.org/2000/svg">
<rect x="0.253418" width="140" height="140" rx="16" fill="white"/>
<g clip-path="url(#clip0_1006_27026)">
<path d="M54.2474 77.2755C54.2474 80.4944 51.6458 83.096 48.4269 83.096C45.208 83.096 42.6064 80.4944 42.6064 77.2755C42.6064 74.0567 45.208 71.4551 48.4269 71.4551H54.2474V77.2755ZM57.1576 77.2755C57.1576 74.0567 59.7592 71.4551 62.9781 71.4551C66.197 71.4551 68.7986 74.0567 68.7986 77.2755V91.8267C68.7986 95.0456 66.197 97.6472 62.9781 97.6472C59.7592 97.6472 57.1576 95.0456 57.1576 91.8267V77.2755Z" fill="#E01E5A"/>
<path d="M62.9778 53.9056C59.7589 53.9056 57.1573 51.304 57.1573 48.0851C57.1573 44.8662 59.7589 42.2646 62.9778 42.2646C66.1967 42.2646 68.7982 44.8662 68.7982 48.0851V53.9056H62.9778ZM62.9778 56.8599C66.1967 56.8599 68.7982 59.4615 68.7982 62.6804C68.7982 65.8993 66.1967 68.5009 62.9778 68.5009H48.3825C45.1636 68.5009 42.562 65.8993 42.562 62.6804C42.562 59.4615 45.1636 56.8599 48.3825 56.8599H62.9778Z" fill="#36C5F0"/>
<path d="M86.3041 62.6804C86.3041 59.4615 88.9057 56.8599 92.1246 56.8599C95.3435 56.8599 97.9451 59.4615 97.9451 62.6804C97.9451 65.8993 95.3435 68.5009 92.1246 68.5009H86.3041V62.6804ZM83.3939 62.6804C83.3939 65.8993 80.7923 68.5009 77.5734 68.5009C74.3545 68.5009 71.7529 65.8993 71.7529 62.6804V48.0851C71.7529 44.8662 74.3545 42.2646 77.5734 42.2646C80.7923 42.2646 83.3939 44.8662 83.3939 48.0851V62.6804V62.6804Z" fill="#2EB67D"/>
<path d="M77.5734 86.0063C80.7923 86.0063 83.3939 88.6078 83.3939 91.8267C83.3939 95.0456 80.7923 97.6472 77.5734 97.6472C74.3545 97.6472 71.7529 95.0456 71.7529 91.8267V86.0063H77.5734ZM77.5734 83.096C74.3545 83.096 71.7529 80.4944 71.7529 77.2755C71.7529 74.0567 74.3545 71.4551 77.5734 71.4551H92.1687C95.3876 71.4551 97.9892 74.0567 97.9892 77.2755C97.9892 80.4944 95.3876 83.096 92.1687 83.096H77.5734Z" fill="#ECB22E"/>
</g>
<defs>
<clipPath id="clip0_1006_27026">
<rect width="56" height="56" fill="white" transform="translate(42.2534 42)"/>
</clipPath>
</defs>
</svg>
