<svg width="141" height="140" viewBox="0 0 141 140" fill="none" xmlns="http://www.w3.org/2000/svg">
<path d="M0.431641 32C0.431641 14.3269 14.7585 0 32.4316 0H108.432C126.105 0 140.432 14.3269 140.432 32V108C140.432 125.673 126.105 140 108.432 140H32.4316C14.7585 140 0.431641 125.673 0.431641 108V32Z" fill="white"/>
<path d="M91.4675 50.3236C91.4231 50.0004 91.1408 49.8211 90.9065 49.8016C90.6739 49.7821 86.1178 49.7129 86.1178 49.7129C86.1178 49.7129 82.3073 46.0125 81.9309 45.6361C81.5546 45.2597 80.8194 45.3733 80.5335 45.4585C80.53 45.4603 79.818 45.6805 78.6195 46.0516C78.4189 45.4017 78.1241 44.6027 77.7033 43.8002C76.3468 41.2114 74.3599 39.8424 71.9593 39.8389C71.9557 39.8389 71.9539 39.8389 71.9504 39.8389C71.7835 39.8389 71.6183 39.8548 71.4515 39.869C71.3805 39.7838 71.3094 39.7004 71.2349 39.6187C70.189 38.5001 68.8485 37.955 67.2416 38.0029C64.1414 38.0917 61.0538 40.3307 58.5502 44.308C56.7888 47.1063 55.4482 50.622 55.0683 53.3439C51.5082 54.4465 49.0188 55.2171 48.9638 55.2349C47.1669 55.7995 47.1101 55.8545 46.8757 57.5485C46.7017 58.8286 42 95.1854 42 95.1854L81.4018 102L98.4792 97.7546C98.4792 97.7546 91.5119 50.6468 91.4675 50.3236ZM76.6468 46.6624C75.7395 46.9429 74.7078 47.2625 73.5892 47.6088C73.5662 46.0392 73.3797 43.8552 72.6482 41.9678C75.0009 42.4134 76.1585 45.075 76.6468 46.6624ZM71.5278 48.248C69.4628 48.8871 67.2096 49.585 64.9493 50.2846C65.585 47.8503 66.7906 45.4266 68.2715 43.8375C68.8219 43.2462 69.5924 42.5874 70.5051 42.211C71.3627 44.0008 71.5491 46.5345 71.5278 48.248ZM67.3037 40.0661C68.0317 40.0501 68.6443 40.21 69.1681 40.5544C68.33 40.9894 67.5203 41.6144 66.7604 42.4294C64.7913 44.5424 63.282 47.8218 62.6801 50.9859C60.8033 51.5665 58.9674 52.1365 57.277 52.6586C58.3442 47.678 62.5185 40.2046 67.3037 40.0661Z" fill="#95BF47"/>
<path d="M90.908 49.8013C90.6754 49.7818 86.1193 49.7126 86.1193 49.7126C86.1193 49.7126 82.3089 46.0122 81.9325 45.6358C81.7922 45.4956 81.6023 45.4228 81.4033 45.3926L81.4051 101.996L98.4809 97.7526C98.4809 97.7526 91.5135 50.6466 91.4691 50.3234C91.4247 50.0002 91.1406 49.8208 90.908 49.8013Z" fill="#5E8E3E"/>
<path d="M71.9378 58.5843L69.9546 66.0043C69.9546 66.0043 67.7422 64.9976 65.1197 65.1627C61.2737 65.406 61.2329 67.8314 61.272 68.4405C61.4815 71.759 70.212 72.4835 70.7021 80.2569C71.0874 86.372 67.458 90.5553 62.229 90.8855C55.9523 91.2814 52.4971 87.5794 52.4971 87.5794L53.827 81.9224C53.827 81.9224 57.3053 84.5467 60.0894 84.3709C61.9076 84.2555 62.5575 82.7765 62.4917 81.7306C62.2184 77.4018 55.1089 77.6574 54.6597 70.5445C54.2815 64.5591 58.2127 58.4937 66.8863 57.9468C70.228 57.732 71.9378 58.5843 71.9378 58.5843Z" fill="white"/>
</svg>
