<svg width="15" height="15" viewBox="0 0 15 15" fill="none" xmlns="http://www.w3.org/2000/svg">
<path d="M7.3281 1.33117C7.43437 0.936499 7.99433 0.9365 8.10059 1.33117L9.37642 6.06964C9.41348 6.2073 9.52101 6.31483 9.65867 6.35189L14.3971 7.62772C14.7918 7.73398 14.7918 8.29394 14.3971 8.40021L9.65867 9.67603C9.52101 9.7131 9.41348 9.82062 9.37642 9.95828L8.10059 14.6968C7.99433 15.0914 7.43437 15.0914 7.3281 14.6968L6.05228 9.95828C6.01521 9.82062 5.90769 9.7131 5.77003 9.67603L1.03156 8.40021C0.636885 8.29394 0.636885 7.73398 1.03156 7.62772L5.77003 6.35189C5.90769 6.31483 6.01521 6.2073 6.05228 6.06964L7.3281 1.33117Z" fill="white"/>
<path d="M3.37171 0.107206C3.4741 -0.0696547 3.74454 0.00280946 3.74479 0.207173L3.74721 2.20496C3.7473 2.27624 3.78532 2.34209 3.847 2.3778L5.57592 3.37879C5.75279 3.48118 5.68032 3.75162 5.47596 3.75187L3.47817 3.75429C3.40689 3.75438 3.34105 3.7924 3.30533 3.85408L2.30434 5.583C2.20195 5.75987 1.93151 5.6874 1.93126 5.48304L1.92884 3.48525C1.92875 3.41397 1.89074 3.34813 1.82905 3.31241L0.100126 2.31142C-0.0767348 2.20903 -0.00427061 1.93859 0.200093 1.93834L2.19788 1.93592C2.26916 1.93583 2.335 1.89782 2.37072 1.83613L3.37171 0.107206Z" fill="white"/>
<path d="M10.5232 11.8571C10.3789 11.7124 10.5189 11.4699 10.7163 11.5226L12.2525 11.9322C12.3214 11.9506 12.3948 11.9309 12.4453 11.8805L13.5708 10.7577C13.7155 10.6134 13.9579 10.7534 13.9053 10.9508L13.4957 12.487C13.4773 12.5559 13.497 12.6293 13.5473 12.6798L14.6701 13.8053C14.8145 13.95 14.6745 14.1925 14.477 14.1398L12.9409 13.7302C12.872 13.7118 12.7986 13.7315 12.7481 13.7818L11.6226 14.9047C11.4779 15.049 11.2354 14.909 11.2881 14.7115L11.6977 13.1754C11.716 13.1065 11.6964 13.0331 11.646 12.9826L10.5232 11.8571Z" fill="white"/>
</svg>
