<svg width="24" height="24" viewBox="0 0 24 24" fill="none" xmlns="http://www.w3.org/2000/svg">
<g clip-path="url(#clip0_2487_8889)">
<path d="M12 16.875C12.6213 16.875 13.125 16.3713 13.125 15.75C13.125 15.1287 12.6213 14.625 12 14.625C11.3787 14.625 10.875 15.1287 10.875 15.75C10.875 16.3713 11.3787 16.875 12 16.875Z" fill="#E6E7EA"/>
<path d="M15.75 16.875C16.3713 16.875 16.875 16.3713 16.875 15.75C16.875 15.1287 16.3713 14.625 15.75 14.625C15.1287 14.625 14.625 15.1287 14.625 15.75C14.625 16.3713 15.1287 16.875 15.75 16.875Z" fill="#E6E7EA"/>
<path d="M19.5 16.875C20.1213 16.875 20.625 16.3713 20.625 15.75C20.625 15.1287 20.1213 14.625 19.5 14.625C18.8787 14.625 18.375 15.1287 18.375 15.75C18.375 16.3713 18.8787 16.875 19.5 16.875Z" fill="#E6E7EA"/>
<path fill-rule="evenodd" clip-rule="evenodd" d="M15.6342 9.6184C14.7303 9.6178 13.8378 9.82132 13.0234 10.2138C12.2089 10.6063 11.4934 11.1777 10.9303 11.8854C10.3671 12.5931 9.97073 13.4188 9.77079 14.3012C9.57085 15.1835 9.57248 16.0996 9.77555 16.9812C9.97863 17.8628 10.3779 18.6872 10.9436 19.3929C11.5093 20.0985 12.2268 20.6673 13.0427 21.0569C13.8585 21.4465 14.7517 21.6469 15.6556 21.643C16.5596 21.6392 17.451 21.4314 18.2635 21.0349C18.4272 20.955 18.612 20.9294 18.7913 20.9616L21.1706 21.39L20.5503 19.7291C20.4538 19.4707 20.4875 19.1817 20.6409 18.9525C21.2978 17.9708 21.6468 16.815 21.643 15.6335L21.643 15.6308C21.643 14.036 21.0099 12.5067 19.8831 11.3792C18.7563 10.2517 17.2275 9.6184 15.6342 9.6184C15.6344 9.6184 15.634 9.6184 15.6342 9.6184ZM15.6354 7.90412C17.6835 7.90427 19.6475 8.71843 21.0956 10.1674C22.5435 11.6161 23.3569 13.5808 23.3573 15.6294C23.3614 17.0017 22.9963 18.347 22.3042 19.5256L23.3031 22.2004C23.4109 22.489 23.3555 22.8132 23.1581 23.0496C22.9606 23.2861 22.6515 23.3984 22.3483 23.3438L18.7545 22.6968C17.7814 23.1275 16.7289 23.3528 15.6628 23.3573C14.5008 23.3622 13.3526 23.1047 12.3039 22.6039C11.2552 22.1031 10.333 21.372 9.60602 20.4651C8.87902 19.5582 8.36595 18.4988 8.10501 17.366C7.84407 16.2332 7.84198 15.056 8.09889 13.9223C8.3558 12.7885 8.8651 11.7274 9.58887 10.8179C10.3126 9.9084 11.2322 9.17401 12.2792 8.6695C13.3259 8.16506 14.4735 7.90343 15.6354 7.90412Z" fill="#E6E7EA"/>
<path fill-rule="evenodd" clip-rule="evenodd" d="M6.91523 1.15604C8.7475 0.521413 10.732 0.474243 12.5923 1.0211C14.4526 1.56797 16.0961 2.68161 17.2941 4.2069C17.5865 4.57919 17.5217 5.11802 17.1494 5.41042C16.7771 5.70281 16.2383 5.63804 15.9459 5.26575C14.9681 4.02084 13.6268 3.11205 12.1088 2.6658C10.5908 2.21956 8.97145 2.25805 7.47629 2.77591C5.98113 3.29378 4.68446 4.26529 3.76688 5.55526C2.8493 6.84524 2.3565 8.38947 2.35718 9.97294L2.35717 9.97587C2.35268 11.4798 2.79724 12.9507 3.63378 14.2C3.78763 14.4297 3.82119 14.7196 3.72391 14.9784L2.83285 17.3493L4.77332 17.0013C5.23927 16.9177 5.68475 17.2277 5.76832 17.6936C5.85189 18.1596 5.54191 18.605 5.07595 18.6886L1.65135 19.3028C1.34792 19.3573 1.03863 19.2445 0.84136 19.0076C0.644091 18.7707 0.589232 18.4462 0.697688 18.1576L1.96892 14.7752C1.09816 13.3279 0.63809 11.6671 0.64289 9.9722C0.642371 8.03293 1.24603 6.14166 2.36995 4.5616C3.49416 2.98113 5.08297 1.79067 6.91523 1.15604Z" fill="#E6E7EA"/>
</g>
<defs>
<clipPath id="clip0_2487_8889">
<rect width="24" height="24" fill="white"/>
</clipPath>
</defs>
</svg>
