<svg width="141" height="140" viewBox="0 0 141 140" fill="none" xmlns="http://www.w3.org/2000/svg">
<path d="M0.43103 32C0.43103 14.3269 14.7579 0 32.431 0H108.431C126.104 0 140.431 14.3269 140.431 32V108C140.431 125.673 126.104 140 108.431 140H32.431C14.7579 140 0.43103 125.673 0.43103 108V32Z" fill="white"/>
<path d="M91 42H49C45.134 42 42 45.134 42 49V91C42 94.866 45.134 98 49 98H91C94.866 98 98 94.866 98 91V49C98 45.134 94.866 42 91 42Z" fill="#0079BF"/>
<path d="M87.36 49.2793H77C75.1443 49.2793 73.64 50.7836 73.64 52.6393V70.4193C73.64 72.275 75.1443 73.7793 77 73.7793H87.36C89.2157 73.7793 90.72 72.275 90.72 70.4193V52.6393C90.72 50.7836 89.2157 49.2793 87.36 49.2793Z" fill="white"/>
<path d="M63 49.2793H52.64C50.7843 49.2793 49.28 50.7836 49.28 52.6393V84.4193C49.28 86.275 50.7843 87.7793 52.64 87.7793H63C64.8557 87.7793 66.36 86.275 66.36 84.4193V52.6393C66.36 50.7836 64.8557 49.2793 63 49.2793Z" fill="white"/>
</svg>
