<svg width="24" height="24" viewBox="0 0 24 24" fill="none" xmlns="http://www.w3.org/2000/svg">
<path fill-rule="evenodd" clip-rule="evenodd" d="M8.97533 20C16.1455 20 20.0664 13.845 20.0664 8.50781C20.0664 8.33279 20.063 8.15864 20.0553 7.98563C20.8163 7.41549 21.478 6.70402 22 5.89422C21.3015 6.21573 20.5498 6.43234 19.7614 6.53007C20.5661 6.03006 21.184 5.23895 21.4754 4.29571C20.7221 4.75836 19.8881 5.09487 19.0002 5.27612C18.289 4.49104 17.2758 4 16.1549 4C14.002 4 12.2561 5.80889 12.2561 8.03889C12.2561 8.35583 12.2903 8.66415 12.3573 8.95981C9.1176 8.79102 6.24468 7.18368 4.3224 4.73967C3.98722 5.33654 3.79445 6.03006 3.79445 6.76993C3.79445 8.17125 4.48265 9.40823 5.52908 10.132C4.88977 10.1116 4.28898 9.92948 3.76369 9.62666C3.76279 9.64348 3.76279 9.6605 3.76279 9.67825C3.76279 11.6346 5.10658 13.2677 6.89014 13.6381C6.56272 13.7304 6.21818 13.7802 5.8625 13.7802C5.61138 13.7802 5.36721 13.7544 5.12972 13.7073C5.62591 15.3121 7.06492 16.4798 8.77144 16.5127C7.43688 17.5961 5.7563 18.2416 3.92995 18.2416C3.61527 18.2416 3.30512 18.223 3 18.1858C4.72525 19.3314 6.77352 20 8.97533 20Z" fill="white" fill-opacity="0.89"/>
</svg>
