<svg width="24" height="24" viewBox="0 0 24 24" fill="none" xmlns="http://www.w3.org/2000/svg">
<path fill-rule="evenodd" clip-rule="evenodd" d="M20.0941 5.45882C21.0118 5.70588 21.7353 6.42941 21.9824 7.34706C22.4412 9.02353 22.4235 12.5176 22.4235 12.5176C22.4235 12.5176 22.4235 15.9941 21.9824 17.6706C21.7353 18.5882 21.0118 19.3118 20.0941 19.5588C18.4176 20 11.7118 20 11.7118 20C11.7118 20 5.02353 20 3.32941 19.5412C2.41176 19.2941 1.68824 18.5706 1.44118 17.6529C1 15.9941 1 12.5 1 12.5C1 12.5 1 9.02353 1.44118 7.34706C1.68824 6.42941 2.42941 5.68824 3.32941 5.44118C5.00588 5 11.7118 5 11.7118 5C11.7118 5 18.4176 5 20.0941 5.45882ZM9.5762 9.28833L15.1527 12.5001L9.5762 15.7119V9.28833Z" fill="white"/>
</svg>
