<svg width="141" height="140" viewBox="0 0 141 140" fill="none" xmlns="http://www.w3.org/2000/svg">
<path d="M0.431152 32C0.431152 14.3269 14.758 0 32.4312 0H108.431C126.104 0 140.431 14.3269 140.431 32V108C140.431 125.673 126.104 140 108.431 140H32.4312C14.758 140 0.431152 125.673 0.431152 108V32Z" fill="white"/>
<path d="M68.4203 60.5627V89.9974H44.0401L68.4203 60.5627ZM68.4203 50C68.4203 53.233 67.136 56.3336 64.8499 58.6197C62.5638 60.9058 59.4632 62.1901 56.2302 62.1901C52.9972 62.1901 49.8966 60.9058 47.6105 58.6197C45.3244 56.3336 44.0401 53.233 44.0401 50H68.4203ZM72.4368 90C72.4368 86.767 73.7211 83.6664 76.0072 81.3803C78.2933 79.0942 81.3939 77.8099 84.6269 77.8099C87.8599 77.8099 90.9605 79.0942 93.2466 81.3803C95.5327 83.6664 96.817 86.767 96.817 90H72.4368ZM72.4368 79.4373V50H96.8222L72.4368 79.4347V79.4373Z" fill="#03363D"/>
</svg>
